<svg width="48" height="48" viewBox="0 0 48 48" fill="none" xmlns="http://www.w3.org/2000/svg">
<path d="M30.7992 26.991C29.2253 26.991 28.7059 28.1881 28.548 28.7439H32.7499C32.7105 28.4353 32.5872 27.8929 32.1945 27.4974C31.86 27.1618 31.392 26.991 30.7992 26.991ZM19.9977 29.2268H16.0176V32.619H19.7803C20.4513 32.6022 21.2827 32.3862 21.2827 30.9764C21.2827 29.2758 20.1293 29.2268 19.9977 29.2268Z" fill="#300054"/>
<path d="M37.9369 6.75513H10.0969C9.37795 6.75531 8.67798 6.98599 8.09976 7.41328C7.52154 7.84057 7.09553 8.44198 6.88428 9.12921V38.9406C7.06116 39.5154 7.38888 40.0324 7.83335 40.4376C8.27781 40.8428 8.82276 41.1214 9.41148 41.2446H38.6219C39.1936 41.1246 39.7242 40.8578 40.1616 40.4705C40.5989 40.0832 40.9278 39.5886 41.116 39.0356V9.03417C40.8904 8.3699 40.4625 7.79291 39.8924 7.38418C39.3222 6.97544 38.6384 6.75547 37.9369 6.75513ZM27.4888 21.3351C27.4888 21.2022 27.5972 21.0942 27.7297 21.0942H33.7129C33.8444 21.0942 33.9534 21.2022 33.9534 21.3351V23.1212C33.9531 23.1849 33.9277 23.2459 33.8827 23.291C33.8376 23.336 33.7766 23.3614 33.7129 23.3617H27.7297C27.6659 23.3617 27.6047 23.3364 27.5595 23.2913C27.5143 23.2462 27.4889 23.185 27.4888 23.1212V21.3351ZM24.9476 31.2418C24.9476 33.5218 23.7414 34.6215 22.7276 35.1394C21.6232 35.7054 20.4784 35.7495 20.1529 35.7495H12.5579C12.494 35.749 12.433 35.7234 12.3879 35.6782C12.3428 35.633 12.3173 35.5719 12.3169 35.5081V21.0097C12.3169 20.8767 12.4264 20.7682 12.5579 20.7682H20.104C22.7824 20.7682 24.4465 22.3398 24.4465 24.8708C24.4465 26.4385 23.6828 27.1906 23.0108 27.5487C23.3844 27.6786 23.7206 27.8976 23.9905 28.1866C25.0436 29.3002 24.9534 31.1626 24.9476 31.2418ZM36.1336 31.0234C36.1263 31.0815 36.098 31.1349 36.0541 31.1736C36.0101 31.2122 35.9535 31.2334 35.895 31.2332H28.6312C28.6835 32.0295 28.9988 32.6041 29.5686 32.9434C30.0726 33.2425 30.6299 33.2751 30.844 33.2751C30.8886 33.2751 30.9164 33.2732 30.9198 33.2722C31.7536 33.2722 32.3454 33.0884 32.6944 32.7255C33.0289 32.377 33.0198 31.983 33.0174 31.9662C33.0174 31.8999 33.0395 31.8361 33.0865 31.7881C33.1089 31.7645 33.1359 31.7458 33.1657 31.733C33.1956 31.7202 33.2278 31.7136 33.2603 31.7137H35.8105C35.944 31.7137 36.0524 31.8217 36.0524 31.9551C36.0524 35.858 31.8846 36.0558 31.0465 36.0558C30.9126 36.0558 30.8363 36.051 30.8363 36.051H30.8339C28.9523 36.051 27.4801 35.5023 26.4702 34.4214C24.8876 32.725 25.0321 30.3519 25.0393 30.2521C25.0393 30.2094 25.046 28.803 25.7569 27.3759C26.4246 26.0449 27.8459 24.457 30.8507 24.457C32.5724 24.457 33.9131 24.986 34.8284 26.0286C36.5128 27.949 36.1528 30.8986 36.1336 31.0234Z" fill="#300054"/>
<path d="M20.7792 25.0236C20.7792 23.7712 20.028 23.7568 19.9968 23.7568H16.0176V26.5092H19.7337C20.2862 26.5092 20.7792 26.3959 20.7792 25.0236Z" fill="#300054"/>
</svg>
