<svg width="140" height="140" viewBox="0 0 140 140" fill="none" xmlns="http://www.w3.org/2000/svg">
<path d="M132.007 73.554C135.024 73.554 88.4928 73.5246 88.637 73.5428C88.427 73.4987 88.3381 73.8193 88.5481 73.8634C88.9051 73.9285 131.562 74.0104 132.04 73.8193C132.283 73.8193 132.191 73.5078 132.007 73.554Z" fill="url(#paint0_linear_378_5056)"/>
<path d="M105.033 70.852C105.023 71.0193 105.299 71.0249 105.299 70.7967C105.47 70.2836 105.398 59.5855 105.377 59.3461C105.781 59.3839 105.802 59.358 108.541 59.379C108.541 59.379 108.474 69.8678 108.485 70.2437C108.485 70.4432 108.518 70.6532 108.507 70.852C108.497 71.0179 108.751 71.0074 108.762 70.852C108.762 70.9066 108.784 70.7449 108.784 70.6861C108.963 68.8976 108.85 60.9351 108.85 59.2761C108.872 59.2538 108.884 59.2241 108.884 59.1931C108.884 59.1621 108.872 59.1324 108.85 59.1102C108.783 59.0638 108.708 59.0311 108.628 59.0139C108.548 58.9968 108.466 58.9954 108.386 59.0101C108.316 59.0101 105.58 59.0353 105.288 59.0766C105.211 59.0157 105.099 59.0605 105.099 59.2096C105.029 59.6296 104.998 70.1807 105 70.2514C105.029 70.4502 105.04 70.6512 105.033 70.852Z" fill="url(#paint1_linear_378_5056)"/>
<path d="M119.009 60.0239C118.998 60.1898 119.253 60.1786 119.264 60.0239C119.264 60.0456 119.264 60.0127 119.275 59.9798C119.275 59.9574 119.275 59.935 119.286 59.9245C119.43 59.3505 119.341 49.3272 119.341 45.3645C119.736 45.3995 122.598 45.3869 122.528 45.3869C122.501 45.571 122.467 60.0967 122.472 60.0246C122.461 60.1905 122.716 60.1793 122.727 60.0246C122.727 60.0463 122.727 60.0022 122.738 59.9805C122.736 59.9577 122.74 59.9349 122.749 59.914C122.889 59.354 122.819 45.452 122.793 45.284L122.804 45.2728C122.825 45.2504 122.837 45.2207 122.837 45.1898C122.837 45.1589 122.825 45.1292 122.804 45.1069C122.666 45.0185 122.501 44.9832 122.339 45.0075C122.269 45.0075 119.585 45.0348 119.264 45.0845C119.253 45.0688 119.237 45.0566 119.22 45.0494C119.202 45.0422 119.183 45.0403 119.164 45.0438C119.145 45.0474 119.128 45.0563 119.114 45.0695C119.101 45.0826 119.091 45.0995 119.086 45.1181C119.086 45.1909 118.966 60.6707 119.009 60.0239Z" fill="url(#paint2_linear_378_5056)"/>
<path d="M110.432 71.6844C110.421 71.8503 110.676 71.8503 110.687 71.6844C110.726 71.4207 110.745 71.1544 110.742 70.8878C110.831 68.9509 110.774 53.6048 110.754 53.4396C111.046 53.4655 110.976 53.462 113.94 53.462C113.94 53.5929 113.906 53.63 113.906 53.7273V71.6844C113.906 71.6997 113.909 71.7148 113.915 71.7289C113.921 71.743 113.93 71.7558 113.94 71.7666C113.951 71.7774 113.964 71.7859 113.978 71.7918C113.992 71.7976 114.007 71.8006 114.023 71.8006C114.038 71.8006 114.053 71.7976 114.067 71.7918C114.081 71.7859 114.094 71.7774 114.105 71.7666C114.116 71.7558 114.124 71.743 114.13 71.7289C114.136 71.7148 114.139 71.6997 114.139 71.6844C114.223 70.9315 114.26 70.174 114.249 69.4164C114.312 65.3872 114.167 53.3514 114.238 53.3514C114.26 53.3292 114.272 53.2994 114.272 53.2685C114.272 53.2375 114.26 53.2077 114.238 53.1855C114.033 53.0455 114.247 53.0735 111.141 53.1302C110.996 53.1304 110.852 53.1414 110.71 53.1631C110.7 53.1453 110.686 53.1305 110.669 53.1205C110.652 53.1105 110.632 53.1059 110.612 53.1071C110.592 53.1083 110.573 53.1153 110.556 53.1272C110.54 53.1391 110.528 53.1555 110.521 53.1743C110.521 53.2317 110.479 53.2373 110.499 53.2961C110.413 53.7259 110.428 71.7558 110.432 71.6844Z" fill="url(#paint3_linear_378_5056)"/>
<path d="M118.974 71.6103V71.6656C118.963 71.8315 119.217 71.8315 119.229 71.6656V71.5991C119.227 71.5727 119.231 71.5463 119.239 71.5214C119.379 70.6947 119.309 51.129 119.284 50.8987C119.68 50.9337 122.541 50.9211 122.47 50.9211C122.464 50.9886 122.451 51.0552 122.431 51.1199V71.6544C122.431 71.6859 122.444 71.7162 122.466 71.7385C122.488 71.7608 122.519 71.7734 122.55 71.7734C122.582 71.7734 122.612 71.7608 122.634 71.7385C122.657 71.7162 122.669 71.6859 122.669 71.6544V71.5879C122.667 71.558 122.671 71.5281 122.68 71.4997C122.806 70.7472 122.772 51.0282 122.724 50.8875V50.8203C122.768 50.8203 122.812 50.7076 122.747 50.6432C122.727 50.6245 122.705 50.6093 122.68 50.5984C122.284 50.5118 121.875 50.5006 121.474 50.5655C120.721 50.5464 119.968 50.5686 119.217 50.632C119.195 50.5431 119.04 50.5431 119.029 50.632C119.029 50.6726 118.99 50.73 119.007 50.765C118.96 51.0499 118.902 70.715 118.93 71.5312C118.974 71.5627 118.974 71.5844 118.974 71.6103Z" fill="url(#paint4_linear_378_5056)"/>
<path d="M118.94 45.1972C118.015 44.9814 117.069 44.8641 116.119 44.8472C116.086 44.8479 116.055 44.8603 116.031 44.882C116.007 44.9037 115.992 44.9334 115.988 44.9656C115.984 44.9978 115.991 45.0303 116.009 45.0573C116.027 45.0843 116.055 45.1038 116.086 45.1125C116.948 45.3308 117.824 45.4896 118.708 45.5878C117.435 46.5168 116.109 47.3704 114.736 48.1442C106.352 52.9084 97.5344 54.2755 94.1128 55.0917C93.914 55.1365 94.0022 55.413 94.1905 55.3794C95.0753 55.2576 95.9608 55.07 96.8344 54.8817C103.888 53.3795 110.923 51.1003 116.939 47.2223C117.605 46.7945 118.259 46.348 118.899 45.8832C118.88 46.0176 118.899 46.0512 118.788 46.8569C118.723 47.3546 118.601 47.8418 118.546 48.3395C118.523 48.5831 118.896 48.616 118.966 48.3948C119.145 47.5893 119.267 46.7723 119.331 45.9497C119.389 45.2903 119.47 45.2637 118.94 45.1972Z" fill="url(#paint5_linear_378_5056)"/>
<path d="M136.057 17.0948C136.053 17.0628 136.042 17.0319 136.026 17.0039C136.01 16.9759 135.988 16.9515 135.962 16.9319C135.937 16.9124 135.907 16.8982 135.876 16.8901C135.845 16.882 135.812 16.8802 135.78 16.8848C135.71 16.8848 11.7262 17.1697 11.6548 17.2054C11.6277 17.1705 11.5903 17.1451 11.548 17.1326C11.5056 17.1202 11.4604 17.1214 11.4188 17.1362C11.3771 17.1509 11.3412 17.1784 11.3161 17.2147C11.291 17.251 11.2779 17.2943 11.2789 17.3384C11.2789 18.1987 11.6478 83.4527 11.5995 83.9315C11.5883 84.2304 12.0531 84.2304 12.0755 83.9315C12.1672 82.2074 12.1686 82.0702 11.7325 17.659C13.1808 17.68 135.47 17.2943 135.603 17.2943C135.603 20.6263 135.968 83.1979 135.924 83.6438C135.913 83.9427 136.377 83.9427 136.4 83.6438C136.724 77.5517 136.066 17.1851 136.057 17.0948Z" fill="#191919"/>
<path d="M33.5295 79.8491C33.5193 79.8171 33.5019 79.7878 33.4786 79.7635C33.4553 79.7392 33.4267 79.7206 33.3951 79.7091C32.8419 77.9318 32.1067 76.2164 31.2013 74.59C31.4652 74.1455 31.391 70.95 31.328 70.1261C31.3263 70.0928 31.3174 70.0602 31.3017 70.0307C31.286 70.0011 31.264 69.9755 31.2373 69.9554C31.2106 69.9354 31.1797 69.9215 31.147 69.9147C31.1143 69.9079 31.0805 69.9084 31.048 69.9161C27.5396 70.5412 23.7365 71.8635 21.367 74.5298C21.1769 74.6884 21.032 74.8944 20.947 75.1269C20.8917 75.3922 21.08 75.6911 21.1682 75.9354C21.7771 77.477 22.4784 78.9806 23.2682 80.4378C23.2786 80.4548 23.2929 80.469 23.31 80.4793C23.327 80.4895 23.3463 80.4955 23.3662 80.4966C22.6928 81.702 23.6462 83.4366 24.8061 83.4366C24.8278 83.6578 24.9167 83.879 24.9496 84.0897C25.1596 85.2475 24.7158 85.8985 24.8166 86.2688C24.8221 86.2876 24.8318 86.3048 24.8449 86.3193C24.858 86.3338 24.8741 86.3452 24.8922 86.3527C24.9102 86.3601 24.9297 86.3634 24.9492 86.3624C24.9687 86.3613 24.9878 86.3559 25.0049 86.3465C25.5411 85.972 25.4802 83.9665 25.2037 83.3813C25.6384 83.2697 26.0167 83.0018 26.2663 82.6288C26.2812 82.6028 26.2883 82.573 26.2867 82.543C26.2852 82.5131 26.2751 82.4842 26.2576 82.4598C26.2402 82.4354 26.2161 82.4165 26.1882 82.4054C26.1603 82.3943 26.1299 82.3914 26.1004 82.3971C25.6993 82.5 24.7928 83.6627 23.9206 82.4188C23.2052 81.4045 23.6994 80.1788 24.5177 80.2278C24.7022 80.2562 24.8813 80.3123 25.049 80.3944C25.119 80.4175 25.4648 80.2999 25.469 80.1144C25.4914 79.2044 25.6342 78.2986 25.7126 77.3928C25.7364 77.1128 25.6685 77.0393 25.9114 76.9175C27.5603 76.1216 29.2496 75.4122 30.9724 74.7923C31.1537 75.2312 31.58 76.0866 31.6535 76.3092C31.5016 76.2729 31.3434 76.2731 31.1915 76.3096C31.0397 76.346 30.8987 76.4179 30.7799 76.5192C30.7579 76.542 30.744 76.5714 30.7401 76.6028C30.7362 76.6343 30.7427 76.6661 30.7585 76.6936C30.7743 76.721 30.7985 76.7426 30.8276 76.7551C30.8567 76.7676 30.8891 76.7703 30.9199 76.7628C31.1385 76.6905 31.3739 76.6866 31.5947 76.7516C31.6605 76.7649 31.7564 76.7789 31.8047 76.7299C32.2545 77.7701 32.648 78.8338 32.9835 79.9163C32.1348 80.6894 31.065 81.1767 29.9248 81.3097C28.7845 81.4427 27.6313 81.2146 26.6275 80.6576C26.2705 80.3013 26.0059 80.6779 26.2292 80.9005C26.8247 81.486 27.2459 82.2254 27.4458 83.0362C27.5697 83.5598 27.4689 83.9063 27.9547 84.0757C28.8005 84.395 29.6888 84.5875 30.5909 84.6469C30.5657 84.9136 30.6721 85.6066 30.9087 85.7585C30.9864 85.8019 31.1187 85.769 31.1299 85.6696C31.1642 85.4666 30.9612 85.1362 30.8982 84.656C32.8995 84.642 34.4192 82.7828 33.5295 79.8491ZM32.0252 82.8367C31.9078 82.9481 31.7601 83.0223 31.6006 83.0498C31.4412 83.0774 31.2771 83.057 31.1292 82.9914C30.9899 82.9282 30.8695 82.8296 30.7801 82.7055C30.6907 82.5813 30.6354 82.4359 30.6196 82.2837C30.6196 82.1948 30.7309 82.15 30.775 82.1948C30.9738 82.3943 31.118 82.731 31.4498 82.7261C31.7816 82.7212 31.9706 82.3635 32.1029 82.2613C32.3514 82.0653 32.4795 82.4671 32.0231 82.8367H32.0252Z" fill="#191919"/>
<path d="M31.3264 78.9644C31.4631 79.2002 31.5674 79.4533 31.6365 79.7169C31.6365 79.9332 31.1773 79.9752 30.961 79.9598C30.8532 79.9598 30.7097 80.0837 30.7622 80.2146C30.7765 80.2538 30.802 80.2878 30.8354 80.3127C30.8689 80.3376 30.9089 80.3521 30.9505 80.3546C31.1257 80.384 31.3053 80.3712 31.4747 80.3174C31.644 80.2636 31.798 80.1703 31.9242 80.0452C32.1454 79.7463 31.9459 79.3697 31.8129 79.0715C31.5321 78.3963 31.1051 77.7917 30.5627 77.3012C30.4633 77.2235 30.2974 77.3229 30.3751 77.4412C30.7276 77.926 31.0454 78.435 31.3264 78.9644Z" fill="#191919"/>
<path d="M28.3395 78.2343C28.4128 78.0799 28.5101 77.9381 28.6279 77.8143C28.7455 77.7065 28.8148 77.7219 28.9233 77.57C29.0927 77.332 28.84 77.2242 28.6839 77.2655C28.5305 77.334 28.3947 77.4367 28.287 77.5656C28.1793 77.6946 28.1024 77.8464 28.0623 78.0096C28.0098 78.2749 28.2632 78.3855 28.3395 78.2343Z" fill="#191919"/>
<path d="M9.86207 91.6546C10.1952 91.1922 10.384 90.6415 10.4046 90.0719C10.2703 89.4998 10.0852 88.9409 9.85157 88.4017C9.72962 87.8034 9.7754 87.183 9.98387 86.609C9.99507 86.4984 9.84037 86.4543 9.77387 86.5208C9.62412 86.7155 9.51468 86.9381 9.45194 87.1756C9.38921 87.4131 9.37443 87.6607 9.40847 87.904C9.45817 89.0394 10.3626 89.7569 9.91737 90.7803C9.68966 91.1827 9.49015 91.6005 9.32027 92.0305C9.20967 92.4176 9.19847 93.0371 9.62967 93.2478C9.64983 93.2587 9.67296 93.2628 9.69563 93.2595C9.71831 93.2562 9.73931 93.2457 9.75551 93.2295C9.77171 93.2132 9.78225 93.1923 9.78556 93.1696C9.78887 93.1469 9.78477 93.1238 9.77387 93.1036C9.64915 92.8787 9.59119 92.6229 9.60681 92.3663C9.62244 92.1096 9.71099 91.8627 9.86207 91.6546Z" fill="#191919"/>
<path d="M7.84879 86.6091C7.88029 86.831 7.87049 87.1404 8.03639 87.3091C8.05657 87.3271 8.08084 87.3398 8.10708 87.3463C8.13333 87.3528 8.16075 87.3527 8.18697 87.3462C8.21319 87.3396 8.23741 87.3267 8.25752 87.3087C8.27764 87.2906 8.29304 87.268 8.30239 87.2426C8.40529 86.9934 8.20859 86.6931 8.16939 85.8265C8.13649 85.3505 8.12529 84.864 8.10289 84.388C8.09239 84.2557 7.89289 84.2221 7.87049 84.3551C7.75797 85.1017 7.75066 85.8604 7.84879 86.6091Z" fill="#191919"/>
<path d="M6.59857 87.3062C6.61021 87.4719 6.67198 87.6301 6.77567 87.7598C6.79413 87.7793 6.81748 87.7935 6.8433 87.8009C6.86911 87.8083 6.89643 87.8086 6.92241 87.8018C6.94838 87.795 6.97205 87.7813 6.99094 87.7623C7.00982 87.7432 7.02324 87.7194 7.02977 87.6933C7.06668 87.5395 7.05916 87.3783 7.00807 87.2285C6.80927 86.103 6.6981 84.9637 6.67557 83.8209C6.66507 83.6991 6.47677 83.655 6.45437 83.788C6.29231 84.96 6.34115 86.1515 6.59857 87.3062Z" fill="#191919"/>
<path d="M5.1798 87.2621C5.2463 87.4833 5.2792 87.8151 5.5228 87.9145C5.55218 87.9242 5.58407 87.9228 5.61254 87.9107C5.64101 87.8986 5.66409 87.8765 5.6775 87.8487C5.849 87.54 5.429 87.2992 5.058 84.8611C5.0356 84.7064 4.7703 84.7393 4.778 84.8947C4.82521 85.6961 4.95994 86.4899 5.1798 87.2621Z" fill="#191919"/>
<path d="M5.87995 92.7503C4.59545 90.6503 4.33995 88.5391 3.76735 86.2781C3.73375 86.1381 3.48735 86.1675 3.51255 86.3117C3.70183 88.5286 4.32598 90.6864 5.34935 92.6621C5.50405 92.9421 5.69235 93.2151 5.84705 93.4916C6.17605 94.0558 6.14735 94.172 6.32305 94.2665C6.34245 94.2761 6.3637 94.2814 6.38533 94.282C6.40697 94.2827 6.42849 94.2786 6.44842 94.2702C6.46836 94.2617 6.48624 94.2491 6.50084 94.2331C6.51544 94.2171 6.52643 94.1982 6.53305 94.1776C6.64435 93.9151 6.38185 93.5714 5.87995 92.7503Z" fill="#191919"/>
<path d="M5.16002 88.9435C5.14556 88.9595 5.13716 88.9801 5.1363 89.0017C5.13544 89.0233 5.14217 89.0445 5.15531 89.0616C5.16846 89.0787 5.18719 89.0907 5.20825 89.0955C5.22932 89.1003 5.25139 89.0975 5.27062 89.0877C7.19422 88.1035 7.77662 88.6201 8.33522 88.5235C8.45702 88.5011 8.44582 88.3464 8.36882 88.2799C7.95862 87.9677 6.14072 87.9635 5.16002 88.9435Z" fill="#191919"/>
<path d="M100.276 90.1384C100.595 89.6996 100.778 89.1762 100.8 88.6341C100.675 88.0884 100.501 87.5551 100.28 87.0409C100.171 86.4713 100.217 85.8829 100.413 85.3371C100.423 85.2265 100.28 85.1929 100.213 85.2594C100.072 85.4454 99.9691 85.6575 99.9103 85.8835C99.8514 86.1095 99.8378 86.3448 99.8701 86.5761C99.9184 87.6464 100.765 88.3261 100.357 89.2977C100.144 89.6802 99.9562 90.0755 99.7931 90.4814C99.693 90.8468 99.6713 91.4439 100.08 91.6434C100.099 91.6535 100.12 91.6574 100.141 91.6544C100.162 91.6514 100.181 91.6417 100.196 91.6267C100.211 91.6117 100.221 91.5923 100.224 91.5713C100.227 91.5503 100.223 91.529 100.213 91.5104C100.099 91.2974 100.044 91.0573 100.055 90.8157C100.066 90.5741 100.143 90.34 100.276 90.1384Z" fill="#191919"/>
<path d="M98.3499 85.3475C98.3758 85.5575 98.3716 85.8571 98.527 86.0118C98.5462 86.0297 98.5695 86.0425 98.595 86.0489C98.6204 86.0553 98.647 86.0552 98.6724 86.0485C98.6977 86.0419 98.721 86.029 98.74 86.0109C98.759 85.9929 98.7731 85.9703 98.7811 85.9453C98.8182 85.7265 98.7992 85.5017 98.7258 85.2922C98.6428 84.6095 98.5986 83.9226 98.5935 83.2349C98.5823 83.1131 98.394 83.0683 98.3716 83.2013C98.2615 83.912 98.2542 84.6348 98.3499 85.3475Z" fill="#191919"/>
<path d="M97.1674 86.012C97.1823 86.1682 97.2397 86.3173 97.3333 86.4432C97.3518 86.4603 97.3743 86.4724 97.3987 86.4785C97.4231 86.4845 97.4487 86.4842 97.473 86.4776C97.4973 86.471 97.5195 86.4584 97.5376 86.4409C97.5556 86.4233 97.5689 86.4015 97.5762 86.3774C97.6132 86.2308 97.6056 86.0766 97.5545 85.9343C97.3677 84.8631 97.2604 83.7796 97.2332 82.6926C97.2227 82.582 97.0456 82.5379 97.0232 82.6597C96.8708 83.7768 96.9196 84.9121 97.1674 86.012Z" fill="#191919"/>
<path d="M95.8172 85.9677C95.8781 86.1777 95.9173 86.4983 96.1385 86.5872C96.168 86.5956 96.1994 86.5935 96.2276 86.5814C96.2558 86.5693 96.2789 86.5479 96.2932 86.5207C96.464 86.2127 96.0132 85.9215 95.7066 83.6773C95.6849 83.5219 95.4301 83.5667 95.4413 83.7102C95.4836 84.4742 95.6097 85.2313 95.8172 85.9677Z" fill="#191919"/>
<path d="M96.4816 91.1898C95.2552 89.1598 95.0431 87.3398 94.4677 85.0382C94.4348 84.9052 94.2024 84.9276 94.2241 85.0711C94.4084 87.1795 95.0029 89.2316 95.9741 91.1121C96.1288 91.3774 96.2947 91.6434 96.4494 91.9087C96.7665 92.4519 96.721 92.566 96.903 92.65C96.9208 92.6598 96.9406 92.6656 96.9609 92.6669C96.9812 92.6683 97.0016 92.6651 97.0206 92.6578C97.0396 92.6505 97.0568 92.6391 97.0709 92.6245C97.085 92.6098 97.0958 92.5923 97.1025 92.573C97.1858 92.3616 97.0633 92.1516 96.4816 91.1898Z" fill="#191919"/>
<path d="M98.0524 86.7644C97.6418 86.7362 97.2298 86.7922 96.8417 86.9291C96.4536 87.066 96.0976 87.2808 95.7956 87.5603C95.7179 87.638 95.8173 87.7381 95.9062 87.6933C97.6884 86.7833 98.3415 87.2488 98.8161 87.1627C98.9372 87.1403 98.9267 86.9968 98.849 86.9303C98.6036 86.8033 98.3281 86.7459 98.0524 86.7644Z" fill="#191919"/>
<path d="M55.468 84.8059C55.1467 84.5294 54.7372 84.4076 54.4054 84.164C54.0729 83.8708 53.6945 83.6344 53.2854 83.464C53.0982 83.4012 52.8986 83.3846 52.7036 83.4155C52.5086 83.4465 52.3239 83.5241 52.1654 83.6418C51.0454 84.4713 51.2554 85.0418 51.4017 85.9315C51.4738 86.4446 51.4513 86.9665 51.3352 87.4715C51.3284 87.4969 51.3309 87.5239 51.3422 87.5476C51.3536 87.5713 51.373 87.5902 51.397 87.6009C51.421 87.6117 51.4481 87.6134 51.4733 87.606C51.4985 87.5986 51.5203 87.5824 51.5347 87.5604C52.2347 86.3004 51.24 85.2028 51.8665 84.4405C52.0598 84.1639 52.3285 83.9486 52.6407 83.8203C53.3407 83.6103 53.9462 84.4069 54.4887 84.7058C54.7973 84.8254 55.0764 85.0102 55.307 85.2476C55.3562 85.2978 55.3924 85.3594 55.4125 85.4268C55.4325 85.4942 55.4358 85.5656 55.422 85.6346C55.4082 85.7036 55.3778 85.7682 55.3333 85.8227C55.2889 85.8773 55.2318 85.9201 55.167 85.9476C54.9122 86.0344 54.6408 86.0617 54.3738 86.0272C54.1069 85.9927 53.8514 85.8975 53.627 85.7488C53.4869 85.6318 53.3391 85.5244 53.1846 85.4275C53.0845 85.3722 52.9963 85.4716 53.0404 85.5717C53.2763 85.8698 53.5868 86.1005 53.9404 86.2404C54.2939 86.3802 54.6782 86.4244 55.0543 86.3683C55.2371 86.3651 55.4138 86.3023 55.5577 86.1895C55.7016 86.0768 55.8048 85.9201 55.8515 85.7434C55.8983 85.5667 55.8862 85.3795 55.817 85.2103C55.7478 85.0411 55.6252 84.8991 55.468 84.8059Z" fill="#191919"/>
<path d="M54.4389 83.4451C54.9219 82.5792 55.3573 81.1708 55.7556 80.5464C55.8214 80.447 55.8956 80.3581 55.9656 80.2587C55.8337 81.4221 55.6081 82.5729 55.2908 83.6999C55.2684 83.8546 55.4896 83.9981 55.5785 83.821C55.9569 82.7341 56.2058 81.6063 56.3198 80.461C56.3415 80.2727 56.3527 80.0291 56.1868 79.9073C55.7241 79.5174 55.1585 80.8957 54.9366 81.4564C54.6605 82.0733 54.4168 82.7041 54.2065 83.3464C54.1996 83.3758 54.2033 83.4067 54.217 83.4337C54.2306 83.4606 54.2533 83.4819 54.2811 83.4937C54.309 83.5055 54.34 83.5071 54.3689 83.4982C54.3978 83.4893 54.4226 83.4705 54.4389 83.4451Z" fill="#191919"/>
<path d="M55.5228 84.474C55.4528 84.5944 55.6222 84.7393 55.7216 84.6287C55.914 84.4064 56.1468 84.2225 56.4076 84.0869C56.8675 83.8566 56.941 84.1198 57.1377 84.1534C57.3477 84.2052 57.4394 83.8034 56.9277 83.6634C56.6401 83.6474 56.3541 83.7156 56.1046 83.8596C55.8551 84.0035 55.653 84.217 55.5228 84.474Z" fill="#191919"/>
<path d="M56.253 85.0937C56.1536 85.1714 56.2859 85.3261 56.3853 85.2708C56.6982 85.0888 56.9215 84.8438 57.1378 84.7178C57.4927 84.54 57.6075 84.7549 57.7909 84.8284C57.9743 84.9019 58.0625 84.498 57.625 84.3524C56.995 84.1403 56.4973 84.9019 56.253 85.0937Z" fill="#191919"/>
<path d="M58.045 85.669C57.9526 85.1979 57.3198 85.2938 56.9607 85.7243C56.8837 85.8125 56.9831 85.9784 57.0937 85.9014C57.1931 85.8349 57.6026 85.5913 57.7132 85.7243C57.7573 85.7796 57.7132 85.9896 57.6915 86.0561C57.4682 87.1726 55.0581 88.3892 55.0581 89.5743C55.0596 89.6022 55.0698 89.629 55.0874 89.6507C55.105 89.6725 55.1289 89.6882 55.1559 89.6955C55.1829 89.7029 55.2115 89.7016 55.2376 89.6917C55.2638 89.6819 55.2862 89.6641 55.3017 89.6408C55.5382 89.1579 55.8519 88.717 56.2306 88.3353C56.8053 87.7445 58.2466 86.6903 58.045 85.669Z" fill="#191919"/>
<path d="M54.6489 89.9726C53.4124 89.4564 52.2513 88.7755 51.1972 87.9482C51.1517 87.9234 51.0996 87.9132 51.0481 87.9191C50.9966 87.925 50.9482 87.9467 50.9095 87.9811C49.3208 89.2585 47.8877 90.7179 46.6395 92.3296C46.3019 93.485 46.1087 94.6777 46.0641 95.8807C46.0635 95.9155 46.0507 95.949 46.0278 95.9753C46.005 96.0016 45.9735 96.019 45.9391 96.0244C45.9047 96.0297 45.8695 96.0228 45.8397 96.0046C45.8099 95.9865 45.7875 95.9585 45.7764 95.9254C45.4831 94.9629 45.9129 93.4754 46.2741 92.3407C46.0088 92.0747 44.4268 90.504 43.9179 89.9839C41.3314 87.3939 38.572 84.3138 34.7234 84.2438C33.6928 84.2155 32.674 84.4684 31.7764 84.9753C31.0386 85.4016 30.6382 86.2879 28.4745 86.4951C27.4976 86.603 26.5095 86.545 25.552 86.3236C24.761 86.0436 25.3574 85.66 23.6263 85.66C20.1907 85.7517 17.3263 88.8281 15.7051 91.9109C14.9282 93.4322 14.2651 95.009 13.7213 96.6282C14.2183 97.4507 15.8969 100.584 15.9928 101.537C16.0033 101.691 15.8045 101.714 15.7268 101.603C15.3229 101.024 15.3446 100.44 14.0118 97.9848C13.1507 96.2493 11.9106 94.7294 10.383 93.5378C10.0036 93.2207 9.91747 93.1787 9.37637 93.416C9.24547 93.4741 6.34817 94.6703 6.27817 94.699C6.22794 94.7142 6.18378 94.7448 6.15198 94.7866C6.12018 94.8283 6.10237 94.879 6.10107 94.9314C6.07237 95.3717 7.32397 100.351 10.4054 105.088C11.3455 106.526 12.5054 107.954 14.2001 108.518C16.0439 109.148 17.4236 108.528 18.7914 107.135C19.9875 105.891 21.0313 104.51 21.9008 103.019C21.5753 101.719 20.9481 99.1461 20.7171 97.8189C20.7107 97.7861 20.7171 97.7521 20.7349 97.7238C20.7527 97.6955 20.7806 97.675 20.8129 97.6666C20.8453 97.6581 20.8797 97.6623 20.909 97.6782C20.9384 97.6942 20.9606 97.7207 20.9712 97.7524C22.1101 101.411 22.0982 104.185 25.3749 109.646C25.4077 109.701 25.4608 109.741 25.5227 109.758C25.5847 109.775 25.6507 109.766 25.7067 109.735C31.7127 106.852 38.0134 104.752 44.4933 106.372C44.5205 106.379 44.5489 106.38 44.5765 106.374C44.6041 106.368 44.6301 106.357 44.6524 106.34C44.6747 106.323 44.6929 106.301 44.7055 106.275C44.7181 106.25 44.7247 106.223 44.725 106.194C44.6619 105.105 44.3878 104.037 43.9179 103.052C42.6852 100.265 40.3703 96.3258 40.4102 93.1499C40.4102 93.0281 40.6097 92.9953 40.6314 93.1171C41.2355 96.6605 41.8956 97.7251 43.9949 102.147C46.4267 102.313 48.1081 101.993 49.6712 100.123C51.9782 97.1733 53.722 93.8241 54.8155 90.2428C54.8589 90.1385 54.7707 90.016 54.6489 89.9726ZM34.9663 99.6978C34.3824 99.3219 33.8407 98.8842 33.3507 98.3922C32.8728 97.9115 32.4899 97.3448 32.2223 96.722C32.1782 96.6114 32.3665 96.5337 32.4218 96.6331C33.0924 98.0261 34.6184 98.995 35.1098 99.5095C35.1312 99.5296 35.1445 99.557 35.1469 99.5864C35.1493 99.6157 35.1408 99.6449 35.123 99.6683C35.1051 99.6918 35.0792 99.7077 35.0503 99.7132C35.0213 99.7186 34.9914 99.7131 34.9663 99.6978Z" fill="url(#paint6_linear_378_5056)"/>
<path d="M81.2242 75.8661C79.1452 70.7484 70.9139 70.9255 69.3634 77.5461C69.0727 78.6923 69.0329 79.8877 69.2469 81.0507C69.4608 82.2136 69.9235 83.3167 70.6031 84.2843C70.6689 84.362 70.8019 84.2955 70.7431 84.1961C69.7205 82.4623 69.2896 80.443 69.5153 78.4428C70.1992 73.1403 75.3442 71.3812 78.7203 73.4525C80.667 74.6593 81.2963 76.417 81.4083 78.6416C81.5005 79.8322 81.3216 81.0282 80.8851 82.1397C80.4487 83.2512 79.766 84.2494 78.8883 85.0592C78.7224 85.1992 78.966 85.4351 79.1207 85.2909C81.9228 82.9431 82.3113 78.5401 81.2242 75.8661Z" fill="#191919"/>
<path d="M75.7475 80.5905C75.4828 80.6271 75.2275 80.7135 74.995 80.8453C74.8844 80.9006 74.9621 81.0665 75.0727 81.0441C75.9512 80.8047 76.3887 80.916 76.5427 80.8229C76.5606 80.8127 76.5759 80.7984 76.5871 80.7811C76.5984 80.7639 76.6055 80.7442 76.6076 80.7237C76.6098 80.7032 76.6071 80.6824 76.5997 80.6632C76.5923 80.6439 76.5805 80.6267 76.5651 80.6129C76.2996 80.5319 76.0171 80.5242 75.7475 80.5905Z" fill="#191919"/>
<path d="M71.3106 80.5703C71.288 80.5759 71.2683 80.5895 71.2552 80.6086C71.242 80.6277 71.2362 80.6509 71.239 80.674C71.2417 80.697 71.2528 80.7183 71.2701 80.7337C71.2874 80.7492 71.3098 80.7578 71.333 80.7579C71.8461 80.7712 72.3571 80.8305 72.8597 80.935C72.8951 80.9261 72.9269 80.9064 72.9507 80.8787C72.9745 80.851 72.9892 80.8166 72.9927 80.7803C72.9927 80.4716 71.8657 80.3974 71.3106 80.5703Z" fill="#191919"/>
<path d="M73.9772 80.4798C73.9555 80.3692 73.7896 80.4021 73.7896 80.5022C73.8012 81.045 73.612 81.5729 73.2583 81.9848C73.1694 82.0842 73.0371 82.1724 73.0371 82.3166C73.0371 82.6295 73.8232 83.0453 73.9996 82.8255C74.0209 82.8009 74.0327 82.7695 74.0327 82.7369C74.0327 82.7044 74.0209 82.673 73.9996 82.6484C73.9331 82.5602 73.7672 82.5707 73.6678 82.5378C73.5894 82.5063 73.3689 82.3789 73.3689 82.3278C73.6143 82.0935 73.7982 81.8022 73.9043 81.4799C74.0104 81.1576 74.0355 80.8141 73.9772 80.4798Z" fill="#191919"/>
<path d="M73.6343 84.507C73.7793 84.5661 73.935 84.5948 74.0915 84.591C74.2481 84.5873 74.4022 84.5513 74.5443 84.4853C74.653 84.4393 74.7457 84.3622 74.8107 84.2637C74.8757 84.1651 74.9102 84.0496 74.9097 83.9316C74.9429 83.697 74.9044 83.4578 74.7991 83.2455C74.6682 83.0817 74.4869 83.191 74.5044 83.3793C74.5468 83.4997 74.5669 83.6268 74.5639 83.7545C74.5675 83.8542 74.5523 83.9537 74.5191 84.0478C74.3838 84.1561 74.2193 84.2219 74.0466 84.2367C73.8739 84.2515 73.7007 84.2148 73.5489 84.131C73.3557 84.0547 73.2682 84.3348 73.6343 84.507Z" fill="#191919"/>
<path d="M25.3076 109.855C24.2786 111.595 22.1401 119.459 22.1653 120.365C22.1653 120.497 22.3648 120.564 22.4201 120.432C22.7001 119.872 23.0368 117.289 24.721 112.277C24.9596 111.508 25.2367 110.751 25.5512 110.009C25.6394 109.83 25.4056 109.69 25.3076 109.855Z" fill="#191919"/>
<path d="M44.7579 106.624C44.7487 106.591 44.7268 106.562 44.6969 106.545C44.6671 106.528 44.6316 106.523 44.5982 106.532C44.5648 106.54 44.5361 106.562 44.5183 106.591C44.5006 106.621 44.4951 106.656 44.5031 106.69C45.2574 109.857 45.7898 113.074 46.0963 116.316C46.2727 118.721 46.2524 118.668 46.3182 119.06C46.3511 119.247 46.6052 119.181 46.6164 119.015C46.7508 117.356 45.9962 110.39 44.7579 106.624Z" fill="#191919"/>
<path d="M38.1084 115.453C37.7073 115.558 35.3917 117.693 34.4243 120.11C34.3795 120.232 34.5678 120.31 34.6343 120.199C35.2153 119.101 35.9247 118.076 36.7476 117.146C36.7035 117.654 36.6923 118.174 36.6811 118.686C36.6135 119.249 36.6246 119.819 36.714 120.379C36.7227 120.41 36.741 120.436 36.7663 120.455C36.7916 120.474 36.8223 120.485 36.854 120.485C36.8856 120.485 36.9164 120.474 36.9417 120.455C36.9669 120.436 36.9853 120.41 36.994 120.379C37.092 119.82 37.1219 119.252 37.0829 118.686C37.1117 118.065 37.1016 117.443 37.0528 116.823C37.1228 116.757 37.1382 116.728 37.2047 116.661C37.9306 115.936 38.1196 115.903 38.2442 115.665C38.3184 115.541 38.2302 115.421 38.1084 115.453Z" fill="#191919"/>
<path d="M37.8207 107.177C37.7983 107.044 37.5771 107.077 37.5771 107.21C37.6548 108.54 37.7871 109.855 37.8648 111.182C37.9474 112.42 38.0125 114.962 38.086 115.143C38.0953 115.171 38.1131 115.196 38.137 115.213C38.1608 115.23 38.1896 115.24 38.219 115.24C38.2485 115.24 38.2773 115.23 38.3011 115.213C38.325 115.196 38.3428 115.171 38.3521 115.143C38.4011 112.478 38.2234 109.813 37.8207 107.177Z" fill="#191919"/>
<path d="M36.3825 113.815C36.373 114.499 36.4399 115.182 36.582 115.851C36.5885 115.874 36.6022 115.894 36.6212 115.908C36.6401 115.922 36.6632 115.93 36.687 115.93C36.7107 115.93 36.7338 115.922 36.7527 115.908C36.7717 115.894 36.7854 115.874 36.792 115.851C36.8398 115.521 36.8435 115.186 36.8032 114.855C36.624 112.085 36.4938 109.996 36.1732 107.652C36.162 107.531 35.9737 107.531 35.9849 107.652C36.0682 109.73 36.2537 111.813 36.3825 113.815Z" fill="#191919"/>
<path d="M82.6076 108.504C82.3779 108.261 82.1173 108.05 81.8327 107.874C81.8768 107.554 82.0259 107 82.021 106.801C81.531 106.583 76.4091 103.956 76.0353 103.759C75.5872 103.545 75.1586 103.293 74.7543 103.005C69.4581 105.654 69.6954 105.744 68.49 106.225C68.5696 106.81 68.6841 107.39 68.833 107.962C66.4692 109.395 64.5975 111.513 63.4668 114.036C63.0931 114.743 62.8353 115.505 62.7031 116.293C62.7038 116.331 62.7166 116.367 62.7396 116.397C62.7626 116.426 62.7946 116.448 62.8307 116.458C62.8669 116.468 62.9054 116.466 62.9403 116.452C62.9752 116.438 63.0047 116.413 63.0244 116.381C63.5543 115.261 63.4927 114.657 64.7044 112.686C68.217 107.067 72.0495 106.844 78.689 107.663C81.7914 108.055 81.8271 108.256 83.029 109.732C84.5392 111.645 85.8065 113.738 86.802 115.962C87.5419 117.566 87.6245 118.021 87.9304 118.507C87.9481 118.536 87.9756 118.557 88.0077 118.567C88.0398 118.577 88.0745 118.575 88.1054 118.562C88.1362 118.549 88.1612 118.525 88.1758 118.494C88.1903 118.464 88.1934 118.429 88.1845 118.397C88.0886 117.541 85.7219 111.728 82.6076 108.504Z" fill="#191919"/>
<path d="M87.885 95.4936C87.861 92.8142 87.1405 90.1872 85.7941 87.8706C85.2203 86.8766 84.291 86.1372 83.1936 85.8014C82.4594 85.5891 81.6884 85.5362 80.9322 85.6462C80.176 85.7562 79.452 86.0265 78.8088 86.4391C78.5181 85.4841 78.4463 84.4758 78.5988 83.4893C78.7921 83.4772 78.981 83.4257 79.1536 83.3377C79.3262 83.2498 79.479 83.1274 79.6024 82.978C79.7258 82.8287 79.8173 82.6556 79.8711 82.4695C79.925 82.2834 79.9401 82.0883 79.9155 81.8961C79.8252 81.2661 79.3282 80.7166 78.7535 80.823C78.7535 80.5934 78.6681 80.6088 78.4441 79.8605L78.3776 79.6617C78.3952 79.6599 78.4122 79.6542 78.4274 79.6449C78.4425 79.6356 78.4553 79.623 78.4649 79.608C78.4744 79.5931 78.4805 79.5762 78.4826 79.5585C78.4847 79.5409 78.4828 79.5231 78.477 79.5063C78.0941 78.4668 73.017 77.2663 71.1529 78.2897C71.1417 78.2728 71.1258 78.2595 71.1071 78.2515C71.0885 78.2434 71.0679 78.241 71.0479 78.2445C71.028 78.248 71.0094 78.2573 70.9946 78.2711C70.9798 78.285 70.9694 78.3029 70.9646 78.3226C70.8061 79.3256 70.7212 80.3389 70.7105 81.3543C70.6853 83.4935 71.2978 85.9785 73.4209 86.2998C73.4012 86.6262 73.3487 86.9499 73.2641 87.2658C71.6282 86.3019 69.5002 86.7233 68.0106 87.7936C66.2956 89.0214 65.2449 90.9247 64.26 92.7384C62.4666 96.0368 59.6876 101.838 61.992 104.787C62.6251 105.547 63.4999 106.066 64.47 106.257C65.7721 106.51 67.1172 106.425 68.3774 106.011C68.9052 105.752 72.6635 103.448 80.3803 99.9512C77.6202 98.6548 73.7744 99.1812 70.8323 99.9624C69.422 100.305 68.0611 100.825 66.7821 101.511C66.2823 101.883 66.1171 101.563 66.3355 101.336C66.9173 100.94 67.5469 100.62 68.2094 100.382C68.2104 99.5168 68.3681 98.6585 68.6749 97.8491C68.7577 97.5615 68.9052 97.2967 69.1061 97.0749C69.1267 97.0564 69.1525 97.0448 69.18 97.0416C69.2075 97.0384 69.2352 97.0439 69.2595 97.0572C69.2838 97.0704 69.3033 97.0909 69.3155 97.1158C69.3276 97.1407 69.3317 97.1687 69.3273 97.196C69.2398 97.763 68.691 98.155 68.5419 100.25C70.4877 99.5772 72.5027 99.1243 74.5493 98.8998C76.6423 98.6898 78.9719 98.7073 80.7226 99.8623C81.0363 99.7994 81.3547 99.7624 81.6746 99.7517C81.6746 99.6817 81.7033 99.2932 81.7075 99.2211C81.7327 98.8088 81.7187 96.8607 81.7187 96.7095C81.7187 96.5765 81.9399 96.5324 81.9623 96.6759C82.0973 97.6991 82.1306 98.7331 82.0617 99.7629C82.393 99.7808 82.7223 99.8253 83.0466 99.8959C83.3007 99.9512 83.6927 99.9932 83.832 100.228C83.8417 100.246 83.8475 100.265 83.8488 100.286C83.8502 100.306 83.8471 100.326 83.8398 100.345C83.8324 100.364 83.821 100.381 83.8064 100.396C83.7918 100.41 83.7742 100.421 83.755 100.427C83.5555 100.494 83.3742 100.367 82.9801 100.293C82.1997 100.139 81.3986 100.121 80.612 100.239C79.2575 100.856 77.8267 101.493 75.012 102.883C75.502 103.046 77.3521 103.999 77.5236 104.089C83.0921 106.955 83.3707 107.332 84.9359 106.423C85.9324 105.775 86.696 104.825 87.1157 103.713C87.969 101.651 87.99 97.7147 87.885 95.4936ZM74.9511 92.2736C74.4435 90.6178 74.028 88.9353 73.7065 87.2336C73.7839 86.9433 73.8121 86.6421 73.7898 86.3425C74.7813 86.3526 75.7377 85.9759 76.4561 85.2925C76.8539 84.9864 77.1757 84.5926 77.3962 84.1417C77.4515 83.9975 77.2562 83.9317 77.1638 84.0087C76.6546 84.657 76.0326 85.2081 75.3277 85.6355C74.9882 85.8181 74.6158 85.9317 74.2322 85.9695C73.8485 86.0074 73.4612 85.9688 73.0926 85.856C72.7073 85.705 72.3616 85.4681 72.0816 85.1634C71.8017 84.8587 71.5949 84.4942 71.477 84.0976C70.7224 82.1026 71.2544 79.4552 71.2117 78.5319C71.672 78.4007 72.1417 78.3045 72.6166 78.2442C74.1101 78.1396 75.6079 78.3744 76.9979 78.9309C77.4436 79.0718 77.8519 79.311 78.1928 79.6309C78.1907 79.7379 78.1944 79.8449 78.204 79.9515C78.2543 80.2421 78.3436 80.5246 78.4693 80.7915C78.4976 80.8358 78.5354 80.8733 78.5799 80.9014C78.4802 80.9477 78.3987 81.0257 78.3482 81.1233C78.3363 81.1468 78.3331 81.1736 78.3392 81.1992C78.3452 81.2248 78.36 81.2475 78.381 81.2633C78.402 81.279 78.4279 81.2869 78.4542 81.2855C78.4804 81.2841 78.5053 81.2735 78.5246 81.2556C78.8354 80.9343 79.5473 81.3452 79.5746 82.0956C79.5766 82.2413 79.5483 82.3859 79.4914 82.5201C79.4346 82.6543 79.3504 82.7752 79.2443 82.8751C79.1381 82.975 79.0123 83.0517 78.8749 83.1003C78.7375 83.1489 78.5915 83.1684 78.4462 83.1575C78.4061 83.1566 78.3669 83.1691 78.3348 83.1931C78.3027 83.2171 78.2795 83.2511 78.2691 83.2898C78.1143 84.1227 78.1143 84.9769 78.2691 85.8098C78.2971 85.9792 78.3727 86.5252 78.5526 86.6708C78.358 87.0173 74.998 92.2036 74.9511 92.2736Z" fill="#191919"/>
<path d="M113.641 81.1107C113.439 81.2388 113.444 81.5804 113.1 81.6749C112.812 81.7004 112.526 81.6131 112.302 81.4313C112.283 81.4131 112.258 81.4022 112.232 81.4007C112.205 81.3993 112.179 81.4072 112.158 81.4231C112.137 81.4391 112.122 81.462 112.116 81.4879C112.11 81.5137 112.114 81.5408 112.126 81.5643C112.239 81.7268 112.395 81.8545 112.577 81.9326C112.759 82.0108 112.959 82.0365 113.155 82.0067C113.287 81.9742 113.411 81.9137 113.518 81.8291C113.625 81.7446 113.712 81.638 113.774 81.5167C113.84 81.435 113.875 81.3335 113.874 81.229C113.871 81.203 113.863 81.1781 113.848 81.1565C113.833 81.135 113.814 81.1174 113.79 81.1056C113.767 81.0938 113.741 81.0881 113.715 81.089C113.689 81.0898 113.664 81.0973 113.641 81.1107Z" fill="#191919"/>
<path d="M115.467 98.0827C115.385 98.0194 115.289 97.9776 115.187 97.9609C114.487 97.7271 114.173 96.64 113.66 96.0576C113.191 95.6158 112.662 95.2433 112.089 94.9516C111.944 94.8299 111.827 94.6789 111.746 94.5085C111.658 94.3321 111.436 94.4644 111.458 94.6303C111.578 95.387 112.729 95.4983 113.461 96.3565C113.958 96.9501 114.105 97.7194 114.844 98.1709C115.01 98.2598 115.275 98.3921 115.452 98.2815C115.466 98.2695 115.478 98.2548 115.486 98.2382C115.495 98.2217 115.5 98.2037 115.501 98.1852C115.503 98.1667 115.5 98.1481 115.494 98.1305C115.488 98.1129 115.479 98.0967 115.467 98.0827Z" fill="#191919"/>
<path d="M109.304 96.5C109.835 96.7982 110.41 97.0109 111.008 97.13C111.251 97.1748 111.661 97.2959 111.882 97.13C111.896 97.1209 111.908 97.1088 111.918 97.0944C111.927 97.0801 111.933 97.0639 111.935 97.0471C111.937 97.0303 111.935 97.0132 111.93 96.997C111.925 96.9808 111.916 96.966 111.904 96.9536C111.676 96.7254 111.501 96.8955 110.289 96.5217C109.76 96.3135 109.243 96.0773 108.74 95.814C108.717 95.8082 108.693 95.8092 108.67 95.817C108.648 95.8249 108.629 95.8391 108.614 95.8579C108.6 95.8768 108.592 95.8994 108.591 95.923C108.589 95.9466 108.595 95.9701 108.607 95.9904C108.8 96.2087 109.037 96.3826 109.304 96.5Z" fill="#191919"/>
<path d="M110.997 98.4902C111.288 98.5259 111.319 98.528 111.506 98.4349C111.583 98.4013 111.561 98.3019 111.506 98.2571C111.206 98.1103 110.885 98.0134 110.554 97.9701C109.596 97.6543 108.756 97.0566 108.143 96.2551C108.043 96.1333 107.863 96.288 107.933 96.421C108.267 96.9638 108.713 97.429 109.242 97.7858C109.77 98.1426 110.368 98.3827 110.997 98.4902Z" fill="#191919"/>
<path d="M109.138 98.8345C109.385 98.9745 110.355 99.4645 110.621 99.3658C110.639 99.359 110.655 99.3487 110.669 99.3353C110.682 99.322 110.693 99.3061 110.7 99.2885C110.708 99.2708 110.711 99.2519 110.711 99.2328C110.711 99.2137 110.706 99.1949 110.699 99.1775C110.505 98.8548 109.439 98.9374 108.153 97.6508C108.134 97.6326 108.109 97.6218 108.083 97.6203C108.056 97.6188 108.03 97.6267 108.009 97.6427C107.988 97.6586 107.973 97.6816 107.967 97.7074C107.961 97.7333 107.965 97.7603 107.977 97.7838C108.267 98.2283 108.667 98.5902 109.138 98.8345Z" fill="#191919"/>
<path d="M112.103 100.97C110.447 100.461 109.504 100.251 108.353 99.1006C108.334 99.0827 108.31 99.0723 108.284 99.0711C108.258 99.07 108.232 99.0783 108.212 99.0944C108.192 99.1105 108.178 99.1334 108.174 99.1589C108.169 99.1843 108.174 99.2106 108.187 99.2329C109.205 100.99 112.05 101.087 113.763 102.021C113.987 102.175 114.228 102.301 114.482 102.398C114.505 102.403 114.529 102.402 114.551 102.394C114.573 102.386 114.593 102.372 114.607 102.353C114.621 102.334 114.629 102.311 114.631 102.288C114.632 102.264 114.627 102.241 114.615 102.22C114.31 101.66 112.715 101.159 112.103 100.97Z" fill="#191919"/>
<path d="M119.638 86.9858C118.314 87.0307 116.994 87.1637 115.688 87.3841C112.44 87.9069 109.265 88.8091 106.228 90.0721C106.17 90.0871 106.116 90.1166 106.072 90.1579C106.028 90.1991 105.995 90.2509 105.976 90.3083C105.957 90.3657 105.954 90.4269 105.965 90.4862C105.976 90.5455 106.002 90.601 106.041 90.6475C107.688 93.4286 107.971 94.0866 108.894 95.5601C108.972 95.6931 109.16 95.5818 109.104 95.4383C108.453 94.0306 106.647 90.9674 106.493 90.7252C106.3 90.3878 106.283 90.4452 106.405 90.3822C110.299 88.7785 114.413 87.7713 118.608 87.3946C118.907 87.3729 119.194 87.3505 119.482 87.3064C119.596 87.6327 119.741 87.9477 119.914 88.2472C123.258 95.1576 123.581 97.2408 124.052 98.0164C124.107 98.1158 124.306 98.0829 124.284 97.9499C124.174 96.7403 120.029 87.0292 119.638 86.9858Z" fill="#191919"/>
<path d="M118.498 104.19C117.62 104.12 113.815 104.883 112.955 105.064C111.437 101.666 111.407 101.588 111.205 101.335C111.139 101.247 111.006 101.346 111.028 101.435C111.118 101.882 112.688 105.259 112.721 105.329C112.807 105.5 112.801 105.38 115.719 104.865C116.668 104.769 117.61 104.614 118.54 104.4C118.653 104.37 118.62 104.199 118.498 104.19Z" fill="#191919"/>
<path d="M127.925 85.1488C126.704 82.9627 125.084 82.493 122.648 82.7919C121.435 82.9022 120.261 83.2781 119.209 83.893C118.721 82.7825 118.439 81.5922 118.377 80.3804C118.611 80.3647 118.835 80.2766 119.018 80.1283C119.2 79.98 119.332 79.7787 119.395 79.5523C122.366 77.9031 122.519 74.3884 121.075 71.3623C118.644 66.3132 111.28 67.142 109.026 71.3735C108.521 72.2145 108.342 73.212 108.524 74.1762C108.706 75.1404 109.236 76.004 110.014 76.6025C108.31 77.1786 108.408 79.2499 109.978 79.539C109.951 81.3674 110.204 83.0999 111.892 83.7768C112.32 83.9523 112.779 84.0422 113.242 84.0414C113.258 84.4174 113.226 84.7938 113.146 85.1614C112.069 84.9061 110.962 84.7936 109.856 84.8268C106.534 84.8968 105.096 87.7598 103.881 90.823C103.386 91.9803 103.011 93.1852 102.761 94.4189C102.761 94.5512 102.961 94.6184 103.016 94.4854C103.21 93.9897 103.376 93.4835 103.514 92.9692C104.001 91.4731 104.593 90.0128 105.284 88.5991C106.158 86.9282 107.53 85.391 109.51 85.2356C110.705 85.1776 111.903 85.2444 113.084 85.4351C113.077 85.4593 113.075 85.4847 113.079 85.5097C113.083 85.5346 113.092 85.5584 113.106 85.5793C113.714 86.2863 114.777 86.2863 115.64 86.231C116.647 86.2217 117.629 85.914 118.461 85.3469C119.993 84.1968 118.523 84.3774 120.653 83.6536C122.223 83.1188 124.425 82.7653 125.863 83.5206C127.013 84.1422 127.643 85.3693 128.164 86.5635C129.017 88.5841 129.602 90.7081 129.901 92.881C130.21 95.0265 130.426 99.1544 129.901 101.257C129.228 103.994 127.187 105.33 124.48 105.305C123.016 105.2 121.577 104.876 120.21 104.343C118.67 103.856 114.89 102.663 114.533 102.54C115.08 101.178 115.477 99.7607 115.718 98.313C115.739 98.2143 115.739 98.1142 115.85 98.0694C115.958 98.0385 116.07 98.0239 116.182 98.026C118.426 97.7944 120.692 97.8577 122.92 98.2143C123.879 98.365 124.828 98.5716 125.763 98.8331C125.896 98.8667 126.04 98.8667 126.183 98.8884C126.217 98.8876 126.249 98.876 126.276 98.8553C126.302 98.8346 126.321 98.806 126.33 98.7736C126.338 98.7413 126.336 98.7069 126.324 98.6758C126.312 98.6446 126.29 98.6183 126.261 98.6007C125.807 98.3739 126.246 98.5062 124.778 98.1359C121.988 97.4892 119.11 97.3062 116.259 97.5941C115.019 97.7271 115.606 97.7607 114.719 100.825C114.178 102.703 114.154 102.796 114.365 102.86C115.97 103.37 120.749 104.896 121.535 105.14C123.705 105.795 126.045 106.024 128.018 104.708C128.697 110.284 128.758 109.92 128.626 109.986C128.534 110.021 128.437 110.04 128.339 110.041C124.923 110.589 121.464 110.83 118.005 110.76C114.243 110.76 110.538 110.728 106.931 109.931C106.995 106.595 107.257 103.267 107.716 99.9622C107.727 99.8187 107.506 99.7956 107.472 99.9286C107.332 100.571 107.218 101.223 107.118 101.876C106.856 101.876 106.032 103.116 104.142 103.569C103.587 103.71 103.009 103.738 102.442 103.651C101.875 103.563 101.332 103.362 100.845 103.06C98.1854 101.36 97.4336 95.6943 96.6965 92.8152C97.7878 92.8467 98.9365 92.2195 99.9823 91.7743C100.071 91.7309 100.159 91.6952 100.248 91.6525C100.531 91.5188 100.464 91.5741 100.89 92.1425C103.304 95.5179 103.488 98.0841 103.91 98.8695C103.957 98.9563 104.066 98.9024 104.076 98.8254C104.014 97.9886 103.82 97.1669 103.501 96.3908C102.941 94.8292 102.171 93.3515 101.21 91.999C100.473 90.9924 100.705 91.0673 99.2501 91.7113C96.8785 92.804 96.3801 92.4071 96.4396 92.6962C96.4257 92.7081 96.4153 92.7236 96.4095 92.741C96.4037 92.7584 96.4027 92.7771 96.4067 92.7949C96.7568 95.4509 97.4369 98.0528 98.4311 100.54C98.8523 101.611 99.5467 102.552 100.445 103.27C102.429 104.714 105.415 104.119 107.061 102.353C106.735 104.914 106.562 107.493 106.541 110.075C106.544 110.117 106.559 110.157 106.585 110.191C106.61 110.224 106.645 110.249 106.685 110.263C110.287 110.947 113.951 111.24 117.616 111.137C121.295 111.234 124.974 110.975 128.603 110.363C128.697 110.36 128.789 110.33 128.867 110.277C128.945 110.224 129.007 110.15 129.045 110.064C129.08 109.824 129.065 109.579 129.001 109.345C128.934 108.814 128.868 108.282 128.791 107.762C128.359 104.353 128.395 104.542 128.292 104.488C130.215 103.01 130.553 100.683 130.594 98.2472C130.666 94.0479 129.99 88.7447 127.925 85.1488ZM109.159 78.1397C109.203 77.8613 109.33 77.6026 109.524 77.3981C109.718 77.1935 109.969 77.0528 110.245 76.9945C110.398 76.9968 110.549 77.0308 110.689 77.0946C110.828 77.1583 110.953 77.2503 111.055 77.3648C111.157 77.4792 111.234 77.6137 111.281 77.7595C111.328 77.9053 111.345 78.0593 111.329 78.2118C111.293 78.4468 111.185 78.665 111.021 78.8371C110.857 79.0092 110.644 79.1269 110.411 79.1743C110.259 79.2016 110.103 79.1954 109.953 79.1562C109.804 79.1169 109.664 79.0456 109.545 78.9471C109.426 78.8486 109.33 78.7254 109.263 78.586C109.197 78.4466 109.161 78.2943 109.159 78.1397ZM116.485 85.7242C115.48 85.9652 114.423 85.8733 113.475 85.4624C113.625 84.999 113.637 84.5017 113.509 84.0316C114.989 83.8332 116.331 83.0624 117.249 81.8847C117.351 81.7545 117.147 81.5284 116.983 81.6747C116.325 82.3462 115.567 82.9128 114.737 83.3547C113.119 84.0932 111.097 83.6998 110.537 81.8721C110.336 81.13 110.25 80.3612 110.282 79.5929C110.603 79.5655 110.907 79.4404 111.155 79.2345C111.402 79.0286 111.58 78.7518 111.665 78.4414C111.686 78.3467 111.7 78.2509 111.709 78.1544L111.975 78.0886C111.846 78.5441 111.739 79.0055 111.654 79.4711C111.588 79.8211 111.422 80.3811 111.919 80.4777C112.352 80.5538 112.797 80.4673 113.17 80.2348C113.207 80.21 113.233 80.172 113.242 80.1286C113.252 80.0852 113.245 80.0397 113.223 80.0014C113.2 79.9631 113.163 79.9349 113.121 79.9226C113.078 79.9103 113.032 79.9148 112.993 79.9352C112.835 80.0194 112.668 80.0829 112.495 80.1242C112.324 80.1679 112.145 80.1679 111.975 80.1242C111.88 80.0717 111.901 79.9478 112.097 79.0616C112.174 78.7298 112.262 78.3978 112.362 78.0655C112.526 78.0789 112.687 78.1201 112.838 78.1873C112.829 78.3889 112.861 78.5901 112.934 78.7783C113.007 78.9664 113.119 79.1372 113.261 79.2798C113.404 79.4225 113.575 79.5338 113.763 79.6066C113.951 79.6794 114.153 79.7122 114.354 79.7028C114.68 79.6804 114.991 79.5578 115.244 79.352C115.498 79.1461 115.681 78.867 115.77 78.5527C115.818 78.3441 115.822 78.1279 115.781 77.9177C115.741 77.7076 115.657 77.5082 115.535 77.3323C115.413 77.1564 115.256 77.0078 115.073 76.896C114.891 76.7842 114.687 76.7117 114.475 76.683C114.134 76.6964 113.805 76.8109 113.529 77.0118C113.254 77.2127 113.044 77.491 112.927 77.8114C112.785 77.7525 112.636 77.7152 112.484 77.7008C112.583 77.3802 112.672 77.0708 112.764 76.7488C112.797 76.6277 112.606 76.5388 112.542 76.6606C112.373 76.9963 112.228 77.3439 112.111 77.7008C111.972 77.7138 111.837 77.7513 111.712 77.8114C111.663 77.521 111.531 77.2508 111.332 77.0331C111.134 76.8153 110.877 76.6591 110.592 76.5829C110.64 76.2875 110.732 75.8038 110.759 75.7002C111.369 75.1241 113.823 75.3614 114.619 75.4657C115.452 75.5845 116.274 75.7732 117.075 76.0299C117.302 76.0999 117.349 76.0999 117.385 76.3505C117.468 76.9664 117.647 77.5653 117.917 78.125C117.759 78.2804 117.9 78.4498 118.027 78.3756C118.536 78.0655 119.023 78.5527 119.089 79.0616C119.11 79.1831 119.102 79.3078 119.068 79.426C119.033 79.5443 118.971 79.653 118.888 79.7438C118.805 79.8346 118.702 79.9052 118.587 79.95C118.472 79.9948 118.349 80.0128 118.226 80.0024C118.197 79.9951 118.167 79.9944 118.138 80.0004C118.109 80.0063 118.082 80.0188 118.058 80.0369C118.035 80.055 118.016 80.0782 118.003 80.1047C117.99 80.1313 117.983 80.1604 117.983 80.19C118.009 81.24 118.388 83.3673 118.996 84.187C118.713 84.6087 118.342 84.9642 117.908 85.2295C117.475 85.4948 116.989 85.6635 116.485 85.7242ZM113.32 77.9458C113.422 77.6497 114.127 76.8804 114.748 77.194C114.965 77.2905 115.145 77.4544 115.262 77.6613C115.379 77.8683 115.425 78.1073 115.396 78.3429C115.366 78.5785 115.261 78.7983 115.096 78.9696C114.932 79.1409 114.716 79.2547 114.482 79.294C114.305 79.33 114.121 79.318 113.949 79.2593C113.778 79.2006 113.625 79.0973 113.507 78.96C113.388 78.8228 113.309 78.6565 113.276 78.4782C113.243 78.3 113.258 78.1162 113.32 77.9458Z" fill="#191919"/>
<path d="M107.81 110.518C107.218 111.526 105.412 118.836 105.277 120.343C105.255 120.542 105.565 120.575 105.62 120.387C105.783 119.807 105.97 118.561 106.46 116.537C107.172 113.588 107.564 112.508 107.799 111.647C107.92 111.297 108.013 110.938 108.079 110.574C108.098 110.441 107.876 110.407 107.81 110.518Z" fill="#191919"/>
<path d="M116.982 118.374V118.318C116.983 118.29 116.974 118.261 116.955 118.239C116.937 118.217 116.911 118.202 116.883 118.197C116.775 118.012 116.661 117.831 116.54 117.654C116.524 117.628 116.498 117.61 116.468 117.603C116.438 117.596 116.407 117.602 116.381 117.617C116.355 117.633 116.336 117.659 116.328 117.689C116.321 117.718 116.325 117.75 116.341 117.776C116.441 117.986 116.54 118.196 116.639 118.396C116.139 119.523 115.753 120.698 115.489 121.903C115.484 121.92 115.483 121.937 115.486 121.954C115.488 121.972 115.494 121.988 115.502 122.003C115.511 122.018 115.523 122.031 115.537 122.041C115.55 122.052 115.566 122.059 115.583 122.064C115.6 122.068 115.617 122.069 115.634 122.067C115.651 122.064 115.668 122.059 115.683 122.05C115.698 122.041 115.711 122.03 115.721 122.016C115.731 122.002 115.739 121.986 115.743 121.97C115.981 121.316 116.407 119.73 116.839 118.794C117.508 120.161 118.07 121.577 118.519 123.032C118.597 123.22 118.84 123.076 118.818 122.91C118.366 121.338 117.751 119.818 116.982 118.374Z" fill="#191919"/>
<path d="M127.36 113.008C127.178 112.202 126.937 111.411 126.641 110.64C126.597 110.53 126.398 110.585 126.42 110.695C126.545 111.697 126.653 111.685 128.52 119.159C128.679 119.968 128.89 120.766 129.15 121.549C129.205 121.692 129.449 121.692 129.437 121.516C129.346 120.634 127.583 113.864 127.36 113.008Z" fill="#191919"/>
<path d="M46.5835 45.9606C46.1096 42.8855 44.2847 39.7537 41.3615 38.8024C38.4373 38.0455 35.3339 38.4468 32.6983 39.9224C28.8371 42.0798 27.5834 45.8759 28.5053 50.0794C29.759 55.7214 34.4644 59.4307 34.568 63.2562C33.7112 63.5418 33.2051 65.0062 34.0703 65.6362C33.9221 65.7444 33.8011 65.8856 33.717 66.0487C33.6329 66.2117 33.588 66.3922 33.5859 66.5756C33.5837 66.7591 33.6243 66.9405 33.7045 67.1056C33.7847 67.2706 33.9023 67.4146 34.0479 67.5262C33.8765 67.7008 33.7699 67.9287 33.7459 68.1721C33.7218 68.4156 33.7817 68.6599 33.9156 68.8646C34.154 69.159 34.4518 69.3999 34.7895 69.5715C35.1272 69.7432 35.4973 69.8417 35.8756 69.8607C36.7243 70.0557 37.5962 70.1302 38.4656 70.0819C40.7056 69.909 41.2089 68.6119 40.5782 67.9021C40.7516 67.8072 40.8995 67.6718 41.0094 67.5075C41.1194 67.3433 41.1882 67.155 41.2099 66.9585C41.2317 66.762 41.2058 66.5632 41.1345 66.3789C41.0631 66.1945 40.9485 66.0301 40.8001 65.8994C41.1432 65.5303 41.332 65.0439 41.3279 64.54C41.3536 64.4115 41.3536 64.2791 41.328 64.1505C41.3024 64.0219 41.2516 63.8997 41.1787 63.7907C41.1057 63.6818 41.0119 63.5883 40.9028 63.5157C40.7936 63.4431 40.6712 63.3927 40.5425 63.3675C40.9198 59.7625 43.9025 57.5443 45.7316 52.68C46.5776 50.5479 46.8707 48.2364 46.5835 45.9606ZM37.4779 47.1002C37.172 46.7943 37.0299 46.2602 37.389 45.9935C37.655 45.8059 37.8979 46.0824 37.9203 46.3365C37.9166 46.4908 37.8742 46.6416 37.7969 46.775C37.7195 46.9085 37.6099 47.0203 37.4779 47.1002ZM37.3008 47.7526C37.3449 47.7302 37.3785 47.7085 37.4226 47.6868C38.0437 48.1828 38.8 48.4798 39.5926 48.5387C39.3602 49.2135 39.1831 49.9212 39.0172 50.6072C37.9848 54.7668 37.5195 59.0469 37.634 63.3311L36.262 63.2646C36.7352 58.8693 36.5336 51.555 35.3219 48.1621C36.0062 48.2031 36.689 48.0618 37.3008 47.7526ZM45.6539 51.3486C43.9795 57.027 40.3815 59.2585 40.0665 63.4522C40.056 63.4634 40.0336 63.4858 40.0336 63.497C39.3897 63.4285 38.7441 63.3766 38.0974 63.3416C38.012 60.0755 38.2641 56.8092 38.8499 53.5948C39.1521 51.8769 39.566 50.1805 40.0889 48.5163C40.4411 48.512 40.7864 48.4184 41.0925 48.2441C41.3985 48.0699 41.6554 47.8208 41.8389 47.5202C42.3947 46.3302 40.8183 45.2802 39.7704 48.0739C39.0667 48.0579 38.3857 47.8219 37.823 47.3991C39.0333 46.3358 38.0484 45.1626 37.2476 45.5511C36.7086 45.8129 36.4706 46.5752 37.0929 47.3438C36.5028 47.6453 35.8365 47.7647 35.1784 47.6868C34.9885 47.1126 34.675 46.5869 34.26 46.1468C33.434 45.4629 32.4582 46.2672 32.8663 46.9539C33.3649 47.5687 34.0752 47.9751 34.8578 48.0935C35.2389 49.2751 35.5056 50.4905 35.6544 51.723C36.4335 56.9583 35.9309 62.1425 35.9309 63.2177C35.3058 63.1897 35.0279 63.1722 34.9131 63.1848C34.9131 59.6477 31.3361 56.7238 29.5028 51.8448C27.9824 47.7897 28.3618 43.6457 31.7596 41.0466C34.6051 38.8577 39.7186 37.9526 42.6243 39.8958C44.2235 41.0951 45.3575 42.8117 45.8331 44.7531C46.4068 46.9233 46.3446 49.2127 45.6539 51.3486ZM40.2772 48.0403C40.3968 47.766 40.5411 47.5031 40.7084 47.2549C41.4693 46.1566 41.7584 47.124 41.1984 47.6203C40.9363 47.8432 40.6173 47.9886 40.2772 48.0403ZM34.6562 47.5867C34.2631 47.4786 33.895 47.2945 33.5726 47.0449C33.4287 46.9547 33.3106 46.8289 33.2296 46.6795C33.1442 46.4037 33.7035 46.0299 34.1921 46.746C34.3724 47.0114 34.5278 47.2928 34.6562 47.5867Z" fill="#191919"/>
<path d="M16.3454 23.8106C16.4189 23.8183 24.4374 23.9282 25.3404 23.9212C26.1461 23.9736 26.9551 23.9365 27.7526 23.8106C27.8856 23.7665 27.9073 23.5453 27.7526 23.5229C27.4005 23.4768 27.0444 23.4696 26.6907 23.5012C24.5032 23.567 17.5165 23.3339 16.3013 23.49C16.0997 23.5012 16.1697 23.7924 16.3454 23.8106Z" fill="#191919"/>
<path d="M16.3454 27.1412C16.3867 27.1412 24.2064 27.2602 25.3404 27.2518C26.1461 27.3042 26.9551 27.2671 27.7526 27.1412C27.8856 27.0971 27.9073 26.8752 27.7526 26.8535C27.4005 26.8072 27.0444 26.7997 26.6907 26.8311C24.5032 26.8976 17.5165 26.6645 16.3013 26.8199C16.0997 26.8423 16.1697 27.1279 16.3454 27.1412Z" fill="#191919"/>
<path d="M58.3665 25.1385C58.405 25.1385 66.2254 25.2575 67.3615 25.2491C68.167 25.3015 68.9758 25.2644 69.773 25.1385C69.906 25.0944 69.9277 24.8732 69.773 24.8508C69.4209 24.8049 69.0649 24.7973 68.7111 24.8284C66.5236 24.8949 59.5369 24.6618 58.3217 24.8179C58.1229 24.8396 58.2006 25.1259 58.3665 25.1385Z" fill="#191919"/>
<path d="M58.3663 28.4798C58.4363 28.4875 66.3645 28.5981 67.3613 28.5904C68.1667 28.6428 68.9755 28.6057 69.7728 28.4798C69.9058 28.4357 69.9275 28.2145 69.7728 28.1921C69.4206 28.146 69.0645 28.1387 68.7109 28.1704C66.5234 28.2362 59.5367 28.0031 58.3215 28.1592C58.1227 28.1704 58.1997 28.4616 58.3663 28.4798Z" fill="#191919"/>
<path d="M29.8198 38.1278C28.8621 35.8353 27.7033 33.6322 26.3569 31.5443C26.7664 31.6549 28.0369 31.9762 28.2602 32.0427C28.4755 32.138 28.7118 32.1761 28.9462 32.1533C28.9797 32.1439 29.0101 32.126 29.0345 32.1013C29.059 32.0765 29.0765 32.0458 29.0854 32.0123C29.0943 31.9787 29.0943 31.9433 29.0854 31.9097C29.0764 31.8761 29.0588 31.8455 29.0344 31.8208C28.8179 31.683 28.5712 31.5996 28.3155 31.5779C28.0607 31.5114 27.0653 31.2678 26.8217 31.2125C26.2204 31.0725 25.8774 30.8366 25.6821 31.4225C25.4173 32.1586 25.2068 32.9131 25.0521 33.68C25.0428 33.7138 25.0473 33.7498 25.0646 33.7803C25.082 33.8108 25.1107 33.8331 25.1445 33.8424C25.1783 33.8516 25.2144 33.8471 25.2448 33.8298C25.2753 33.8125 25.2976 33.7838 25.3069 33.75C25.5875 33.1316 25.8169 32.4913 25.9929 31.8355C27.2959 33.9026 28.4815 36.0414 29.544 38.2419C29.6224 38.3931 29.8856 38.2832 29.8198 38.1278Z" fill="url(#paint7_linear_378_5056)"/>
<path d="M53.7742 33.4141C53.7161 33.0935 53.42 33.1208 52.5352 33.0053C52.025 32.9285 51.5109 32.8804 50.9952 32.8611C50.9644 32.8622 50.935 32.8742 50.9122 32.895C50.8894 32.9157 50.8747 32.9439 50.8707 32.9745C50.8668 33.0051 50.8738 33.0361 50.8906 33.062C50.9074 33.0879 50.9328 33.107 50.9623 33.1159C51.6213 33.2969 52.295 33.4189 52.9755 33.4806C51.1631 35.1079 49.253 36.6229 47.2558 38.0173C47.1011 38.1279 47.2334 38.382 47.4105 38.2826C48.5212 37.6154 49.5896 36.8801 50.6095 36.0811C52.1761 34.8911 53.2695 33.8411 53.3395 33.7907C53.2954 34.2219 53.1736 35.5498 53.1512 35.7822C53.0942 36.0078 53.0981 36.2445 53.1624 36.4682C53.1806 36.4973 53.2059 36.5212 53.2359 36.5378C53.2659 36.5545 53.2996 36.5632 53.3339 36.5632C53.3682 36.5632 53.402 36.5545 53.432 36.5378C53.462 36.5212 53.4873 36.4973 53.5054 36.4682C53.5686 36.3571 53.5991 36.2305 53.5936 36.1028C53.6601 35.3503 53.8225 33.615 53.7742 33.4141Z" fill="url(#paint8_linear_378_5056)"/>
<path d="M57.0386 52.7871C56.5268 52.1978 55.9688 51.6503 55.3698 51.1498C55.3443 51.1279 55.3115 51.1163 55.278 51.1175C55.2444 51.1187 55.2125 51.1326 55.1887 51.1564C55.1649 51.1802 55.1511 51.212 55.1498 51.2456C55.1486 51.2792 55.1602 51.312 55.1822 51.3374C55.5806 51.8831 56.0286 52.3906 56.5206 52.8536C56.1083 52.9236 53.6842 52.9642 53.0136 52.953C51.7367 52.9401 50.4603 52.8995 49.1853 52.8312C49.0194 52.82 48.9753 53.1077 49.1412 53.1301C51.6092 53.4108 54.0973 53.47 56.5759 53.3072C54.7671 55.1825 54.8175 55.1041 54.7839 55.2672C54.7746 55.3009 54.7745 55.3365 54.7834 55.3702C54.7923 55.404 54.81 55.4348 54.8346 55.4595C54.8593 55.4843 54.89 55.502 54.9238 55.511C54.9575 55.5201 54.9931 55.52 55.0268 55.5108C55.2753 55.4408 55.297 55.2931 56.6536 53.8511C56.8312 53.684 56.995 53.5028 57.1436 53.3093C57.3039 53.1189 57.1828 52.9411 57.0386 52.7871Z" fill="url(#paint9_linear_378_5056)"/>
<path d="M83.9132 40.3404C82.3528 39.1301 80.4921 38.368 78.5311 38.136C76.5701 37.904 74.5829 38.2109 72.7832 39.0237C72.7436 39.0055 72.6998 38.9983 72.6564 39.0028C72.613 39.0073 72.5716 39.0234 72.5366 39.0494C72.5015 39.0753 72.4741 39.1102 72.4571 39.1504C72.4402 39.1906 72.4343 39.2346 72.4402 39.2778C73.2152 43.7419 74.2796 48.151 75.6266 52.477C75.6398 52.5182 75.6644 52.5547 75.6976 52.5825C75.7307 52.6103 75.771 52.6281 75.8139 52.6339C75.8567 52.6396 75.9004 52.6332 75.9397 52.6152C75.979 52.5972 76.0124 52.5685 76.0361 52.5323C84.3969 39.9239 84.0882 40.5154 83.9132 40.3404Z" fill="#999999"/>
<path d="M132.085 30.2724C132.001 29.9981 131.85 29.749 131.646 29.5473C131.442 29.3455 131.192 29.1975 130.916 29.1163C130.641 29.0352 130.35 29.0235 130.07 29.0823C129.789 29.1411 129.527 29.2686 129.308 29.4534C129.199 28.829 129.423 25.0336 129.2 23.8534C129.137 23.523 129.103 23.5209 128.721 23.5258C128.306 23.5321 123.397 23.5552 123.377 23.5594C123.227 23.5846 123.117 23.8471 123.366 24.0494C123.509 24.2194 123.612 24.419 123.669 24.6338C123.725 24.8486 123.732 25.0733 123.691 25.2914C123.65 25.5096 123.56 25.7159 123.429 25.8952C123.299 26.0746 123.129 26.2226 122.934 26.3286C122.729 26.4357 122.503 26.4962 122.271 26.5058C122.04 26.5153 121.809 26.4737 121.596 26.3839C121.383 26.2942 121.192 26.1584 121.037 25.9863C120.882 25.8142 120.767 25.6101 120.7 25.3885C120.523 24.7585 120.988 24.293 121.242 23.7617C121.253 23.7393 121.258 23.7146 121.257 23.6897C121.255 23.6648 121.248 23.6407 121.234 23.6196C121.221 23.5986 121.203 23.5813 121.181 23.5694C121.159 23.5575 121.134 23.5514 121.109 23.5517L101.172 23.5076C101.146 23.5075 101.12 23.5126 101.096 23.5225C101.072 23.5325 101.05 23.5471 101.031 23.5656C101.013 23.5841 100.998 23.606 100.988 23.6302C100.978 23.6543 100.973 23.6802 100.973 23.7064C100.995 24.5583 101.05 28.619 101.061 29.7915C100.835 29.6234 100.571 29.5115 100.293 29.4651C100.015 29.4186 99.7293 29.4389 99.4603 29.5243C99.1913 29.6096 98.9465 29.7576 98.7458 29.9561C98.5452 30.1545 98.3945 30.3977 98.3062 30.6658C98.147 31.0918 98.1278 31.5574 98.2512 31.9951C98.3747 32.4328 98.6345 32.8197 98.9929 33.0997C99.3017 33.3185 99.6708 33.436 100.049 33.436C100.428 33.436 100.797 33.3185 101.106 33.0997C101.106 33.365 101.161 38.6535 101.161 38.6535C101.161 38.6962 101.176 38.7376 101.202 38.7715C101.228 38.8054 101.264 38.83 101.305 38.8418C101.54 38.8964 107.505 38.8866 107.434 38.8859C107.139 39.1751 106.925 39.5374 106.815 39.9359C106.743 40.2652 106.766 40.608 106.881 40.9247C106.996 41.2415 107.198 41.5193 107.464 41.7263C107.73 41.9333 108.049 42.0609 108.384 42.0945C108.72 42.1281 109.058 42.0663 109.359 41.9162C109.637 41.7973 109.884 41.618 110.084 41.3913C110.284 41.1646 110.43 40.8963 110.513 40.6058C110.595 40.3154 110.612 40.0101 110.562 39.7124C110.512 39.4146 110.396 39.1317 110.222 38.8845C121.756 38.8845 121.011 38.9545 121.176 38.8516C121.297 38.7634 121.142 38.6416 121.087 38.5639C120.9 38.3354 120.778 38.0602 120.735 37.7677C120.692 37.4753 120.729 37.1767 120.843 36.9038C120.956 36.631 121.142 36.3942 121.38 36.219C121.618 36.0437 121.899 35.9364 122.194 35.9088C122.432 35.9069 122.668 35.9563 122.885 36.0536C123.103 36.151 123.296 36.294 123.454 36.473C123.643 36.6862 123.756 36.9566 123.774 37.2412C123.792 37.5257 123.715 37.8082 123.554 38.0438C123.377 38.3805 122.971 38.8999 123.333 38.9398C123.333 38.9398 128.924 38.9006 129.096 38.8957C129.473 38.9734 129.473 38.8292 129.473 38.7634C129.473 36.7271 129.395 34.7034 129.373 32.6671C130.768 33.3902 132.525 31.8026 132.085 30.2724ZM131.012 32.1421C129.918 32.9569 129.042 31.6521 128.931 32.2639C128.954 34.3324 128.965 36.3904 129.031 38.4596C127.239 38.4925 125.457 38.4925 123.665 38.4925C124.948 37.0435 123.175 34.9302 121.495 35.6491C121.237 35.7625 121.005 35.9293 120.815 36.1384C120.625 36.3476 120.482 36.5944 120.394 36.8628C120.307 37.1312 120.276 37.4151 120.306 37.6959C120.335 37.9768 120.424 38.2482 120.566 38.4925C118.895 38.4813 117.224 38.4925 115.554 38.4596C115.509 36.6116 115.477 34.7643 115.454 32.9296C115.182 33.1806 114.839 33.3401 114.472 33.3858C114.105 33.4315 113.732 33.3611 113.407 33.1844C113.071 32.997 112.787 32.727 112.584 32.3997C112.381 32.0724 112.264 31.6988 112.245 31.314C112.228 31.0283 112.275 30.7424 112.383 30.4776C112.492 30.2127 112.658 29.9757 112.871 29.7843C113.084 29.5928 113.337 29.4519 113.612 29.3719C113.887 29.2919 114.176 29.275 114.458 29.3225C114.645 29.3353 114.828 29.3873 114.994 29.4751C115.16 29.5629 115.305 29.6845 115.421 29.8321C115.399 27.8623 115.376 25.8932 115.344 23.9234C117.125 23.957 118.906 23.957 120.699 23.957C119.46 25.406 121.24 27.4752 122.9 26.7668C123.929 26.3468 124.526 24.8859 123.786 23.9668C125.466 23.9556 127.149 23.9773 128.819 23.9332C128.986 24.5765 128.554 30.6819 129.196 30.1401C130.69 28.1591 132.881 30.747 131.012 32.1421Z" fill="#6A189C" fill-opacity="0.98"/>
<path d="M83.5145 42.719C83.4781 42.789 76.6545 53.0566 76.6986 52.9859C76.5926 53.1488 76.4424 53.2782 76.2655 53.3589C76.0887 53.4396 75.8925 53.4684 75.6999 53.4417C75.5074 53.4151 75.3264 53.3341 75.1781 53.2084C75.0298 53.0827 74.9204 52.9174 74.8625 52.7318C73.6511 48.8607 72.6648 44.9226 71.9085 40.9375C68.6589 42.4808 66.1358 45.2261 64.8715 48.5941C62.026 56.6231 67.8164 64.3203 76.5776 63.3641C81.9249 62.7908 86.4202 59.148 87.3309 53.8161C87.715 51.7942 87.565 49.7071 86.8957 47.761C86.2264 45.8148 85.061 44.0769 83.5145 42.719Z" fill="#6A189C" fill-opacity="0.98"/>
<path d="M29.3727 78.9036C28.8785 78.9785 29.2005 79.6169 29.5743 79.4972C29.6506 79.4686 29.7128 79.4114 29.7477 79.3378C29.7826 79.2641 29.7875 79.1798 29.7613 79.1026C29.7351 79.0255 29.6798 78.9615 29.6073 78.9244C29.5348 78.8872 29.4506 78.8798 29.3727 78.9036Z" fill="#191919"/>
<path d="M31.8672 77.9682C31.8187 77.9852 31.775 78.0133 31.7395 78.0505C31.7041 78.0876 31.678 78.1327 31.6633 78.1819C31.6487 78.2311 31.646 78.2831 31.6554 78.3336C31.6648 78.3841 31.686 78.4316 31.7174 78.4722C31.7725 78.5312 31.8463 78.5694 31.9263 78.5802C32.0062 78.5911 32.0875 78.5739 32.1563 78.5317C32.2109 78.4834 32.2494 78.4196 32.2665 78.3487C32.2837 78.2779 32.2787 78.2035 32.2522 78.1355C32.2232 78.0624 32.1664 78.0038 32.0943 77.9724C32.0221 77.941 31.9405 77.9396 31.8672 77.9682Z" fill="#191919"/>
<path d="M109.596 78.207C109.525 78.2362 109.469 78.2924 109.439 78.3633C109.41 78.4341 109.41 78.5137 109.439 78.5846C109.468 78.6555 109.524 78.7119 109.595 78.7414C109.666 78.7709 109.746 78.771 109.816 78.7418C110.106 78.6487 109.992 78.0621 109.596 78.207Z" fill="#191919"/>
<path d="M113.68 78.3303C113.644 78.3444 113.612 78.3654 113.585 78.392C113.558 78.4186 113.536 78.4503 113.521 78.4853C113.506 78.5203 113.498 78.5579 113.498 78.596C113.497 78.6341 113.504 78.6719 113.518 78.7072C113.532 78.7426 113.553 78.7748 113.58 78.802C113.607 78.8293 113.638 78.851 113.673 78.866C113.708 78.881 113.746 78.8889 113.784 78.8893C113.822 78.8898 113.86 78.8827 113.895 78.8686C114.189 78.7503 114.059 78.1994 113.68 78.3303Z" fill="#191919"/>
<defs>
<linearGradient id="paint0_linear_378_5056" x1="102.94" y1="73.493" x2="102.947" y2="74.1193" gradientUnits="userSpaceOnUse">
<stop stop-color="#FB6CDF"/>
<stop offset="0.6577" stop-color="#8E29FF"/>
<stop offset="1" stop-color="#4D2FFF" stop-opacity="0.97"/>
</linearGradient>
<linearGradient id="paint1_linear_378_5056" x1="106.288" y1="57.6904" x2="111.157" y2="59.0583" gradientUnits="userSpaceOnUse">
<stop stop-color="#FB6CDF"/>
<stop offset="0.6577" stop-color="#8E29FF"/>
<stop offset="1" stop-color="#4D2FFF" stop-opacity="0.97"/>
</linearGradient>
<linearGradient id="paint2_linear_378_5056" x1="120.273" y1="43.3435" x2="125.223" y2="44.4294" gradientUnits="userSpaceOnUse">
<stop stop-color="#FB6CDF"/>
<stop offset="0.6577" stop-color="#8E29FF"/>
<stop offset="1" stop-color="#4D2FFF" stop-opacity="0.97"/>
</linearGradient>
<linearGradient id="paint3_linear_378_5056" x1="111.703" y1="51.0357" x2="116.741" y2="51.9308" gradientUnits="userSpaceOnUse">
<stop stop-color="#FB6CDF"/>
<stop offset="0.6577" stop-color="#8E29FF"/>
<stop offset="1" stop-color="#4D2FFF" stop-opacity="0.97"/>
</linearGradient>
<linearGradient id="paint4_linear_378_5056" x1="120.202" y1="48.1979" x2="125.292" y2="48.9974" gradientUnits="userSpaceOnUse">
<stop stop-color="#FB6CDF"/>
<stop offset="0.6577" stop-color="#8E29FF"/>
<stop offset="1" stop-color="#4D2FFF" stop-opacity="0.97"/>
</linearGradient>
<linearGradient id="paint5_linear_378_5056" x1="102.415" y1="43.6949" x2="108.829" y2="57.0708" gradientUnits="userSpaceOnUse">
<stop stop-color="#FB6CDF"/>
<stop offset="0.6577" stop-color="#8E29FF"/>
<stop offset="1" stop-color="#4D2FFF" stop-opacity="0.97"/>
</linearGradient>
<linearGradient id="paint6_linear_378_5056" x1="22.2598" y1="81.4499" x2="39.9141" y2="110.629" gradientUnits="userSpaceOnUse">
<stop stop-color="#FB6CDF"/>
<stop offset="0.6577" stop-color="#8E29FF"/>
<stop offset="1" stop-color="#4D2FFF" stop-opacity="0.97"/>
</linearGradient>
<linearGradient id="paint7_linear_378_5056" x1="26.6335" y1="30.2501" x2="31.5158" y2="33.0315" gradientUnits="userSpaceOnUse">
<stop stop-color="#FB6CDF"/>
<stop offset="0.6577" stop-color="#8E29FF"/>
<stop offset="1" stop-color="#4D2FFF" stop-opacity="0.97"/>
</linearGradient>
<linearGradient id="paint8_linear_378_5056" x1="49.3748" y1="32.2656" x2="53.6209" y2="36.7194" gradientUnits="userSpaceOnUse">
<stop stop-color="#FB6CDF"/>
<stop offset="0.6577" stop-color="#8E29FF"/>
<stop offset="1" stop-color="#4D2FFF" stop-opacity="0.97"/>
</linearGradient>
<linearGradient id="paint9_linear_378_5056" x1="51.7504" y1="50.6361" x2="54.8303" y2="55.595" gradientUnits="userSpaceOnUse">
<stop stop-color="#FB6CDF"/>
<stop offset="0.6577" stop-color="#8E29FF"/>
<stop offset="1" stop-color="#4D2FFF" stop-opacity="0.97"/>
</linearGradient>
</defs>
</svg>
