<svg width="140" height="140" viewBox="0 0 140 140" fill="none" xmlns="http://www.w3.org/2000/svg">
<path d="M132.128 111.543C89.4775 111.761 45.0485 112.013 3.91298 111.963C3.40968 111.963 3.33898 112.753 3.85348 112.755C46.4674 112.999 89.418 112.615 132.045 112.405C132.616 112.404 132.683 111.54 132.128 111.543Z" fill="#191919"/>
<path d="M108.71 75.0081C108.687 75.5207 108.536 76.0193 108.271 76.4585C107.991 76.854 108.35 77.2285 108.742 76.8862C108.978 76.6325 109.144 76.3224 109.224 75.9857C109.305 75.6491 109.297 75.2974 109.202 74.9647C109.177 74.9175 109.14 74.8785 109.093 74.8528C109.047 74.8272 108.994 74.8159 108.941 74.8206C108.888 74.8253 108.838 74.8456 108.797 74.879C108.756 74.9124 108.726 74.9574 108.71 75.0081Z" fill="#191919"/>
<path d="M108.82 72.7181C109.462 72.2222 109.918 71.5247 110.116 70.7378C110.274 70.1155 109.894 69.7081 109.533 70.4879C109.295 71.1299 108.942 71.723 108.491 72.2379C108.138 72.6341 108.336 72.9596 108.82 72.7181Z" fill="#191919"/>
<path d="M102.62 66.689C102.75 69.0354 102.078 71.6513 102.747 73.6729C102.843 73.962 103.329 73.9109 103.293 73.5861C103.103 71.9848 103.103 70.3666 103.293 68.7652C103.648 63.3353 102.103 63.9597 102.196 64.4315C102.434 65.1626 102.577 65.9214 102.62 66.689Z" fill="#191919"/>
<path d="M107.988 71.6213C108.593 70.7674 108.937 69.7559 108.978 68.71C108.924 67.9176 108.331 67.8581 108.297 68.5868C108.206 69.5233 107.91 70.4283 107.429 71.237C107.187 71.7753 107.513 72.2548 107.988 71.6213Z" fill="#191919"/>
<path d="M109.01 73.7401C108.745 74.0775 108.99 74.3463 109.374 74.172C109.931 73.8011 110.371 73.281 110.646 72.6712C110.926 71.7955 110.213 71.6912 110.107 72.275C110.014 72.7902 109.24 73.4475 109.01 73.7401Z" fill="#191919"/>
<path d="M105.464 69.3239C105.67 68.8878 106.944 67.224 106.993 67.4424C106.924 68.69 106.481 69.888 105.722 70.8808C105.54 71.1188 105.805 71.5654 106.276 71.1818C107.037 70.563 107.726 68.3342 107.643 67.3626C107.637 67.2764 107.612 67.1926 107.571 67.1165C107.53 67.0404 107.474 66.9738 107.406 66.921C107.337 66.8681 107.259 66.8303 107.175 66.8099C107.091 66.7895 107.003 66.787 106.918 66.8026C106.191 66.9251 105.275 68.3055 105.013 69.1126C104.93 69.3758 105.341 69.585 105.464 69.3239Z" fill="#191919"/>
<path d="M86.3746 66.6892C86.3065 66.6358 86.2283 66.5969 86.1446 66.5747C86.061 66.5526 85.9737 66.5477 85.8882 66.5603C85.8026 66.5729 85.7204 66.6029 85.6468 66.6483C85.5731 66.6936 85.5095 66.7535 85.4597 66.8243C85.2693 67.1295 85.4023 67.3227 85.6858 67.1806C85.8802 67.0821 86.1002 67.0462 86.3158 67.0777C86.5335 67.0854 86.5489 66.7963 86.3746 66.6892Z" fill="#191919"/>
<path d="M81.883 70.5321C81.764 70.2626 81.2887 70.4621 81.3363 70.7617C81.5393 72.0329 83.241 72.6167 83.955 72.4613C84.1958 72.4088 84.3694 72.2401 84.1881 72.0329C83.9053 71.7102 82.5998 72.1603 81.883 70.5321Z" fill="#191919"/>
<path d="M82.1603 65.2512C81.9002 65.3055 81.6607 65.4321 81.4694 65.6165C81.278 65.8009 81.1427 66.0356 81.0788 66.2935C81.0158 66.689 81.3126 66.9235 81.6493 66.4083C81.7215 66.2831 81.8178 66.1735 81.9327 66.0858C82.0476 65.9981 82.1787 65.934 82.3185 65.8973C82.8687 65.7545 82.6874 65.1917 82.1603 65.2512Z" fill="#191919"/>
<path d="M83.3445 67.3234C83.1676 67.2527 82.9706 67.2509 82.7925 67.3183C82.6143 67.3857 82.4678 67.5174 82.382 67.6874C82.242 67.9611 82.3624 68.1872 82.6788 68.001C82.8731 67.8737 83.1003 67.8061 83.3326 67.8064C83.5797 67.8043 83.6098 67.4578 83.3445 67.3234Z" fill="#191919"/>
<path d="M86.6164 64.7956C86.4324 64.6345 86.2086 64.5258 85.9682 64.4806C85.7279 64.4354 85.4799 64.4555 85.25 64.5387C84.8776 64.6969 84.9413 65.1288 85.39 65.1288C85.7124 65.0808 86.0416 65.1135 86.3483 65.224C86.7074 65.357 86.8145 64.9741 86.6164 64.7956Z" fill="#191919"/>
<path d="M84.3497 69.5801C83.9997 69.893 84.4526 70.1464 85.2128 69.7901C85.3513 69.749 85.4716 69.6617 85.5537 69.5428C85.6359 69.4239 85.6749 69.2805 85.6643 69.1363C85.5242 68.568 85.2798 68.0305 84.9433 67.5515C84.6633 67.2666 84.5233 67.6432 84.6465 67.9477C84.813 68.3616 84.9455 68.7884 85.0427 69.2238C85.0595 69.2644 84.4344 69.5031 84.3497 69.5801Z" fill="#191919"/>
<path d="M42.5713 42.6797C42.3907 45.2697 42.9332 52.2872 40.4643 54.7022C38.4133 56.7077 34.8804 54.964 33.4482 53.0152C33.1584 52.6197 32.8273 53.1097 33.1115 53.4982C34.8132 55.818 38.6653 57.4952 41.0068 55.2013C43.3483 52.9074 43.0452 46.1461 43.0942 42.7826C43.0984 42.4977 42.5944 42.35 42.5713 42.6797Z" fill="#191919"/>
<path d="M29.8276 48.5102C30.1733 49.1387 30.6952 49.6524 31.3291 49.9879C31.1099 51.9182 31.0437 53.8628 31.131 55.8035C31.1716 56.8136 31.7876 56.7835 31.761 55.8035C31.7002 53.8884 31.7756 51.9715 31.9864 50.067C32.1264 48.835 31.7435 49.9137 30.5682 48.2092C29.6484 46.875 30.1482 45.4379 30.9644 45.3392C31.9549 45.2223 32.4981 46.4851 32.9454 45.9454C33.7856 44.6885 34.3274 43.2563 34.5295 41.758C36.934 42.318 45.3382 43.3435 45.8275 38.678C46.4211 33.0143 35.9477 32.9065 32.8306 36.8482C31.1744 34.919 27.3482 37.0344 30.2637 44.7708C29.178 45.4302 28.9736 47.2145 29.8276 48.5102Z" fill="#191919"/>
<path d="M42.0597 44.1813C41.7137 43.8678 41.2665 43.6892 40.7997 43.678C40.3202 43.7102 40.197 44.2569 40.7675 44.378C41.083 44.3883 41.3888 44.4902 41.6474 44.6713C42.0912 45.0647 42.465 44.5453 42.0597 44.1813Z" fill="#191919"/>
<path d="M38.7098 49.6127C38.1715 49.577 37.8383 50.1825 38.8169 50.2504C39.4427 50.2938 39.7633 50.123 39.918 49.8304C40.1511 49.3901 40.0685 47.6534 39.918 46.8827C39.918 46.8149 39.8911 46.7499 39.8432 46.702C39.7952 46.6541 39.7303 46.6272 39.6625 46.6272C39.5947 46.6272 39.5297 46.6541 39.4818 46.702C39.4339 46.7499 39.407 46.8149 39.407 46.8827C39.4728 49.1843 39.7269 49.6799 38.7098 49.6127Z" fill="#191919"/>
<path d="M35.8092 50.167C35.6034 52.2467 38.2592 53.1259 39.0138 52.4287C39.0488 52.3878 39.0724 52.3384 39.0824 52.2855C39.0924 52.2326 39.0884 52.178 39.0708 52.1271C39.0532 52.0762 39.0226 52.0308 38.982 51.9955C38.9414 51.9601 38.8923 51.9359 38.8395 51.9254C38.5605 51.9975 38.2692 52.009 37.9853 51.9592C37.7015 51.9094 37.4316 51.7993 37.1938 51.6364C36.9561 51.4735 36.7559 51.2616 36.6069 51.0149C36.4579 50.7682 36.3635 50.4924 36.33 50.2062C36.3302 50.14 36.3054 50.0761 36.2605 50.0275C36.2155 49.9789 36.1539 49.9491 36.0878 49.9441C36.0218 49.9391 35.9564 49.9594 35.9047 50.0007C35.853 50.0421 35.8188 50.1015 35.8092 50.167Z" fill="#191919"/>
<path d="M41.2122 47.7031C41.7589 47.6611 41.7155 46.5194 41.2122 46.5502C40.8363 46.5733 40.6774 47.7444 41.2122 47.7031Z" fill="#191919"/>
<path d="M37.4296 46.4872C36.9207 46.5817 37.0334 47.6121 37.4296 47.5918C37.8258 47.5715 37.9399 46.392 37.4296 46.4872Z" fill="#191919"/>
<path d="M37.7737 43.916C37.4601 43.566 36.1434 43.8096 35.9537 44.6762C35.9061 44.8946 36.1476 45.33 36.5634 44.8071C36.9792 44.2842 37.4678 44.5495 37.633 44.4942C37.6888 44.4746 37.7388 44.4414 37.7784 44.3976C37.8181 44.3537 37.8462 44.3007 37.8602 44.2433C37.8742 44.1858 37.8736 44.1258 37.8585 44.0687C37.8434 44.0115 37.8142 43.959 37.7737 43.916Z" fill="#191919"/>
<path d="M32.565 73.6177C32.7311 69.8044 33.1941 66.0099 33.9496 62.2686C34.0462 61.7891 33.4386 61.6547 33.3392 62.1286C32.831 64.5576 31.6361 71.1999 32.0239 73.6163C32.0345 73.6802 32.0675 73.7383 32.1169 73.7803C32.1663 73.8223 32.229 73.8454 32.2938 73.8456C32.3587 73.8457 32.4215 73.8229 32.4711 73.7812C32.5207 73.7395 32.554 73.6816 32.565 73.6177Z" fill="#191919"/>
<path d="M54.796 101.2C54.999 100.56 55.1243 91.3879 54.9738 90.3225C54.9561 90.2627 54.9195 90.2102 54.8696 90.1729C54.8196 90.1356 54.7589 90.1155 54.6966 90.1155C54.6342 90.1155 54.5736 90.1356 54.5236 90.1729C54.4737 90.2102 54.4371 90.2627 54.4194 90.3225C54.2332 91.3284 54.4152 96.1178 54.1226 101.2C54.1023 101.549 54.6854 101.548 54.796 101.2Z" fill="#191919"/>
<path d="M20.772 90.5837C20.7307 92.6137 21.9165 100.092 22.3561 102.804C22.4849 103.597 22.4597 103.714 23.2479 103.945C31.8775 106.483 44.3942 104.882 53.6706 104.072C53.7226 104.067 53.7731 104.051 53.8191 104.027C53.8651 104.002 53.9058 103.968 53.9389 103.928C53.9719 103.887 53.9967 103.841 54.0117 103.791C54.0268 103.741 54.0318 103.688 54.0266 103.636C54.0214 103.584 54.0059 103.534 53.9812 103.488C53.9565 103.442 53.9229 103.401 53.8824 103.368C53.842 103.335 53.7954 103.31 53.7454 103.295C53.6953 103.28 53.6428 103.275 53.5908 103.28C43.844 104.135 32.7189 105.569 23.2241 103.221C22.6452 99.4407 21.8451 95.4088 21.3502 90.5445C21.3425 90.212 20.779 90.2351 20.772 90.5837Z" fill="#191919"/>
<path d="M21.4576 73.9305C20.8395 74.585 20.1325 77.3066 20.0233 78.1095C20.0198 78.1738 20.0396 78.2373 20.0792 78.2881C20.1187 78.339 20.1752 78.3739 20.2384 78.3864C20.3016 78.3989 20.3671 78.3882 20.4231 78.3563C20.479 78.3243 20.5215 78.2732 20.5427 78.2124C21.1839 75.5349 21.8566 74.7866 21.9049 74.1566C21.9217 73.9382 21.6228 73.7555 21.4576 73.9305Z" fill="#191919"/>
<path d="M61.7477 90.3898C62.2195 90.3597 62.2475 89.7878 61.7477 89.7521C57.9147 89.4916 54.1066 88.9447 50.3552 88.1162C49.7538 85.0776 49.6202 81.9649 49.959 78.886C50.0192 78.4072 49.4172 78.4268 49.357 78.886C48.9664 81.8659 48.8579 85.074 49.7532 87.9615C48.5884 87.6367 45.1381 86.7715 44.2071 86.0288C43.7882 83.1322 43.6475 80.2022 43.7871 77.2788C49.1006 77.1788 54.3954 77.9373 59.4671 79.5251C59.7527 79.6147 59.7758 79.2122 59.5224 79.0575C57.7724 77.9893 54.2227 77.346 52.143 77.0765C52.0163 76.2288 51.3821 73.6066 50.9782 73.1712C50.9502 73.1463 50.9176 73.1271 50.8822 73.1149C50.8469 73.1026 50.8094 73.0974 50.772 73.0996C50.7346 73.1018 50.6981 73.1114 50.6644 73.1278C50.6307 73.1441 50.6006 73.167 50.5757 73.195C50.2957 73.5072 50.967 74.245 51.4416 76.9897C49.0486 76.6751 46.6375 76.5188 44.2239 76.5221C43.309 76.5221 43.099 76.5221 43.008 77.3621C42.8292 80.0884 42.9355 82.826 43.3251 85.5304C43.4602 86.544 43.6331 86.7204 44.632 87.2258C47.4852 88.6713 58.1833 90.6208 61.7477 90.3898Z" fill="#191919"/>
<path d="M31.8002 82.7919C31.3725 87.9103 32.1187 97.5766 32.9531 102.84C33.0231 103.299 33.7413 103.237 33.6783 102.77C32.82 96.152 32.3832 89.4862 32.3707 82.8129C32.3623 82.7447 32.3299 82.6817 32.2793 82.6352C32.2286 82.5887 32.1631 82.5618 32.0944 82.5593C32.0257 82.5567 31.9584 82.5788 31.9045 82.6214C31.8506 82.664 31.8136 82.7245 31.8002 82.7919Z" fill="#191919"/>
<path d="M15.6698 92.6045C17.912 91.887 19.9387 90.6189 21.5645 88.9162C22.0349 88.4262 22.2015 88.1756 21.7227 87.5498C20.8068 86.4801 20.1512 85.2126 19.8075 83.8468C19.4638 82.4811 19.4412 81.0542 19.7417 79.6783C19.8733 78.9573 19.7417 78.5464 18.9934 78.7473C16.7912 79.3395 13.0133 80.7255 11.467 82.1423C11.2206 82.3677 11.5104 82.7842 11.7918 82.6176C14.019 81.2197 16.452 80.1804 19.0018 79.5376C18.3718 83.221 19.3427 85.3049 21.2957 88.1847C20.4571 89.0856 19.5018 89.8703 18.4551 90.5178C15.1595 87.8242 14.3048 84.3732 14.4938 82.7618C14.5323 82.437 13.8596 81.9218 13.868 82.8605C13.8818 84.4105 14.2494 85.9369 14.9427 87.3232C15.636 88.7096 16.6367 89.9193 17.8685 90.8601C17.2227 91.219 16.5482 91.5234 15.8518 91.7701C11.6896 93.2401 9.52241 92.2965 8.66631 88.0069C7.30481 81.1854 12.8901 70.8415 17.2546 65.784C20.7623 61.7184 21.9607 61.6022 27.4193 59.7192C27.9113 61.0897 28.673 62.3476 29.6593 63.4187C30.5924 64.4351 30.9753 63.1114 33.7032 60.9946C34.6326 61.8712 35.4788 62.832 36.2309 63.8646C36.5536 64.2657 36.9309 64.2321 37.4209 64.0347C40.2891 62.7094 42.8723 60.8393 45.0271 58.5285C45.5619 59.0395 52.2371 61.2781 56.309 65.2982C60.0757 69.018 65.192 78.1404 65.8871 83.5563C65.9473 84.0232 66.5059 83.8965 66.4471 83.4254C65.7471 77.9696 60.9003 68.8213 56.7871 64.8054C53.6896 61.7779 49.4196 59.6107 45.4072 58.0693C45.447 58.0196 45.4763 57.9623 45.4934 57.901C45.5106 57.8396 45.5152 57.7755 45.507 57.7123C45.4989 57.6492 45.4781 57.5883 45.4459 57.5333C45.4137 57.4784 45.3708 57.4305 45.3197 57.3924C44.6376 56.7689 43.905 56.203 43.1294 55.7005C42.4175 55.2504 42.3916 55.2315 41.735 55.8041C39.0162 58.1743 37.5756 59.0003 33.7648 60.0384C32.5259 59.2116 31.4278 58.191 30.5126 57.0158C30.1185 56.5111 30.0849 56.4411 29.4871 56.7505C28.6548 57.1817 26.979 58.4102 27.1932 59.0283C21.4035 61.0415 20.3556 61.0135 16.6841 65.3346C12.3042 70.4901 6.64961 80.7556 7.91731 87.8662C8.72581 92.4001 11.0442 94.0801 15.6698 92.6045ZM42.5036 56.1345C43.2825 56.6272 44.0191 57.1838 44.7058 57.7984C42.5475 60.2586 39.8609 62.1991 36.8469 63.4747C36.0827 62.4153 35.2001 61.4466 34.2163 60.5872C37.3541 59.9447 40.235 58.3975 42.5036 56.1366V56.1345ZM29.9736 57.2993C30.8098 58.563 31.8964 59.6416 33.1663 60.4682C32.1389 61.1995 31.2143 62.0654 30.4174 63.0428C29.2865 61.8785 28.4052 60.4955 27.8274 58.9786C28.4188 58.2783 29.1482 57.7073 29.9701 57.3014L29.9736 57.2993Z" fill="#191919"/>
<path d="M37.9009 83.3463C37.9009 83.228 37.8575 83.0698 37.7266 83.0334C37.0805 82.8563 37.3304 83.5934 35.2269 83.5367C35.1562 83.5244 35.0834 83.5388 35.0228 83.5772C34.9622 83.6155 34.9179 83.675 34.8987 83.7441C34.8795 83.8133 34.8867 83.8871 34.9189 83.9512C34.9511 84.0153 35.006 84.0652 35.0729 84.0911C36.0928 84.5006 37.8911 83.9252 37.9009 83.3463Z" fill="#191919"/>
<path d="M36.637 75.3565C36.2961 75.3012 36.2723 75.8129 36.567 75.927C38.6929 76.7551 39.5504 76.2154 41.5426 77.88C41.7841 78.0823 42.2482 77.908 42.1404 77.53C41.8072 76.3505 38.8868 75.7219 36.637 75.3565Z" fill="#191919"/>
<path d="M38.2492 85.5688C38.6692 85.2643 38.4039 84.7176 37.8887 84.9472C37.3299 85.2376 36.6826 85.3083 36.0743 85.1453C35.7495 85.0858 35.6746 85.4547 35.9518 85.692C36.4754 86.14 37.7186 85.9538 38.2492 85.5688Z" fill="#191919"/>
<path d="M34.316 81.8372C34.036 81.9037 34.0864 82.435 34.386 82.4161C37.7208 82.2061 38.7106 78.6438 38.0183 78.0306C37.9719 77.9893 37.912 77.9666 37.85 77.9666C37.7879 77.9666 37.728 77.9893 37.6816 78.0306C37.0572 78.5822 37.767 81.0245 34.316 81.8372Z" fill="#191919"/>
<path d="M37.3541 87.2901C39.7341 87.9005 42.3815 86.1653 42.3241 85.2028C42.3241 84.9648 42.0273 84.7274 41.7977 84.8975C41.5681 85.0676 40.7876 86.9177 37.4402 86.7357C37.3738 86.7381 37.3103 86.7634 37.2606 86.8075C37.2109 86.8516 37.1781 86.9117 37.1679 86.9774C37.1577 87.043 37.1708 87.1102 37.2047 87.1673C37.2387 87.2244 37.2915 87.2678 37.3541 87.2901Z" fill="#191919"/>
<path d="M21.1763 79.1955C22.1759 77.9026 24.5685 75.4155 26.3969 76.4466C26.8127 76.6811 27.1053 76.0518 26.6867 75.8166C24.5433 74.6147 21.5298 76.9541 20.7444 78.6922C20.4399 79.3642 20.9894 79.437 21.1763 79.1955Z" fill="#191919"/>
<path d="M27.7716 83.9923C26.9925 83.9081 26.2324 83.6967 25.5218 83.3665C25.2418 83.3182 24.5418 84.0602 26.401 84.4865C28.508 84.9716 28.1398 84.0161 27.7716 83.9923Z" fill="#191919"/>
<path d="M25.0974 85.0935C24.3407 84.7253 24.3505 85.7606 25.6483 86.0917C26.0452 86.1932 27.238 86.1778 27.126 85.6955C27.0238 85.2601 26.6227 85.8348 25.0974 85.0935Z" fill="#191919"/>
<path d="M25.8944 87.29C26.2199 87.122 26.0561 86.6222 25.7117 86.73C24.5217 87.094 23.695 87.0583 22.0241 86.4367C21.9652 86.4192 21.9022 86.4215 21.8447 86.4433C21.7872 86.4651 21.7385 86.5052 21.7061 86.5574C21.6737 86.6097 21.6594 86.6711 21.6654 86.7323C21.6714 86.7935 21.6973 86.851 21.7392 86.8959C22.3457 87.2989 23.0424 87.5458 23.7673 87.6146C24.4923 87.6833 25.223 87.5718 25.8944 87.29Z" fill="#191919"/>
<path d="M28.9321 82.4117C26.7537 81.2826 26.2469 80.6092 25.6603 79.4171C25.5378 79.1672 24.9603 79.261 25.1612 79.9358C25.5651 81.2847 27.4628 82.4075 28.6472 83.0158C28.6876 83.0402 28.7326 83.0558 28.7794 83.0616C28.8262 83.0674 28.8737 83.0634 28.9188 83.0497C28.9639 83.036 29.0056 83.013 29.0413 82.9822C29.0769 82.9514 29.1057 82.9134 29.1258 82.8707C29.1458 82.828 29.1567 82.7816 29.1577 82.7345C29.1587 82.6874 29.1497 82.6406 29.1315 82.5971C29.1132 82.5536 29.086 82.5145 29.0517 82.4822C29.0174 82.4499 28.9766 82.4252 28.9321 82.4096V82.4117Z" fill="#191919"/>
<path d="M106.317 94.8858C105.131 96.3656 104.462 99.2615 106.19 100.432C108.099 101.725 110.484 100.389 111.65 98.7043C112.98 96.7912 113.163 94.0283 111.65 93.0595C109.985 91.992 107.671 93.1967 106.317 94.8858ZM111.688 96.9935C110.918 98.9738 108.419 100.956 106.685 99.8138C105.333 98.9234 105.985 96.3761 106.91 95.2897C107.731 94.3237 109.196 93.2128 110.571 93.4599C112.218 93.756 112.144 95.8245 111.688 96.9935Z" fill="#191919"/>
<path d="M89.2034 107.673C89.1635 107.673 77.1172 107.861 75.0018 107.946C73.3918 108.012 73.0215 108.133 73.0215 109.594C72.9719 109.929 73.041 110.271 73.2168 110.56C73.3925 110.85 73.6639 111.069 73.984 111.179C74.257 111.24 74.3802 110.893 74.1982 110.695C74.0521 110.571 73.9393 110.412 73.8702 110.232C73.801 110.053 73.7776 109.86 73.802 109.669C73.8496 108.829 73.8258 108.74 74.9465 108.703C79.4902 108.553 83.7966 108.712 88.5181 108.497C89.524 108.451 89.8054 108.541 89.9482 107.546C90.8449 101.28 91.7178 93.2143 92.7881 86.3298C93.2907 83.0972 96.1194 82.3594 99.0433 82.2656C105.408 82.0598 114.251 81.9037 120.691 81.8057C126.19 81.7217 125.493 83.9526 125.192 87.3518C124.492 95.2744 123.712 102.211 122.7 109.028C122.634 109.467 122.448 109.879 122.161 110.218C122.12 110.241 122.084 110.273 122.055 110.312C122.027 110.35 122.007 110.394 121.997 110.441C121.987 110.488 121.986 110.536 121.996 110.583C122.006 110.63 122.025 110.674 122.053 110.713C122.081 110.751 122.117 110.784 122.159 110.807C122.2 110.831 122.246 110.846 122.294 110.851C122.341 110.856 122.389 110.851 122.435 110.836C122.48 110.821 122.522 110.797 122.557 110.765C123.072 110.254 123.398 109.584 123.48 108.863C124.336 101.948 125.253 95.2331 125.889 88.245C126.394 82.6996 126.408 81 121.258 80.9762C115.201 80.9482 104.225 81.4788 99.4948 81.4872C95.4978 81.4935 92.7048 82.4203 92.0909 86.5335C91.0444 93.5643 90.0469 100.792 89.2034 107.673Z" fill="#191919"/>
<path d="M54.5545 104.892C45.1045 106.132 28.14 107.293 22.5869 104.591C22.4994 105.921 22.5113 109.095 22.4756 110.858C25.3673 110.822 52.6806 110.707 54.5622 110.632C54.586 109.733 54.67 106.302 54.5545 104.892Z" fill="#191919"/>
<path d="M87.7616 67.8148C87.7202 66.5701 87.6132 65.3284 87.441 64.095C87.3892 63.8493 86.9363 63.8101 86.965 64.095C87.2135 66.545 87.7623 72.985 86.3714 74.7112C85.6168 75.6478 83.8675 75.9432 80.8806 75.0045C80.4851 74.8799 80.3829 75.2845 80.7462 75.4637C81.8417 75.996 83.0457 76.2672 84.2637 76.2561C84.3759 77.387 84.6246 78.5002 85.0043 79.5713C85.1107 79.8688 85.5832 79.7428 85.4943 79.4313C85.2926 78.7312 85.1406 78.0178 85.0393 77.2963C89.5116 76.9001 94.0112 73.482 92.9143 73.0655C91.8174 72.649 89.4528 71.1146 87.7616 67.8148Z" fill="#191919"/>
<path d="M77.1962 78.3952V79.7455C77.1899 79.8198 77.2133 79.8935 77.2613 79.9505C77.3094 80.0074 77.3781 80.043 77.4524 80.0493C77.5266 80.0556 77.6004 80.0322 77.6573 79.9841C77.7143 79.9361 77.7499 79.8674 77.7562 79.7931C77.927 77.5948 77.8926 75.3854 77.6533 73.1935C77.5658 72.4004 77.6967 72.2002 77.0233 72.0847C76.0643 71.9195 75.7136 70.8947 75.5617 69.9021C75.4217 68.9795 75.7402 68.0121 76.5284 67.9687C77.2529 67.9309 77.4797 68.8325 77.8192 67.7825C78.0117 66.8211 77.9943 65.8295 77.7681 64.8754C79.7211 64.8754 86.9836 64.6465 91.1892 60.7195C91.7751 60.1728 88.9947 60.2799 87.6514 58.2695C85.0299 54.3432 77.451 51.9793 74.8127 58.7966C71.4527 57.4575 69.6082 60.576 70.6617 69.2427C71.1272 73.0731 68.0353 76.3729 68.0017 76.7691C67.9681 77.1653 72.1422 78.7557 77.1962 78.3952Z" fill="#191919"/>
<path d="M40.5299 69.3079C39.8629 69.1499 39.2079 68.9448 38.5699 68.694C39.2118 67.8267 39.8852 66.979 40.4718 66.0753C40.5201 66.0138 40.5419 65.9356 40.5325 65.8579C40.5232 65.7803 40.4833 65.7095 40.4218 65.6612C40.3602 65.613 40.282 65.5911 40.2044 65.6005C40.1267 65.6099 40.056 65.6498 40.0077 65.7113C39.1705 66.642 38.3867 67.6194 37.6599 68.6387C37.5988 68.724 37.5739 68.83 37.5909 68.9335C37.6078 69.0371 37.6651 69.1297 37.7502 69.191C38.2794 69.444 38.8313 69.6463 39.3987 69.7951C38.46 70.4727 37.0614 71.2574 36.1745 71.7761C35.6145 72.1037 35.7776 72.6098 36.3803 72.3935C37.8412 71.6924 39.2557 70.8986 40.6153 70.017C40.9947 69.8266 41.0199 69.4234 40.5299 69.3079Z" fill="#6A189C" fill-opacity="0.98"/>
<path d="M28.7501 72.2989C28.2867 71.0298 27.7295 69.7866 27.1653 68.5588C27.0176 68.2368 26.6753 68.0436 26.4408 68.5357C26.256 68.9367 26.0303 69.3177 25.7674 69.6725C25.1703 68.66 24.6601 67.5987 24.2421 66.5001C24.2283 66.4639 24.2075 66.4308 24.181 66.4027C24.1544 66.3745 24.1225 66.3519 24.0872 66.3361C24.0519 66.3202 24.0138 66.3115 23.9751 66.3104C23.9364 66.3093 23.8978 66.3158 23.8617 66.3296C23.8255 66.3434 23.7924 66.3642 23.7642 66.3908C23.7361 66.4174 23.7135 66.4492 23.6976 66.4846C23.6818 66.5199 23.6731 66.558 23.672 66.5967C23.6709 66.6354 23.6774 66.6739 23.6912 66.7101C24.1434 68.0557 24.7023 69.363 25.3628 70.6196C25.3874 70.6841 25.4284 70.7411 25.4818 70.785C25.5351 70.8288 25.599 70.8579 25.6671 70.8695C25.7351 70.8811 25.8051 70.8748 25.8699 70.8511C25.9348 70.8274 25.9923 70.7871 26.0369 70.7344C26.3164 70.3622 26.5591 69.9636 26.7614 69.5444C27.2776 70.515 27.743 71.5117 28.1558 72.5306C28.1659 72.576 28.1857 72.6187 28.2139 72.6558C28.242 72.6928 28.2779 72.7233 28.3189 72.7452C28.36 72.7671 28.4053 72.7799 28.4517 72.7827C28.4982 72.7854 28.5447 72.7781 28.588 72.7612C28.6314 72.7443 28.6706 72.7182 28.7029 72.6847C28.7352 72.6513 28.7599 72.6112 28.7753 72.5673C28.7907 72.5234 28.7965 72.4767 28.7921 72.4303C28.7877 72.384 28.7734 72.3392 28.7501 72.2989Z" fill="#6A189C" fill-opacity="0.98"/>
<path d="M16.7995 92.6164C13.3429 97.3393 13.6306 103.746 7.29209 108.667C6.58299 109.218 6.50249 110.342 7.94169 109.214C13.5767 104.798 14.1794 98.8485 17.3497 92.9741C17.5429 92.6136 17.0095 92.3301 16.7995 92.6164Z" fill="#6A189C" fill-opacity="0.98"/>
<path d="M58.2732 104.187C47.7942 99.6781 47.1313 90.5732 42.0332 86.9199C41.728 86.7015 41.4207 87.1593 41.637 87.419C47.4946 94.4701 48.161 100.963 58.017 105.023C58.5455 105.24 58.7772 104.404 58.2732 104.187Z" fill="#6A189C" fill-opacity="0.98"/>
<path d="M119.638 64.9602C119.316 69.5732 119.33 75.1998 115.574 79.0351C115.182 79.4348 115.76 80.0921 116.148 79.6882C120.042 75.6359 120.446 70.5378 120.383 65.0078C120.386 64.9589 120.38 64.9099 120.364 64.8635C120.348 64.8171 120.323 64.7743 120.291 64.7375C120.258 64.7007 120.219 64.6707 120.175 64.6491C120.131 64.6275 120.083 64.6147 120.034 64.6116C119.986 64.6085 119.936 64.615 119.89 64.6308C119.844 64.6467 119.801 64.6715 119.764 64.7038C119.727 64.7362 119.697 64.7755 119.676 64.8195C119.654 64.8635 119.641 64.9113 119.638 64.9602Z" fill="#922CD0" fill-opacity="0.98"/>
<path d="M118.838 31.6715C118.74 30.5228 118.737 28.2821 118.516 27.3315C118.446 27.0347 117.973 26.9591 117.891 27.2923C117.746 28.8059 117.784 30.3313 118.002 31.836C118.068 32.3568 118.887 32.2616 118.838 31.6715Z" fill="url(#paint0_linear_378_4605)"/>
<path d="M101.36 46.5661C101.946 46.6095 104.402 46.1335 105.297 46.0467C105.753 46.0033 105.694 45.2207 105.218 45.255C104.51 45.3047 101.875 45.5714 101.221 45.9641C101.167 46.0022 101.125 46.0556 101.101 46.1175C101.077 46.1795 101.073 46.2471 101.088 46.3118C101.102 46.3765 101.136 46.4352 101.185 46.4806C101.233 46.5259 101.294 46.5556 101.36 46.5661Z" fill="url(#paint1_linear_378_4605)"/>
<path d="M105.83 34.2463C106.74 35.0366 107.21 35.3971 107.81 35.9459C108.238 36.3372 108.866 35.9235 108.499 35.4748C107.747 34.6726 106.913 33.9503 106.012 33.3195C105.28 32.6664 104.865 33.4119 105.83 34.2463Z" fill="url(#paint2_linear_378_4605)"/>
<path d="M129.64 30.4829C128.911 31.0023 127.75 32.9602 127.323 33.7078C127.29 33.7563 127.268 33.8109 127.258 33.8683C127.248 33.9257 127.249 33.9845 127.263 34.0413C127.276 34.098 127.301 34.1513 127.336 34.198C127.371 34.2446 127.415 34.2836 127.466 34.3125C127.516 34.3414 127.573 34.3595 127.63 34.3658C127.688 34.3721 127.747 34.3664 127.803 34.3491C127.858 34.3318 127.91 34.3032 127.954 34.2651C127.998 34.2271 128.034 34.1803 128.059 34.1278C128.715 33.019 129.438 31.9473 130.111 30.8483C130.238 30.639 129.858 30.3247 129.64 30.4829Z" fill="url(#paint3_linear_378_4605)"/>
<path d="M109.719 44.9218C109.999 48.7487 112.763 52.0205 115.752 54.215C116.147 54.5055 116.452 54.0169 116.112 53.7005C113.854 51.5739 111.504 49.3423 110.784 46.1741C108.246 35 128.041 33.4145 128.155 43.68C128.196 47.4313 125.775 50.5267 123.556 53.326C123.211 53.7614 123.711 54.1233 124.079 53.7222C126.371 51.2176 128.679 48.1768 128.979 44.611C129.995 32.7096 108.866 33.355 109.719 44.9218Z" fill="#474747"/>
<path d="M136.074 41.5507C134.695 41.711 133.301 41.8944 131.944 42.1415C131.548 42.2115 131.71 42.8268 132.07 42.7988C133.457 42.692 134.841 42.5361 136.222 42.3312C136.691 42.2619 136.513 41.5003 136.074 41.5507Z" fill="url(#paint4_linear_378_4605)"/>
<path d="M122.652 45.9048C125.891 43.0579 122.069 40.3111 120.696 43.599C120.359 44.4087 120.093 45.2466 119.903 46.1029C119.154 46.2359 118.392 46.2745 117.633 46.2177C117.341 45.1285 116.94 43.3477 115.813 42.8577C113.508 41.8553 112.3 46.2408 116.95 47.001C117.474 49.2058 117.883 51.4365 118.174 53.6839C118.184 53.7537 118.218 53.8177 118.271 53.8641C118.323 53.9105 118.391 53.9361 118.462 53.9361C118.532 53.9361 118.6 53.9105 118.653 53.8641C118.706 53.8177 118.74 53.7537 118.749 53.6839C118.711 51.4632 118.412 49.2546 117.857 47.1039C118.483 47.129 119.11 47.0998 119.731 47.0164C119.433 49.1981 119.554 51.4167 120.088 53.553C120.206 54.0955 120.805 53.9485 120.706 53.4256C120.291 51.2527 120.282 49.022 120.678 46.8456C121.408 46.713 122.089 46.3883 122.652 45.9048ZM122.676 43.0761C123.781 43.8027 122.055 45.5961 120.886 45.8761C121.532 43.2819 122.268 42.8073 122.676 43.0761ZM114.754 44.8114C114.298 43.9238 115.086 43.1356 115.811 43.8846C116.263 44.5397 116.566 45.2859 116.699 46.0707C116.305 46.0033 115.929 45.857 115.593 45.6404C115.258 45.4239 114.969 45.1416 114.746 44.8107L114.754 44.8114Z" fill="#474747"/>
<path d="M135.198 52.7373C134.012 52.0546 132.763 51.4895 131.467 51.0503C131.134 50.9593 130.924 51.4703 131.201 51.66C132.317 52.4139 133.655 52.7968 134.818 53.48C135.553 53.9161 136.105 53.3554 135.198 52.7373Z" fill="url(#paint5_linear_378_4605)"/>
<path d="M109.454 54.148C108.939 54.2453 107.191 56.3264 106.934 56.808C106.417 57.788 107.149 57.8902 107.311 57.6004C108.044 56.2837 109.346 55.3849 109.727 54.827C109.906 54.5673 109.866 54.0703 109.454 54.148Z" fill="url(#paint6_linear_378_4605)"/>
<path d="M115.966 55.0153C115.768 60.3472 116.912 63.6197 119.82 63.6253C123.524 63.6309 123.924 59.1852 123.674 54.7444C121.118 55.0686 118.538 55.1593 115.966 55.0153ZM121.888 59.8719C120.883 60.5449 119.73 60.9649 118.528 61.0962C118.084 61.1039 117.998 60.6118 118.421 60.5061C119.509 60.2459 120.541 59.7908 121.467 59.1628C121.56 59.1231 121.664 59.1184 121.76 59.1497C121.856 59.181 121.937 59.2461 121.988 59.3328C122.04 59.4196 122.058 59.5221 122.039 59.6213C122.021 59.7205 121.967 59.8095 121.888 59.8719ZM122.007 57.2301C121.141 57.9203 118.208 58.656 117.784 58.6301C117.471 58.6301 117.279 58.292 117.59 58.0876C118.139 57.725 119.9 57.4205 121.551 56.5476C122.109 56.2536 122.54 56.8045 122.009 57.2301H122.007Z" fill="#922CD0" fill-opacity="0.98"/>
<path d="M30.7296 74.7468C27.7896 74.8868 26.6332 76.1293 26.804 78.3868C26.9748 80.6443 28.2852 81.1602 30.7373 81.2197C30.181 80.232 29.8881 79.1179 29.8868 77.9843C29.8854 76.8507 30.1757 75.7359 30.7296 74.7468Z" fill="#6A189C" fill-opacity="0.98"/>
<path d="M35.9321 78.1334C35.9755 75.5868 33.5521 74.8539 31.7055 74.7468C31.0907 75.7128 30.7642 76.8341 30.7642 77.9791C30.7642 79.1241 31.0907 80.2454 31.7055 81.2113C33.6858 81.128 35.3413 80.7045 35.7893 79.0686C36.2331 79.2583 36.4333 79.6986 36.7756 79.3969C37.3006 78.9314 36.2961 78.3238 35.9321 78.1334Z" fill="#6A189C" fill-opacity="0.98"/>
<path d="M83.4952 86.2778C82.5208 84.8876 78.7653 82.2255 75.6482 80.0352C73.0218 80.8269 68.1456 83.125 65.515 85.8067C62.8844 88.4884 58.557 101.002 59.6679 107.197C60.4379 111.491 63.7524 110.929 72.3442 110.85C72.1538 110.251 71.9683 108.112 73.0533 107.475C74.1383 106.837 84.7629 106.915 88.5023 106.948C88.657 106.104 88.958 103.779 89.2947 100.97C82.7903 100.574 74.5429 101.617 68.0847 102.139C67.6885 102.171 67.6612 101.802 68.0329 101.743C68.9113 101.558 69.7968 101.408 70.6873 101.295C70.7944 99.7108 71.3474 94.5049 71.9389 92.9761C72.0635 92.6562 72.4107 92.7738 72.3547 93.0874C71.895 95.7769 71.5934 98.491 71.4517 101.216C77.404 100.514 83.3954 100.196 89.3885 100.265C91.387 84.2394 91.1049 82.7505 94.7561 81.4212C93.7061 80.8906 88.6752 79.3618 86.2357 79.3618C86.0467 80.2725 84.6201 84.7763 83.4952 86.2778Z" fill="url(#paint7_linear_378_4605)"/>
<path d="M100.782 80.7103C102.905 80.6354 106.783 80.536 108.154 80.4611C108.249 79.9102 108.412 79.0611 108.729 77.771C107.936 77.211 103.682 75.0298 102.429 74.481C102.331 74.9052 101.183 79.136 100.782 80.7103Z" fill="url(#paint8_linear_378_4605)"/>
<defs>
<linearGradient id="paint0_linear_378_4605" x1="118.148" y1="26.5157" x2="119.506" y2="26.7542" gradientUnits="userSpaceOnUse">
<stop stop-color="#FB6CDF"/>
<stop offset="0.6577" stop-color="#8E29FF"/>
<stop offset="1" stop-color="#4D2FFF" stop-opacity="0.97"/>
</linearGradient>
<linearGradient id="paint1_linear_378_4605" x1="102.581" y1="45.1101" x2="103.2" y2="46.9561" gradientUnits="userSpaceOnUse">
<stop stop-color="#FB6CDF"/>
<stop offset="0.6577" stop-color="#8E29FF"/>
<stop offset="1" stop-color="#4D2FFF" stop-opacity="0.97"/>
</linearGradient>
<linearGradient id="paint2_linear_378_4605" x1="106.375" y1="32.739" x2="108.739" y2="34.9976" gradientUnits="userSpaceOnUse">
<stop stop-color="#FB6CDF"/>
<stop offset="0.6577" stop-color="#8E29FF"/>
<stop offset="1" stop-color="#4D2FFF" stop-opacity="0.97"/>
</linearGradient>
<linearGradient id="paint3_linear_378_4605" x1="128.208" y1="30.0103" x2="130.986" y2="31.7764" gradientUnits="userSpaceOnUse">
<stop stop-color="#FB6CDF"/>
<stop offset="0.6577" stop-color="#8E29FF"/>
<stop offset="1" stop-color="#4D2FFF" stop-opacity="0.97"/>
</linearGradient>
<linearGradient id="paint4_linear_378_4605" x1="133.301" y1="41.4115" x2="133.841" y2="43.2024" gradientUnits="userSpaceOnUse">
<stop stop-color="#FB6CDF"/>
<stop offset="0.6577" stop-color="#8E29FF"/>
<stop offset="1" stop-color="#4D2FFF" stop-opacity="0.97"/>
</linearGradient>
<linearGradient id="paint5_linear_378_4605" x1="132.597" y1="50.7557" x2="134.452" y2="53.5997" gradientUnits="userSpaceOnUse">
<stop stop-color="#FB6CDF"/>
<stop offset="0.6577" stop-color="#8E29FF"/>
<stop offset="1" stop-color="#4D2FFF" stop-opacity="0.97"/>
</linearGradient>
<linearGradient id="paint6_linear_378_4605" x1="107.772" y1="53.7459" x2="110.461" y2="55.7341" gradientUnits="userSpaceOnUse">
<stop stop-color="#FB6CDF"/>
<stop offset="0.6577" stop-color="#8E29FF"/>
<stop offset="1" stop-color="#4D2FFF" stop-opacity="0.97"/>
</linearGradient>
<linearGradient id="paint7_linear_378_4605" x1="71.1849" y1="75.9105" x2="95.8103" y2="99.7395" gradientUnits="userSpaceOnUse">
<stop stop-color="#FB6CDF"/>
<stop offset="0.6577" stop-color="#8E29FF"/>
<stop offset="1" stop-color="#4D2FFF" stop-opacity="0.97"/>
</linearGradient>
<linearGradient id="paint8_linear_378_4605" x1="103.418" y1="73.7996" x2="108.258" y2="79.1453" gradientUnits="userSpaceOnUse">
<stop stop-color="#FB6CDF"/>
<stop offset="0.6577" stop-color="#8E29FF"/>
<stop offset="1" stop-color="#4D2FFF" stop-opacity="0.97"/>
</linearGradient>
</defs>
</svg>
