<svg width="48" height="48" viewBox="0 0 48 48" fill="none" xmlns="http://www.w3.org/2000/svg">
<path d="M39.3727 6.71997H8.62774C8.12183 6.71997 7.63664 6.92094 7.27891 7.27867C6.92119 7.6364 6.72021 8.12159 6.72021 8.62749V39.3729C6.72034 39.8788 6.92137 40.3638 7.27908 40.7214C7.6368 41.0791 8.12191 41.28 8.62774 41.28H25.1796V27.8966H20.6757V22.6809H25.1796V18.8342C25.1796 14.3702 27.906 11.94 31.8881 11.94C33.7956 11.94 35.4348 12.0816 35.9129 12.1454V16.8105L33.1509 16.812C30.9852 16.812 30.5661 17.8411 30.5661 19.3512V22.6814H35.7309L35.0585 27.8971H30.5661V41.28H39.3732C39.879 41.2798 40.3641 41.0788 40.7217 40.7211C41.0793 40.3634 41.2802 39.8783 41.2802 39.3725V8.62749C41.2802 8.12159 41.0792 7.6364 40.7215 7.27867C40.3638 6.92094 39.8786 6.71997 39.3727 6.71997Z" fill="#300054"/>
</svg>
