<svg width="48" height="48" viewBox="0 0 48 48" fill="none" xmlns="http://www.w3.org/2000/svg">
<path d="M26.0559 4C28.3059 4.006 29.4479 4.018 30.4339 4.046L30.8219 4.06C31.2699 4.076 31.7119 4.096 32.2459 4.12C34.3739 4.22 35.8259 4.556 37.0999 5.05C38.4199 5.558 39.5319 6.246 40.6439 7.356C41.6609 8.35579 42.4478 9.56518 42.9499 10.9C43.4439 12.174 43.7799 13.626 43.8799 15.756C43.9039 16.288 43.9239 16.73 43.9399 17.18L43.9519 17.568C43.9819 18.552 43.9939 19.694 43.9979 21.944L43.9999 23.436V26.056C44.0048 27.5148 43.9895 28.9736 43.9539 30.432L43.9419 30.82C43.9259 31.27 43.9059 31.712 43.8819 32.244C43.7819 34.374 43.4419 35.824 42.9499 37.1C42.4493 38.4356 41.6622 39.6452 40.6439 40.644C39.6439 41.6606 38.4345 42.4475 37.0999 42.95C35.8259 43.444 34.3739 43.78 32.2459 43.88C31.7714 43.9023 31.2967 43.9223 30.8219 43.94L30.4339 43.952C29.4479 43.98 28.3059 43.994 26.0559 43.998L24.5639 44H21.9459C20.4865 44.005 19.027 43.9897 17.5679 43.954L17.1799 43.942C16.7052 43.924 16.2305 43.9034 15.7559 43.88C13.6279 43.78 12.1759 43.444 10.8999 42.95C9.56527 42.4487 8.35637 41.6617 7.35793 40.644C6.34002 39.6446 5.55238 38.4351 5.04993 37.1C4.55593 35.826 4.21993 34.374 4.11993 32.244C4.09765 31.7694 4.07765 31.2948 4.05993 30.82L4.04993 30.432C4.01308 28.9736 3.99641 27.5148 3.99993 26.056V21.944C3.99435 20.4852 4.00902 19.0264 4.04393 17.568L4.05793 17.18C4.07393 16.73 4.09393 16.288 4.11793 15.756C4.21793 13.626 4.55393 12.176 5.04793 10.9C5.55016 9.56381 6.33937 8.35405 7.35993 7.356C8.35812 6.33895 9.56622 5.55197 10.8999 5.05C12.1759 4.556 13.6259 4.22 15.7559 4.12C16.2879 4.096 16.7319 4.076 17.1799 4.06L17.5679 4.048C19.0263 4.01247 20.4851 3.99713 21.9439 4.002L26.0559 4ZM23.9999 14C21.3478 14 18.8042 15.0536 16.9289 16.9289C15.0535 18.8043 13.9999 21.3478 13.9999 24C13.9999 26.6522 15.0535 29.1957 16.9289 31.0711C18.8042 32.9464 21.3478 34 23.9999 34C26.6521 34 29.1956 32.9464 31.071 31.0711C32.9464 29.1957 33.9999 26.6522 33.9999 24C33.9999 21.3478 32.9464 18.8043 31.071 16.9289C29.1956 15.0536 26.6521 14 23.9999 14ZM23.9999 18C24.7879 17.9999 25.5681 18.1549 26.2961 18.4563C27.0241 18.7577 27.6856 19.1996 28.2429 19.7567C28.8001 20.3137 29.2422 20.9751 29.5438 21.703C29.8455 22.4309 30.0008 23.2111 30.0009 23.999C30.0011 24.7869 29.846 25.5672 29.5446 26.2952C29.2432 27.0232 28.8013 27.6847 28.2443 28.2419C27.6872 28.7992 27.0259 29.2412 26.298 29.5429C25.5701 29.8445 24.7899 29.9999 24.0019 30C22.4106 30 20.8845 29.3679 19.7593 28.2426C18.6341 27.1174 18.0019 25.5913 18.0019 24C18.0019 22.4087 18.6341 20.8826 19.7593 19.7574C20.8845 18.6321 22.4106 18 24.0019 18M34.5019 11C33.8389 11 33.203 11.2634 32.7342 11.7322C32.2653 12.2011 32.0019 12.837 32.0019 13.5C32.0019 14.163 32.2653 14.7989 32.7342 15.2678C33.203 15.7366 33.8389 16 34.5019 16C35.165 16 35.8009 15.7366 36.2697 15.2678C36.7385 14.7989 37.0019 14.163 37.0019 13.5C37.0019 12.837 36.7385 12.2011 36.2697 11.7322C35.8009 11.2634 35.165 11 34.5019 11Z" fill="#300054"/>
</svg>
