<svg width="74" height="47" viewBox="0 0 74 47" fill="none" xmlns="http://www.w3.org/2000/svg">
<path d="M29.4608 3.27366C29.7418 2.31539 31.0992 2.31539 31.3801 3.27366L33.4471 10.3252C33.5975 10.8383 34.125 11.1423 34.6444 11.0152L37.0882 10.4172C37.5941 10.2934 38.1103 10.5787 38.2748 11.0729L39.1334 13.6533C39.2976 14.147 39.813 14.4322 40.3186 14.3092L47.5093 12.5603C48.481 12.324 49.1596 13.5026 48.4673 14.2243L43.8621 19.0246C43.3422 19.5666 43.583 20.467 44.3042 20.677L50.7024 22.5399C51.663 22.8196 51.663 24.1804 50.7024 24.4601L44.3042 26.323C43.583 26.533 43.3422 27.4334 43.8621 27.9754L48.4673 32.7757C49.1596 33.4974 48.481 34.676 47.5093 34.4397L40.3186 32.6908C39.813 32.5678 39.2976 32.853 39.1334 33.3467L38.2748 35.9271C38.1103 36.4213 37.5941 36.7066 37.0882 36.5828L34.6444 35.9848C34.125 35.8577 33.5975 36.1617 33.4471 36.6748L31.3801 43.7263C31.0992 44.6846 29.7418 44.6846 29.4608 43.7263L27.5865 37.3322C27.3759 36.6136 26.4792 36.3729 25.937 36.8895L21.1046 41.4943C20.3813 42.1835 19.2058 41.5029 19.4435 40.5325L21.0255 34.0716C21.2039 33.3432 20.5466 32.6849 19.8179 32.8621L13.3316 34.4397C12.3599 34.676 11.6814 33.4974 12.3737 32.7757L18.1214 26.7844L20.7062 24.2083C21.0984 23.8175 21.0984 23.1825 20.7062 22.7917L18.1214 20.2156L12.3737 14.2243C11.6814 13.5026 12.3599 12.324 13.3316 12.5603L19.8179 14.1379C20.5466 14.3151 21.2039 13.6568 21.0255 12.9284L19.4435 6.46754C19.2058 5.49714 20.3813 4.81653 21.1046 5.50574L25.937 10.1105C26.4792 10.6271 27.3759 10.3864 27.5865 9.66782L29.4608 3.27366Z" fill="url(#paint0_linear_43_338)" fill-opacity="0.38"/>
<path d="M3.12984 30V15.9H8.36984C10.7298 15.9 12.5498 16.5067 13.8298 17.72C15.1232 18.9333 15.7698 20.6733 15.7698 22.94C15.7698 25.1933 15.1232 26.9333 13.8298 28.16C12.5498 29.3867 10.7298 30 8.36984 30H3.12984ZM5.68984 27.88H8.20984C11.4632 27.88 13.0898 26.2333 13.0898 22.94C13.0898 19.66 11.4632 18.02 8.20984 18.02H5.68984V27.88ZM22.9442 30.2C21.8376 30.2 20.8842 29.9933 20.0842 29.58C19.2842 29.1667 18.6642 28.58 18.2242 27.82C17.7976 27.06 17.5842 26.16 17.5842 25.12C17.5842 24.1067 17.7909 23.22 18.2042 22.46C18.6309 21.7 19.2109 21.1067 19.9442 20.68C20.6909 20.24 21.5376 20.02 22.4842 20.02C23.8709 20.02 24.9642 20.46 25.7642 21.34C26.5776 22.22 26.9842 23.42 26.9842 24.94V25.68H19.9842C20.1709 27.4267 21.1709 28.3 22.9842 28.3C23.5309 28.3 24.0776 28.22 24.6242 28.06C25.1709 27.8867 25.6709 27.62 26.1242 27.26L26.8242 28.94C26.3576 29.3267 25.7709 29.6333 25.0642 29.86C24.3576 30.0867 23.6509 30.2 22.9442 30.2ZM22.5842 21.72C21.8509 21.72 21.2576 21.9467 20.8042 22.4C20.3509 22.8533 20.0776 23.4667 19.9842 24.24H24.9042C24.8509 23.4267 24.6242 22.8067 24.2242 22.38C23.8376 21.94 23.2909 21.72 22.5842 21.72ZM34.0641 30.2C32.9574 30.2 31.9307 30.06 30.9841 29.78C30.0374 29.4867 29.2374 29.0933 28.5841 28.6L29.3641 26.58C30.0174 27.0467 30.7307 27.4067 31.5041 27.66C32.2907 27.9133 33.1441 28.04 34.0641 28.04C35.1174 28.04 35.8841 27.8667 36.3641 27.52C36.8441 27.16 37.0841 26.7 37.0841 26.14C37.0841 25.6733 36.9107 25.3067 36.5641 25.04C36.2307 24.7733 35.6507 24.5533 34.8241 24.38L32.6241 23.92C30.1174 23.3867 28.8641 22.1 28.8641 20.06C28.8641 19.18 29.0974 18.4133 29.5641 17.76C30.0307 17.1067 30.6774 16.6 31.5041 16.24C32.3307 15.88 33.2841 15.7 34.3641 15.7C35.3241 15.7 36.2241 15.8467 37.0641 16.14C37.9041 16.42 38.6041 16.82 39.1641 17.34L38.3841 19.26C37.2774 18.3267 35.9307 17.86 34.3441 17.86C33.4241 17.86 32.7041 18.0533 32.1841 18.44C31.6641 18.8267 31.4041 19.3333 31.4041 19.96C31.4041 20.44 31.5641 20.8267 31.8841 21.12C32.2041 21.4 32.7507 21.62 33.5241 21.78L35.7041 22.24C37.0241 22.52 38.0041 22.96 38.6441 23.56C39.2974 24.16 39.6241 24.96 39.6241 25.96C39.6241 26.8 39.3974 27.54 38.9441 28.18C38.4907 28.82 37.8441 29.32 37.0041 29.68C36.1774 30.0267 35.1974 30.2 34.0641 30.2ZM41.4213 18.12V15.68H44.2213V18.12H41.4213ZM41.5813 30V20.22H44.0813V30H41.5813ZM51.2389 33.8C50.3322 33.8 49.4789 33.6933 48.6789 33.48C47.8922 33.28 47.1989 32.9667 46.5989 32.54L47.3189 30.8C47.8789 31.1733 48.4789 31.4467 49.1189 31.62C49.7589 31.8067 50.3989 31.9 51.0389 31.9C52.8256 31.9 53.7189 31.04 53.7189 29.32V27.98C53.4389 28.5267 53.0056 28.96 52.4189 29.28C51.8456 29.6 51.2056 29.76 50.4989 29.76C49.6189 29.76 48.8522 29.56 48.1989 29.16C47.5456 28.7467 47.0389 28.1733 46.6789 27.44C46.3189 26.7067 46.1389 25.8533 46.1389 24.88C46.1389 23.9067 46.3189 23.06 46.6789 22.34C47.0389 21.6067 47.5456 21.04 48.1989 20.64C48.8522 20.2267 49.6189 20.02 50.4989 20.02C51.2322 20.02 51.8856 20.1867 52.4589 20.52C53.0322 20.84 53.4522 21.2733 53.7189 21.82V20.22H56.1589V29.02C56.1589 30.6067 55.7389 31.8 54.8989 32.6C54.0589 33.4 52.8389 33.8 51.2389 33.8ZM51.1789 27.86C51.9522 27.86 52.5656 27.5933 53.0189 27.06C53.4722 26.5267 53.6989 25.8 53.6989 24.88C53.6989 23.96 53.4722 23.24 53.0189 22.72C52.5656 22.1867 51.9522 21.92 51.1789 21.92C50.4056 21.92 49.7922 22.1867 49.3389 22.72C48.8856 23.24 48.6589 23.96 48.6589 24.88C48.6589 25.8 48.8856 26.5267 49.3389 27.06C49.7922 27.5933 50.4056 27.86 51.1789 27.86ZM58.9892 30V15.9H60.9092L68.4892 25.74V15.9H70.8692V30H68.9692L61.3692 20.12V30H58.9892Z" fill="#300054"/>
<defs>
<linearGradient id="paint0_linear_43_338" x1="23.7428" y1="-0.981529" x2="33.0922" y2="29.721" gradientUnits="userSpaceOnUse">
<stop stop-color="#FF00F5"/>
<stop offset="0.473883" stop-color="#5BC4FF" stop-opacity="0.81"/>
<stop offset="1" stop-color="#AD00FE"/>
</linearGradient>
</defs>
</svg>
