<svg width="140" height="140" viewBox="0 0 140 140" fill="none" xmlns="http://www.w3.org/2000/svg">
<path d="M56.569 108.328C56.2946 102.767 56.0307 97.176 56.0601 91.5851C36.7268 91.3877 13.1725 85.2109 9.62909 84.6488C7.89589 84.3737 6.19069 84.5592 4.57649 83.7822C4.54639 88.2069 4.65139 106.112 4.57649 110.63C4.57856 110.677 4.56817 110.723 4.5464 110.764C4.52462 110.805 4.49224 110.84 4.45262 110.864C4.413 110.888 4.36758 110.902 4.32105 110.903C4.27452 110.904 4.22858 110.892 4.18799 110.869C4.48689 114.248 5.35839 118.588 7.71599 116.221C11.3707 112.551 15.6169 111.849 20.8711 117.656C26.1113 123.449 32.2111 127.106 33.6069 121.871C35.8637 113.415 52.9507 124.398 55.7913 124.413H57.7051C56.9575 119.121 56.8329 113.68 56.569 108.328Z" fill="url(#paint0_linear_378_5124)"/>
<path d="M15.758 66.4412C16.2662 63.6013 18.4516 60.2735 16.416 57.9502C16.3299 57.8663 16.2743 57.7561 16.2581 57.637C16.2419 57.5179 16.2659 57.3968 16.3264 57.2929C18.019 54.8835 20.1295 49.5509 17.1034 47.2472C17.0329 47.2061 16.9726 47.1495 16.9271 47.0818C16.8815 47.0141 16.8519 46.9369 16.8404 46.8561C16.8289 46.7753 16.8358 46.693 16.8606 46.6152C16.8854 46.5375 16.9275 46.4664 16.9837 46.4072C17.8618 45.6098 18.4302 44.528 18.5886 43.3525C18.747 42.177 18.4853 40.9833 17.8496 39.9819C17.4681 39.4086 16.2319 38.6666 16.1752 37.8889C16.1122 37.0223 17.1552 36.0941 17.3708 35.2583C17.5789 34.4344 17.5927 33.5734 17.4112 32.7432C17.2297 31.9131 16.8579 31.1364 16.325 30.4745C15.7335 29.7815 15.0888 29.6079 15.0391 28.6503C14.9803 27.517 15.7391 27.0333 15.1287 24.7044C13.6636 23.9869 12.7368 24.1661 12.3483 25.3022C11.4516 26.6777 11.2983 28.8288 10.9728 30.4122C10.5106 32.2732 10.4697 34.2139 10.8531 36.0927C11.4782 39.2028 8.05311 42.098 10.0761 45.1227C10.7362 46.1083 12.0193 46.2294 12.0193 47.5146C12.0193 48.7998 10.9385 50.3237 10.6438 51.5809C10.1888 53.5227 10.1958 55.8257 11.6308 57.4105C12.1992 58.0405 12.9727 58.2183 13.0357 59.115C13.1498 60.7299 11.446 61.8583 12.5877 63.5999C13.4734 64.7221 14.5458 65.6833 15.758 66.4412Z" fill="#149219"/>
<path d="M26.8203 45.4832C26.7559 45.0051 26.6138 43.8949 26.2225 43.54C25.3916 42.7854 24.553 43.6639 24.0098 44.1973C23.1315 45.0565 22.5104 46.1438 22.2165 47.3368C21.8734 48.7683 22.2619 50.2383 22.1261 51.6719C22.019 52.8094 21.4471 53.6172 21.1398 54.6917C20.5574 56.7287 21.9966 59.0527 21.2294 60.97C20.6036 62.5338 18.7619 62.9426 18.8676 66.6505C19.4717 65.514 20.3061 64.516 21.3176 63.7203C22.8807 62.3245 23.5898 60.9105 24.5166 59.0569C25.2943 57.5022 25.1669 55.7088 25.0248 54.0337C24.9618 53.2868 24.6343 52.269 24.9059 51.5221C25.2321 50.6247 26.0566 49.9737 26.4304 49.0721C26.8767 47.9317 27.0113 46.6929 26.8203 45.4832Z" fill="#149219"/>
<path d="M35.8497 46.081L34.8032 36.631L64.731 24.4048C64.731 24.4048 65.0929 29.9068 64.731 31.5504C64.3754 33.166 65.2392 37.7692 66.2857 38.7562C66.2857 38.7562 58.9021 39.3253 55.7913 43.1214C52.6539 46.949 47.4795 53.9441 42.1581 51.4626C42.1581 51.4626 41.1711 46.081 43.6232 42.4935C43.6232 42.4634 39.7361 41.9251 35.8497 46.081Z" fill="#922CD0" fill-opacity="0.38"/>
<path d="M71.5474 45.9612L72.3244 45.4229L71.5474 33.5229C71.5474 33.5229 69.1429 36.15 69.7232 38.7253C70.3091 41.323 71.2184 42.6425 71.5474 45.9612Z" fill="#922CD0" fill-opacity="0.38"/>
<path d="M48.915 79.5369C48.915 79.5369 58.6016 82.437 59.947 82.2277C61.2924 82.0184 62.5776 80.2544 62.5776 80.2544C62.5776 80.2544 61.382 78.1313 59.1098 78.6696C56.8376 79.2079 54.6249 79.2674 54.984 75.7996L48.915 79.5369Z" fill="#922CD0" fill-opacity="0.38"/>
<path d="M68.229 67.6075L78.2747 61.7478L87.3936 64.3784L75.3746 72.3913C75.3746 72.3913 72.9246 73.3475 72.3548 73.1683C71.785 72.9891 70.2324 72.3913 70.2324 72.3913C70.2324 72.3913 71.9362 68.8332 68.229 67.6075Z" fill="#922CD0" fill-opacity="0.38"/>
<path d="M94.5391 45.9902C94.5391 46.9471 95.286 47.2754 96.0938 47.4252C97.2754 53.1876 103.094 55.1252 106.169 52.1194C106.441 51.8534 106.082 51.3459 105.749 51.5811C102.168 54.1165 98.0363 51.5265 97.0486 47.575H97.2586C97.3543 47.5735 97.4463 47.5371 97.5172 47.4728C97.5882 47.4085 97.6334 47.3206 97.6444 47.2254C97.6553 47.1303 97.6313 47.0344 97.5768 46.9556C97.5223 46.8769 97.4411 46.8206 97.3482 46.7973C96.9029 46.7613 96.4623 46.6812 96.0329 46.5579C95.1362 46.1694 95.5485 45.4491 95.8838 44.7645C96.3535 43.8034 96.9219 42.906 97.4679 42.0135C97.6156 41.7734 97.2579 41.4752 97.0794 41.7146C97.0188 41.8114 96.9484 41.9017 96.8694 41.9841C97.1388 40.4396 97.4983 38.9122 97.946 37.4096C97.9589 37.3445 97.947 37.2769 97.9127 37.2201C97.8783 37.1633 97.8239 37.1214 97.7603 37.1027C97.6966 37.0839 97.6282 37.0896 97.5685 37.1187C97.5089 37.1478 97.4622 37.1981 97.4378 37.2598C96.8423 39.1357 96.3925 41.0547 96.0924 42.9998C95.853 43.3288 95.6507 43.6921 95.4344 44.0162C94.953 44.5749 94.6423 45.26 94.5391 45.9902Z" fill="#191919"/>
<path d="M99.1125 41.2379C98.7149 42.5238 100.189 42.5399 100.189 41.6859V41.3576C100.18 41.2293 100.126 41.1083 100.036 41.0157C99.9472 40.923 99.8284 40.8645 99.7005 40.8503C99.5727 40.8361 99.4439 40.8671 99.3365 40.9378C99.2291 41.0086 99.1498 41.1148 99.1125 41.2379Z" fill="#191919"/>
<path d="M99.0534 37.949C98.99 37.9887 98.9449 38.0519 98.9281 38.1247C98.9113 38.1976 98.9241 38.2741 98.9638 38.3375C99.0034 38.4009 99.0666 38.446 99.1395 38.4628C99.2123 38.4796 99.2889 38.4668 99.3523 38.4271C99.7086 38.2717 100.249 38.5468 100.548 38.7561C100.847 38.9654 101.027 39.2944 101.388 39.3861C101.439 39.3981 101.493 39.3988 101.545 39.3882C101.596 39.3775 101.645 39.3559 101.688 39.3246C101.73 39.2934 101.766 39.2533 101.791 39.2071C101.817 39.161 101.833 39.1098 101.837 39.0571C101.834 38.1051 99.913 37.3617 99.0534 37.949Z" fill="#191919"/>
<path d="M101.654 50.4461C101.965 50.2034 102.202 49.8792 102.339 49.5097C102.476 49.1401 102.508 48.7397 102.431 48.3531C102.37 48.2047 102.269 48.0759 102.14 47.9803C102.011 47.8847 101.859 47.8261 101.699 47.8107C101.539 47.7953 101.378 47.8237 101.233 47.8929C101.088 47.9621 100.965 48.0694 100.877 48.2033C100.368 48.323 100.13 49.1602 100.159 49.639C100.159 49.8131 100.207 49.9839 100.296 50.1333C100.385 50.2828 100.513 50.4053 100.666 50.488C100.819 50.5707 100.992 50.6105 101.166 50.6031C101.34 50.5957 101.509 50.5415 101.654 50.4461ZM101.744 48.7717C101.796 49.1917 101.044 50.3628 100.937 49.6117C100.903 49.373 100.966 48.8942 101.236 48.8046C101.313 48.7803 101.377 48.7264 101.415 48.6548C101.565 48.5624 101.744 48.5323 101.744 48.7717Z" fill="#191919"/>
<path d="M106.767 57.1432C107.126 55.8279 106.74 54.1822 106.347 52.8977C106.323 52.8227 106.272 52.7595 106.203 52.7211C106.134 52.6828 106.054 52.672 105.977 52.6911C105.901 52.7103 105.835 52.7578 105.792 52.824C105.75 52.8902 105.734 52.9702 105.749 53.0475C106.266 55.7411 105.86 55.977 105.988 57.0536C106.039 57.4736 106.68 57.5919 106.767 57.1432Z" fill="#191919"/>
<path d="M86.1073 77.5636C92.3667 71.5282 98.1557 64.594 106.318 61.0898C106.614 60.9624 106.408 60.4598 106.108 60.5816C102.24 62.2235 98.6647 64.4855 95.5244 67.2785C93.1406 69.2468 90.8651 71.3426 88.7078 73.5568C83.3298 72.6845 77.8375 72.8062 72.5035 73.9159C72.38 73.9292 72.2623 73.9751 72.1624 74.0489C72.0625 74.1227 71.984 74.2218 71.9351 74.3359C71.045 76.2504 70.6627 78.3617 70.825 80.4668C70.9873 82.5718 71.6888 84.5996 72.8619 86.3549C72.9237 86.4431 73.0129 86.5085 73.1157 86.5409C73.2184 86.5733 73.329 86.5709 73.4303 86.5341C73.4652 86.5577 73.5073 86.5683 73.5493 86.5642C78.1453 86.6406 82.7161 85.8703 87.0334 84.292C87.6011 84.082 87.3666 83.1671 86.794 83.3946C82.6286 85.0179 78.1996 85.8591 73.7292 85.8761V85.8467C72.6071 84.2524 71.897 82.4052 71.6622 80.4697C71.4275 78.5343 71.6754 76.5709 72.3838 74.7545C72.4084 74.6807 72.4516 74.6144 72.5092 74.5621C72.5668 74.5097 72.6369 74.4731 72.7128 74.4556C77.8023 73.5929 82.991 73.4821 88.1128 74.1266C87.2095 75.0976 86.3705 76.1265 85.6012 77.2066C85.4199 77.5034 85.8637 77.7981 86.1073 77.5636Z" fill="#191919"/>
<path d="M135.02 63.9898C134.854 63.3263 134.502 62.7244 134.004 62.2559C132.254 60.8853 127.323 62.2447 125.333 67.3386C124.783 68.8249 124.47 70.3888 124.407 71.9726C124.162 71.3103 123.932 70.6423 123.719 69.9692C123.046 67.8118 122.879 65.5746 121.985 63.4816C122.49 63.5213 122.997 63.435 123.461 63.2303C123.925 63.0257 124.33 62.7091 124.641 62.309C124.953 61.909 125.16 61.4379 125.244 60.9381C125.328 60.4383 125.287 59.9254 125.124 59.4454C125.991 60.1328 127.312 59.4489 127.994 58.548C129.767 56.2107 128.908 53.1951 126.679 52.5091C127.251 52.093 127.683 51.5127 127.918 50.8452C128.153 50.1778 128.18 49.4546 127.994 48.7718C127.782 48.0954 127.373 47.4979 126.819 47.0558C126.265 46.6136 125.591 46.3471 124.885 46.2903C123.779 46.2252 122.732 46.7103 121.626 46.7985C123.149 45.7695 123.446 42.3661 119.115 40.8191C120.947 37.6887 117.198 32.935 110.983 35.826C110.644 35.0059 110.105 34.2837 109.416 33.7249C108.727 33.1662 107.908 32.7888 107.036 32.627C106.16 32.4836 105.263 32.5587 104.423 32.8455C103.583 33.1323 102.827 33.6221 102.222 34.2713C100.375 33.1422 97.2626 36.064 98.6045 36.6933C99.707 37.2099 100.578 36.3944 101.654 36.3944C102.984 36.3944 101.719 38.1353 102.611 39.4744C103.259 40.446 104.788 40.8744 106.707 39.6536C106.186 40.8912 107.5 42.6811 108.052 42.6132C108.321 42.581 108.407 41.9524 108.621 41.7466C108.855 41.531 109.15 41.3925 109.465 41.3497C109.78 41.3068 110.101 41.3618 110.384 41.5072C110.764 41.7524 111.04 42.1281 111.161 42.5632C111.282 42.9984 111.24 43.4629 111.042 43.869C110.834 44.2674 110.52 44.601 110.135 44.8331C109.75 45.0652 109.309 45.187 108.86 45.185C108.585 46.0145 108.605 46.9131 108.916 47.7297C109.226 48.5464 109.808 49.2312 110.564 49.6692C109.996 49.9898 109.529 50.4611 109.212 51.0309C108.895 51.6007 108.742 52.247 108.77 52.8983C108.92 54.1842 110.325 55.2902 111.55 54.8415C110.82 55.1515 110.174 55.6304 109.664 56.2388C109.155 56.8473 108.797 57.5679 108.621 58.3415C108.23 60.0453 109.219 61.5615 111.102 61.5111C111.918 61.447 112.716 61.2449 113.464 60.9133C111.858 64.1242 115.984 65.5053 118.154 64.68C118.621 64.5261 119.027 64.23 119.317 63.8333C119.606 63.4366 119.765 62.9591 119.769 62.468C120.167 62.9425 120.698 63.2862 121.294 63.4543V63.6041C121.952 65.9057 122.229 68.3046 122.938 70.5999C123.373 72.009 123.895 73.4104 124.344 74.8153C124.373 75.3536 124.374 75.8919 124.403 76.4001C124.801 83.3063 125.969 90.2433 125.453 97.1488C125.365 98.315 125.274 99.4511 125.184 100.587C125.244 100.079 123.963 98.7301 123.629 98.315C120.759 94.7401 118.279 94.2907 115.556 92.785C114.152 92.0073 112.866 91.2002 111.221 91.0805C111.16 91.0758 111.099 91.0861 111.042 91.1106C110.044 87.9654 108.648 84.961 106.886 82.1709C106.984 82.1628 107.075 82.1184 107.141 82.0465C107.208 81.9746 107.245 81.8803 107.245 81.7824C107.72 74.6599 107.751 75.0505 107.634 74.816C108.949 73.3509 110.236 71.8571 111.52 70.3913C111.562 70.3427 111.584 70.28 111.582 70.2159C111.58 70.1517 111.553 70.0909 111.508 70.0455C111.462 70.0001 111.401 69.9735 111.337 69.9712C111.273 69.9689 111.21 69.9909 111.162 70.0329C108.591 72.6334 105.81 75.1429 103.392 77.896C102.077 76.5506 100.401 74.8797 98.608 74.606C96.6641 74.3106 94.9302 76.0109 93.7948 77.4165C90.5342 81.452 89.2042 87.3404 88.4748 92.3657C87.7133 98.0107 87.9264 103.745 89.1048 109.318C89.1174 109.377 89.1436 109.433 89.1813 109.481C89.219 109.529 89.2673 109.567 89.3223 109.593C89.3774 109.619 89.4377 109.632 89.4986 109.631C89.5594 109.63 89.6192 109.614 89.6732 109.586C90.843 110.638 92.3468 111.241 93.9187 111.291C95.2318 111.308 96.5406 111.137 97.8051 110.783C98.4939 110.637 98.6731 111.391 98.1936 111.44C97.5039 111.585 96.8323 111.806 96.1909 112.098C94.0286 112.787 91.6276 113.343 89.8524 111.919C88.6666 110.967 88.7324 109.587 86.8326 108.062C85.5749 107.101 84.019 106.614 82.438 106.686C82.1952 105.381 82.4626 104.033 83.1849 102.92C83.4404 102.404 83.8336 101.969 84.321 101.664C85.5159 101.034 86.561 101.905 86.9222 103.009C86.9569 103.121 87.0337 103.214 87.1362 103.271C87.2388 103.327 87.3591 103.34 87.4718 103.309C87.5844 103.278 87.6806 103.205 87.7399 103.104C87.7992 103.003 87.817 102.883 87.7895 102.77C87.7036 102.323 87.5055 101.905 87.2138 101.556C86.9221 101.206 86.5464 100.937 86.122 100.772C85.6976 100.608 85.2383 100.554 84.7874 100.616C84.3364 100.678 83.9086 100.853 83.544 101.125C82.7446 101.791 82.1496 102.669 81.8276 103.658C81.5056 104.648 81.4697 105.708 81.724 106.716C79.6637 106.981 77.6739 107.641 75.8636 108.66C75.8335 108.66 75.8335 108.69 75.8041 108.72C75.3686 108.378 74.833 108.189 74.2795 108.181C71.5663 108.151 70.7487 112.098 72.8144 113.802C73.0361 113.986 73.2891 114.128 73.5613 114.222C73.3365 116.156 73.8847 118.101 75.0866 119.633C77.5009 122.59 82.7026 122.238 83.8464 122.414C92.5614 123.755 111.946 124.489 122.206 121.906C125.793 121.003 130.793 117.006 132.821 113.893C137.455 106.75 137.121 70.2163 135.02 63.9898ZM107.006 75.5006C106.796 77.4739 106.648 79.4465 106.498 81.4198C105.771 80.3791 104.961 79.3993 104.076 78.4903C103.977 78.3895 104.008 78.6863 107.006 75.5006ZM90.0239 109.045C90.0239 108.706 86.0339 94.5399 92.6839 80.5826C93.7948 78.253 95.4944 75.355 98.4239 75.7393C100.038 75.9493 104.037 79.9015 104.344 80.2543C107.674 84.0896 109.413 88.6788 111.1 93.3492C111.251 93.7692 111.929 93.5914 111.788 93.17C111.629 92.6947 111.489 92.2131 111.34 91.735C111.41 91.7434 121.361 94.465 125.06 102.169C124.372 107.102 122.757 111.587 117.316 114.786C115.692 115.505 113.985 116.017 112.234 116.311C110.393 116.51 108.531 116.389 106.732 115.952C103.593 115.003 101.963 110.751 100.483 107.581C102.116 103.201 102.779 98.5186 102.427 93.8574C102.423 93.7845 102.391 93.7159 102.339 93.6656C102.286 93.6153 102.216 93.5873 102.143 93.5873C102.07 93.5873 102 93.6153 101.947 93.6656C101.894 93.7159 101.862 93.7845 101.859 93.8574C101.479 99.3874 100.633 104.471 98.51 109.584C97.6854 109.584 95.0191 111.208 90.0239 109.045ZM74.2382 114.31C74.5281 114.342 74.8208 114.284 75.0772 114.145C75.3336 114.006 75.5415 113.792 75.6732 113.532C75.8832 113.112 75.3393 112.601 74.9858 112.994C74.1276 113.949 72.3104 112.737 72.6534 110.722C73.0671 108.294 75.62 108.953 75.7628 110.183C75.7671 110.284 75.8099 110.378 75.8824 110.448C75.9548 110.517 76.0513 110.556 76.1517 110.556C76.252 110.556 76.3485 110.517 76.421 110.448C76.4934 110.378 76.5363 110.284 76.5405 110.183C76.5598 109.844 76.4649 109.507 76.271 109.227C78.1848 108.419 80.1875 107.524 82.3106 107.583C83.7415 107.68 85.1219 108.15 86.3139 108.947C87.1613 109.437 87.8373 110.176 88.2501 111.063C88.547 111.716 88.9826 112.297 89.5266 112.765C90.0706 113.232 90.7099 113.576 91.4001 113.772C93.8214 114.461 95.9676 113.007 98.1271 112.157C98.5142 112.004 98.7571 114.489 98.7851 114.668C98.9887 116.217 98.793 117.791 98.2167 119.243C98.2127 119.243 98.2088 119.243 98.2051 119.245C98.2014 119.246 98.1981 119.249 98.1952 119.251C98.1924 119.254 98.1902 119.258 98.1887 119.261C98.1872 119.265 98.1865 119.269 98.1866 119.273C96.2434 120.857 93.4637 121.072 91.041 121.276C88.8591 121.46 86.6765 121.455 84.4939 121.425C82.3406 121.492 80.193 121.168 78.1554 120.469C76.9344 119.989 75.8971 119.135 75.1931 118.028C74.4891 116.921 74.1548 115.619 74.2382 114.31Z" fill="#191919"/>
<path d="M70.0826 83.692C70.1867 83.6877 70.2851 83.6432 70.3573 83.568C70.4294 83.4928 70.4697 83.3927 70.4697 83.2884C70.4697 83.1842 70.4294 83.0841 70.3573 83.0089C70.2851 82.9337 70.1867 82.8892 70.0826 82.8849C66.2578 82.7281 64.9432 78.6338 61.7708 77.1743C60.9429 76.7518 60.0025 76.6024 59.0845 76.7476C58.1664 76.8927 57.318 77.3249 56.6608 77.9821C56.3913 78.2509 56.8008 78.6632 57.0808 78.4021C59.9753 75.6413 63.2968 79.331 65.2708 81.3918C66.7618 82.95 67.9 83.72 70.0826 83.692Z" fill="#191919"/>
<path d="M56.1199 75.1101C55.9414 75.3803 56.3334 75.6834 56.5686 75.4692C57.3905 74.7104 58.4725 74.2966 59.5909 74.3133C60.7093 74.33 61.7786 74.7759 62.5774 75.5588C62.638 75.6128 62.7169 75.6416 62.798 75.6393C62.8791 75.6369 62.9562 75.6037 63.0136 75.5463C63.071 75.4889 63.1042 75.4118 63.1066 75.3307C63.1089 75.2496 63.0801 75.1707 63.0261 75.1101C61.2376 73.134 57.7411 72.665 56.1199 75.1101Z" fill="#191919"/>
<path d="M57.4353 72.4808C58.3244 71.9716 59.3426 71.7325 60.3655 71.7927C61.5009 71.9467 62.1484 72.7419 63.1158 73.1983C63.3825 73.3236 63.8004 73.0513 63.5645 72.7496C63.2049 72.2642 62.7492 71.858 62.2256 71.5565C61.7021 71.255 61.1221 71.0647 60.5217 70.9974C59.9214 70.93 59.3136 70.9872 58.7363 71.1652C58.159 71.3432 57.6246 71.6384 57.1665 72.0321C57.1353 72.0489 57.1079 72.0718 57.0858 72.0995C57.0638 72.1272 57.0476 72.159 57.0382 72.1932C57.0288 72.2273 57.0264 72.263 57.0312 72.298C57.036 72.3331 57.0478 72.3668 57.066 72.3972C57.0842 72.4275 57.1084 72.4539 57.137 72.4746C57.1657 72.4954 57.1982 72.5101 57.2328 72.5179C57.2673 72.5258 57.303 72.5265 57.3378 72.5201C57.3726 72.5137 57.4058 72.5004 57.4353 72.4808Z" fill="#191919"/>
<path d="M60.1562 70.0294C61.328 69.6584 62.4865 69.5233 63.5344 70.2394C64.3275 70.7757 65.0421 71.4199 65.6575 72.1532C65.836 72.3632 66.1321 72.1245 66.0775 71.9138C65.7583 70.7238 64.583 69.8495 63.5659 69.2832C62.49 68.684 60.9647 68.9843 59.9483 69.552C59.6781 69.6703 59.8587 70.1232 60.1562 70.0294Z" fill="#191919"/>
<path d="M70.2918 73.3474C69.863 73.1788 69.4236 73.0385 68.9765 72.9274C69.349 72.6589 69.6313 72.2837 69.786 71.8514C69.9407 71.4191 69.9606 70.95 69.8431 70.5061C69.5344 69.4834 68.4942 68.3361 67.3616 68.5629C67.0914 68.6175 67.1516 69.0711 67.4218 69.041C68.4382 69.0109 69.2474 70.4767 69.036 71.3734C68.8883 72.0034 68.2289 72.3597 67.8103 72.7783C67.7652 72.8289 67.7334 72.8899 67.7179 72.9558C67.7023 73.0218 67.7035 73.0906 67.7213 73.1559C67.7391 73.2213 67.773 73.2812 67.8198 73.3302C67.8666 73.3791 67.925 73.4156 67.9895 73.4363C68.7074 73.7193 69.4614 73.9002 70.2295 73.9739C70.3013 73.9637 70.3676 73.9297 70.4178 73.8774C70.468 73.825 70.4992 73.7573 70.5064 73.6851C70.5136 73.6129 70.4963 73.5404 70.4574 73.4792C70.4185 73.418 70.3602 73.3716 70.2918 73.3474Z" fill="#191919"/>
<path d="M80.9348 112.155C81.2588 111.737 81.4278 111.219 81.4129 110.69C81.4129 110.152 80.7899 110.06 80.4266 110.361C80.1514 110.559 79.9475 110.841 79.8451 111.164C79.7426 111.487 79.7473 111.834 79.8582 112.155C79.9144 112.247 79.9934 112.323 80.0877 112.377C80.182 112.43 80.2883 112.457 80.3965 112.457C80.5047 112.457 80.611 112.43 80.7053 112.377C80.7996 112.323 80.8786 112.247 80.9348 112.155Z" fill="#191919"/>
<path d="M86.526 120.078C87.4578 119.965 88.3206 119.529 88.9649 118.847C89.6093 118.164 89.9946 117.278 90.054 116.341C90.1492 114.188 88.024 113.11 86.1669 112.663C85.1367 112.417 84.0585 112.459 83.051 112.787C82.0435 113.114 81.1459 113.713 80.457 114.517C80.2204 114.788 80.6054 115.203 80.877 114.937C82.9322 112.897 87.3114 112.304 88.7695 115.386C89.7306 117.416 87.6033 119.274 85.6006 119.064C83.8961 118.885 82.9406 117.538 82.0425 116.223C81.6547 115.655 80.7531 116.196 81.1458 116.761C82.417 118.592 84.0137 120.4 86.526 120.078Z" fill="#191919"/>
<path d="M27.7198 55.3197C27.8223 55.3771 27.9334 55.4175 28.0488 55.4394C28.5549 59.4847 33.9029 62.0425 36.8093 60.1931C36.8093 60.2631 36.6819 60.0153 38.5131 62.1363C38.5131 62.1664 38.483 62.1664 38.483 62.1958C38.483 64.1992 39.2264 66.4707 38.9618 68.4447C38.8092 69.5801 37.5177 69.2491 37.1677 70.3285C37.1074 70.4485 37.0743 70.5804 37.071 70.7147C37.0677 70.849 37.0942 70.9824 37.1485 71.1052C37.2028 71.2281 37.2837 71.3374 37.3853 71.4253C37.4869 71.5132 37.6067 71.5775 37.7361 71.6136C38.8414 71.8866 39.7808 70.6064 40.3667 69.8497C41.297 68.6492 42.4667 66.4477 42.3099 66.2923C42.8491 66.8131 43.4172 67.3032 44.0116 67.7602C43.9611 67.7673 43.9111 67.7773 43.8618 67.7903C43.6041 67.8668 43.3687 68.0047 43.1761 68.1922C42.9834 68.3798 42.8392 68.6113 42.7558 68.8668C42.735 68.9629 42.7439 69.0629 42.7814 69.1537C42.8189 69.2446 42.8833 69.3218 42.9658 69.3751C43.2857 69.5811 43.6614 69.6831 44.0416 69.667C44.4217 69.651 44.7875 69.5177 45.0889 69.2854C47.1462 68.0807 46.169 66.1453 45.9555 64.2623C45.8706 63.4764 45.8006 62.689 45.7455 61.9005C48.0779 61.512 50.4355 62.45 52.7714 62.5305C58.1761 62.7125 63.2413 60.3709 65.7774 55.6543C65.7774 56.5811 65.8068 57.4743 65.867 58.3745C64.551 58.644 62.577 59.7234 63.5948 61.2151C64.5174 62.5633 66.4963 60.8281 67.2418 60.1085C68.261 59.125 68.611 57.8047 68.9764 56.4614C70.088 52.3678 71.4768 47.9466 70.6501 43.5751C70.1118 40.7269 65.4764 37.1239 73.9401 30.6293C75.8816 29.17 77.4915 27.3155 78.6637 25.1883C80.4326 21.8724 78.9031 15.139 74.4182 14.9332C69.7842 14.7232 65.5401 18.7007 65.2692 23.2451C65.0914 26.2347 65.86 29.2237 65.7179 32.2442C65.5737 33.6181 65.6852 35.0067 66.0469 36.3399C66.4669 37.5943 67.4224 38.58 67.7808 39.84C66.8749 39.5857 65.9208 39.5549 65.0004 39.7503C60.8235 40.4888 57.4404 42.7142 54.5963 45.79C51.1922 49.4713 47.2414 54.5196 41.5903 52.7563C40.5739 49.6763 40.6803 46.149 42.4576 43.3679C42.7033 42.9836 42.221 42.626 41.8892 42.8003C39.1112 44.1735 36.6711 46.1439 34.7436 48.5704C33.3213 48.4424 31.8989 48.8135 30.7205 49.62C29.542 50.4265 28.6811 51.6181 28.2854 52.9901C27.1192 53.1371 26.94 54.6617 27.7198 55.3197ZM40.0678 68.8298C40.0537 68.8536 40.0322 68.8722 40.0067 68.8828C39.9811 68.8935 39.9528 68.8957 39.926 68.889C39.8991 68.8823 39.8751 68.8672 39.8575 68.8458C39.84 68.8244 39.8297 68.7979 39.8284 68.7702C39.7689 67.8728 39.5288 66.9166 39.4399 66.1102C39.3188 65.0042 39.2607 63.9276 39.0815 62.8202C39.9215 63.7771 40.7258 64.7635 41.6225 65.6609C41.1818 66.7551 40.6612 67.8154 40.065 68.8332L40.0678 68.8298ZM68.1987 18.6348C69.99 16.749 74.2971 14.5398 76.5105 16.8708C77.585 18.0576 78.2354 19.5674 78.3598 21.1635C78.4842 22.7596 78.0756 24.3519 77.1979 25.6908C76.6422 26.5321 76.0011 27.3137 75.2848 28.0232C76.4398 23.3136 73.7553 21.7519 69.9326 25.1826C69.9032 23.9268 69.8416 22.1026 68.9463 21.565C68.1063 21.0589 67.0325 21.7442 66.3451 22.405C66.5686 20.9901 67.2148 19.6759 68.1987 18.6348ZM66.4347 26.6148C66.2938 25.5146 66.2439 24.4046 66.2856 23.2961C66.3728 23.2932 66.4567 23.2618 66.5243 23.2065C67.6604 21.9206 68.5627 21.8597 69.0954 23.5054C69.2806 24.329 69.3512 25.1742 69.3054 26.017C69.3068 26.0858 69.3284 26.1526 69.3675 26.2092C69.4066 26.2657 69.4615 26.3095 69.5253 26.335C69.5892 26.3606 69.6591 26.3667 69.7264 26.3527C69.7938 26.3388 69.8555 26.3053 69.9039 26.2564C70.5913 25.5683 72.0865 24.1599 73.1624 24.253C75.4955 24.4546 74.6919 27.4233 74.2124 28.887C74.0416 29.4043 74.9446 28.4222 71.8506 31.127C69.7128 32.9981 68.1406 35.5818 68.233 38.2726C67.603 36.9874 66.7672 35.7617 66.6783 34.2364C66.5229 31.6401 66.7196 29.1901 66.4347 26.6176V26.6148ZM34.7436 49.1303C35.3232 49.1254 37.0025 46.5347 41.2613 44.0777C40.1245 47.038 39.7437 49.9452 40.7825 53.1372C40.8036 53.2085 40.8422 53.2734 40.8949 53.326C40.9475 53.3785 41.0125 53.417 41.0839 53.4379C41.1554 53.4588 41.2309 53.4614 41.3035 53.4456C41.3762 53.4297 41.4438 53.3959 41.5 53.3471C48.9151 56.3067 53.3888 47.2634 58.3623 43.6003C60.0364 42.3605 61.9351 41.4571 63.9532 40.9403C65.0032 40.6743 66.7938 40.1627 67.8102 40.6709C67.8697 40.701 67.8998 40.731 67.9593 40.7604C67.9877 40.8457 68.0391 40.9215 68.1078 40.9795C68.1764 41.0376 68.2597 41.0756 68.3485 41.0895C68.9117 41.6598 69.3317 42.3555 69.5742 43.1194C69.7076 43.7684 69.7677 44.4303 69.7534 45.0927C69.9704 49.8156 68.5277 54.4203 67.1522 58.8751C67.0626 59.0249 66.8232 59.0248 66.8232 58.7854C66.8232 55.7362 66.7448 52.8047 67.0031 49.7555C67.0003 49.6838 66.9726 49.6154 66.9247 49.562C66.8768 49.5086 66.8118 49.4735 66.7409 49.4629C66.67 49.4523 66.5976 49.4668 66.5362 49.5038C66.4748 49.5409 66.4283 49.5982 66.4046 49.6658C66.0649 51.1178 65.8747 52.6006 65.8369 54.0913C65.7459 54.0711 65.6508 54.0841 65.5685 54.1278C65.4863 54.1716 65.4223 54.2433 65.3882 54.3299C64.5754 56.1104 63.3524 57.6731 61.8193 58.8898C60.2863 60.1065 58.4867 60.9427 56.5682 61.3299C51.797 62.4051 48.7072 60.6999 45.7448 61.3593C45.7099 61.0216 45.6901 60.6825 45.6853 60.343C45.6818 60.2739 45.6519 60.2089 45.6018 60.1613C45.5517 60.1137 45.4852 60.0872 45.4161 60.0872C45.347 60.0872 45.2806 60.1137 45.2305 60.1613C45.1804 60.2089 45.1505 60.2739 45.147 60.343C45.1323 61.659 45.1253 62.9736 45.2366 64.3197C45.2688 64.7082 45.7448 67.4885 45.5957 67.6096C45.1169 67.8784 42.4562 65.2177 42.3666 65.1876C40.6621 63.4236 39.197 61.4777 37.2566 59.9559C37.3462 59.8957 37.4064 59.8361 37.496 59.7766C37.7949 59.5071 37.4113 59.0374 37.076 59.2383C34.2186 60.9561 29.7645 59.1095 29.0337 55.7698C28.186 51.8995 31.2149 49.1604 34.7436 49.1303Z" fill="#191919"/>
<path d="M32.0526 54.3033C32.3214 54.4524 32.6504 54.3033 32.9192 54.213C33.3679 54.094 33.846 53.9743 34.2947 53.8245C34.3898 53.7966 34.47 53.7321 34.5176 53.6451C34.5652 53.5582 34.5762 53.4559 34.5484 53.3607C34.5206 53.2656 34.456 53.1854 34.3691 53.1378C34.2821 53.0902 34.1798 53.0791 34.0847 53.107C32.6105 53.492 32.6846 53.5508 32.4102 53.5851C32.2851 53.2953 32.1851 52.9953 32.1114 52.6884C32.014 52.3993 31.894 52.1184 31.7523 51.8484C31.578 51.5467 31.1789 51.7595 31.2146 52.0878C31.2942 52.5685 31.4244 53.0394 31.6031 53.4927C31.7235 53.765 31.7831 54.1535 32.0526 54.3033Z" fill="#191919"/>
<path d="M36.1198 50.267C36.5405 49.7052 37.0447 49.2111 37.615 48.802C37.496 49.4629 37.4361 50.1331 37.4358 50.8047C37.4358 50.916 37.4801 51.0229 37.5588 51.1016C37.6376 51.1804 37.7444 51.2246 37.8558 51.2246C37.9672 51.2246 38.0741 51.1804 38.1528 51.1016C38.2316 51.0229 38.2758 50.916 38.2758 50.8047C38.2699 49.8678 38.3804 48.9338 38.6048 48.0243C38.6264 47.9465 38.6239 47.8641 38.5979 47.7877C38.5718 47.7113 38.5234 47.6446 38.4588 47.5962C38.3943 47.5479 38.3166 47.5201 38.236 47.5165C38.1554 47.5129 38.0756 47.5338 38.007 47.5763C37.0531 48.2074 36.2227 49.0078 35.557 49.938C35.3099 50.2656 35.8783 50.5946 36.1198 50.267Z" fill="#191919"/>
<path d="M33.3079 46.9778C33.3366 47.3369 33.9106 47.367 33.9064 46.9778C33.8644 43.5079 33.3744 36.8019 33.2764 35.7666C43.0848 30.9527 53.5421 27.5332 63.2658 22.5814C63.802 22.3084 63.3267 21.5377 62.787 21.7743C52.9135 26.101 42.8153 30.1743 33.1889 35.0785C32.9033 32.9862 32.764 33.1353 32.8599 33.1353C43.3382 27.9864 54.1568 23.5611 65.2398 19.8906C65.8964 19.6806 65.6017 18.6439 64.9703 18.8742C53.9635 22.8901 43.0848 27.2455 32.68 32.6572C32.6252 32.6067 32.5571 32.5728 32.4838 32.5596C32.4104 32.5464 32.3348 32.5543 32.2658 32.5826C32.1968 32.6108 32.1373 32.6581 32.0943 32.7189C32.0512 32.7797 32.0264 32.8516 32.0227 32.926C31.9926 35.2584 32.5316 37.6468 32.7402 39.9519C32.9509 42.2801 33.1203 44.6167 33.3079 46.9778Z" fill="#191919"/>
<path d="M71.2485 48.4731C71.2165 48.537 71.2033 48.6086 71.2104 48.6798C71.2174 48.7509 71.2445 48.8185 71.2885 48.8749C71.3324 48.9312 71.3915 48.974 71.4588 48.9981C71.526 49.0223 71.5988 49.0269 71.6685 49.0114C72.1623 48.8027 72.6095 48.4976 72.9838 48.114C73.4353 47.7598 73.8861 47.4343 74.3593 47.0675C74.4263 47.0167 74.4744 46.9451 74.4959 46.8639C74.5175 46.7828 74.5113 46.6967 74.4783 46.6195C74.4783 44.1975 74.1787 41.7461 74.0303 39.3241C73.8798 36.8741 73.919 34.3863 73.5816 31.9398C73.5816 31.8562 73.5484 31.7761 73.4894 31.717C73.4303 31.6579 73.3502 31.6248 73.2666 31.6248C73.1831 31.6248 73.103 31.6579 73.0439 31.717C72.9848 31.7761 72.9516 31.8562 72.9516 31.9398C72.6285 36.8793 72.819 41.839 73.52 46.7392C73.1609 46.9492 72.8032 47.1592 72.47 47.3965C72.057 47.6975 71.4536 48.0202 71.2485 48.4731Z" fill="#191919"/>
<path d="M56.2098 72.9289C54.3723 74.1798 52.4998 75.3488 50.5888 76.487C48.8836 77.502 47.0307 79.147 45.1477 79.7462C44.4897 79.9562 44.8789 80.792 45.3871 80.673C47.9281 81.723 50.7407 82.283 53.3671 83.0047C54.9771 83.4485 57.1618 84.2283 58.958 84.6189C59.5399 84.8364 60.1661 84.9085 60.7822 84.8289C61.082 84.6876 61.3551 84.4956 61.5893 84.2612C62.0093 83.9623 62.4034 83.6438 62.8451 83.3645C63.4966 82.9605 64.1254 82.5212 64.7288 82.0485C65.0277 81.8098 64.6392 81.3611 64.3088 81.5109C63.5913 81.8994 62.9088 82.3243 62.2158 82.766C61.6624 83.0439 61.1495 83.396 60.6912 83.8125C58.3294 83.0355 55.7849 82.5973 53.3958 81.9925C50.9717 81.3751 48.5525 80.6471 46.1305 80.1389C47.5662 79.0028 49.473 78.1257 50.9745 77.1191C52.8197 75.8815 54.737 74.7321 56.5045 73.4091C56.7817 73.2033 56.5115 72.7238 56.2098 72.9289Z" fill="#191919"/>
<path d="M78.454 60.4619C80.876 61.1794 88.4094 63.2745 89.3369 63.5419C89.383 63.5552 89.4243 63.5817 89.4556 63.6181C89.4869 63.6545 89.507 63.6992 89.5133 63.7468C89.5196 63.7944 89.5119 63.8428 89.4911 63.8861C89.4704 63.9294 89.4375 63.9657 89.3964 63.9906C85.3364 66.6177 81.3191 69.2749 77.4677 72.1526C77.2276 72.3318 77.4677 72.7826 77.7064 72.5726C82.0716 69.5227 91.131 63.9024 91.25 63.2143C91.25 62.9455 90.0243 62.7663 89.5763 62.6466C88.3499 62.3183 80.7682 60.3226 78.1551 59.7465C78.006 59.7136 68.5798 65.0315 63.9836 67.6992C63.6819 67.8742 63.9535 68.2977 64.2524 68.1479C69.0096 65.7595 78.3945 60.5214 78.454 60.4619Z" fill="#191919"/>
<path d="M75.8525 46.9183C82.1238 43.1558 88.7955 40.0891 95.1368 36.454C95.4973 36.244 95.169 35.7414 94.8078 35.9157C88.2432 39.086 81.8445 42.7435 75.6138 46.5298C75.3723 46.6761 75.611 47.0632 75.8525 46.9183Z" fill="#191919"/>
<path d="M57.1966 102.558C61.9566 100.808 63.7122 99.5233 81.2339 90.2378C83.5621 89.0044 86.0926 87.9278 88.2598 86.4109C88.3444 86.3562 88.405 86.2712 88.429 86.1733C88.4531 86.0754 88.4389 85.972 88.3893 85.8842C88.3397 85.7965 88.2584 85.731 88.1622 85.7011C88.0659 85.6712 87.9618 85.6792 87.8713 85.7235C84.9866 86.9184 77.5428 91.8205 57.1364 101.838C56.9572 98.3382 56.8074 94.8718 56.6583 91.3739C60.9332 89.5805 64.6922 86.5124 68.9461 84.5573C69.2744 84.4068 69.0371 83.8741 68.7067 83.9896C64.2708 85.5401 60.6644 88.8896 56.3293 90.6865H56.2992C37.5168 90.5297 17.8048 85.4932 10.8251 84.1065C9.00158 83.7453 6.99818 83.9273 5.23418 83.389C7.05768 82.1633 8.88888 80.9194 10.7642 79.742C10.8316 79.7024 10.8805 79.6376 10.9001 79.5619C10.9197 79.4862 10.9085 79.4058 10.8688 79.3385C10.8292 79.2711 10.7644 79.2222 10.6887 79.2026C10.613 79.1829 10.5327 79.1942 10.4653 79.2338C8.48568 80.4392 3.97768 83.1202 3.97768 83.3596C3.25668 93.2541 3.39878 104.682 3.97768 110.567C3.9813 110.639 4.01278 110.708 4.06562 110.758C4.11845 110.809 4.1886 110.837 4.26153 110.837C4.33446 110.837 4.40461 110.809 4.45744 110.758C4.51028 110.708 4.54176 110.639 4.54538 110.567C4.62028 106.05 4.45578 101.507 4.45578 96.9627C4.45578 92.538 4.51598 88.1427 4.54538 83.718C6.13018 84.4957 7.86338 84.3214 9.59868 84.5853C12.4162 85.013 36.7118 91.3242 56.0297 91.5216C55.9947 95.6775 56.2453 102.484 56.2684 102.554C56.869 115.357 56.9565 119.908 57.7335 124.858C57.7902 125.217 58.3306 125.096 58.332 124.767C58.3481 118.955 57.8462 115.776 57.1966 102.558Z" fill="#191919"/>
<path d="M100.578 83.2734C102.878 85.1305 104.519 88.2343 106.348 90.5387C106.612 90.8719 107.188 90.5681 106.946 90.2097C105.7 88.3599 104.444 86.5165 103.179 84.6797C102.544 83.5711 101.677 82.6125 100.638 81.8692C98.1515 80.3817 95.7435 82.2619 94.718 84.5292C91.5764 91.4781 91.106 100.261 91.8774 107.699C91.9614 108.508 93.2501 108.539 93.1633 107.699C92.5577 101.715 92.9618 95.671 94.3589 89.8205C94.9658 87.2522 96.6577 80.1094 100.578 83.2734Z" fill="#191919"/>
<path d="M105.21 95.7109C107.852 102.318 108.157 104.713 109.635 106.354C111.249 108.149 113.02 106.837 114.09 105.189C115.409 103.085 116.53 100.863 117.438 98.5515C117.621 98.1049 116.849 97.7773 116.661 98.2225C116.067 99.5643 115.398 100.872 114.658 102.139C114.121 103.097 113.044 105.519 111.967 105.906C110.294 106.507 109.27 103.098 108.857 101.99C106.907 96.7399 105.402 91.5683 103.087 89.2534C102.614 88.7084 101.977 88.3299 101.272 88.1737C100.567 88.0176 99.8305 88.092 99.1709 88.3861C97.5308 89.2317 97.2032 91.1973 97.0779 92.8409C96.8497 95.8313 96.7405 98.8497 96.5998 101.84C96.5361 103.186 95.3811 106.403 96.8385 107.341C97.71 107.901 97.7877 105.189 97.7954 104.83C97.8703 101.509 98.2287 98.163 98.2441 94.8443C98.2497 93.5283 98.1258 92.0646 98.7222 90.8375C101.092 85.9676 104.425 93.7418 105.21 95.7109Z" fill="#191919"/>
<path d="M113.973 110.87C111.348 112.464 109.04 111.616 107.036 109.494C105.482 107.849 105.011 105.811 103.867 103.933C103.629 103.543 103.121 103.814 103.179 104.232C103.796 108.684 108.204 114.732 113.285 112.663C117.98 110.753 121.143 105.338 121.297 100.405C121.322 99.6276 120.187 99.657 120.101 100.405C119.63 104.588 117.688 108.611 113.973 110.87Z" fill="#191919"/>
<path d="M94.0605 52.6582C94.3013 52.5721 94.1823 52.1136 93.7616 52.0009C91.7372 51.4584 89.1416 51.5284 88.2316 53.8545C87.4084 55.9545 89.1878 57.5918 91.0414 58.1301C93.1043 58.7279 96.2214 59.0303 97.7089 57.1431C98.0072 56.7707 98.2016 56.3259 98.2723 55.854C98.343 55.382 98.2874 54.8998 98.1112 54.4563C97.9351 54.0128 97.6446 53.6239 97.2694 53.3291C96.8941 53.0343 96.4475 52.8441 95.975 52.7779C95.5865 52.717 95.2533 53.2938 95.6761 53.4954C96.3278 53.8069 97.4149 55.23 97.3799 55.9174C97.3099 57.2376 94.7038 58.2386 91.6098 57.442C91.3711 57.3804 91.1611 57.2929 90.9224 57.232C90.9224 57.1725 90.9518 57.1424 90.9224 57.0829C90.7124 55.9167 90.6228 55.0494 91.4901 54.0932C92.1474 53.2567 93.1085 53.0005 94.0605 52.6582ZM93.0441 52.36C92.2251 52.5736 91.4805 53.008 90.8916 53.6158C90.4809 53.3521 90.0391 53.1405 89.5763 52.9858C90.4401 52.2102 91.8779 52.2102 93.0441 52.36ZM89.0975 53.6459C89.5647 53.7998 90.0154 54.0001 90.4429 54.2437C89.9786 54.9598 89.8075 55.8269 89.9648 56.6657C89.4634 56.3667 89.0947 55.8881 88.9336 55.327C88.7725 54.766 88.8311 54.1646 89.0975 53.6452V53.6459Z" fill="#191919"/>
<path d="M36.8662 64.1096C32.5262 66.6464 28.2856 69.4016 24.0401 72.0623C23.8692 70.4257 23.4246 68.8294 22.7248 67.3401C22.7248 67.31 22.6947 67.31 22.6947 67.2799C22.7521 66.4147 21.4984 66.0717 20.6647 65.9044C21.7707 64.5891 23.3863 63.6644 24.2823 62.1944C25.683 60.0074 26.3529 57.4319 26.1954 54.8395C26.138 53.8532 25.7964 52.5337 26.1653 51.581C26.4152 50.937 27.468 50.5828 27.8999 47.6645C28.1099 46.2589 27.9608 42.8485 26.4047 42.103C25.0901 41.473 23.2085 43.573 22.5477 44.4655C21.864 45.4025 21.4131 46.4887 21.2324 47.6344C20.9657 49.3088 21.5341 51.0133 21.0224 52.6569C20.5765 54.0933 19.9297 55.0481 20.0361 56.6336C20.0697 57.1418 20.1635 57.6486 20.2461 58.1582C20.5121 59.8284 20.4841 60.2204 19.5881 61.6267C18.7629 62.8137 18.2583 64.1936 18.123 65.6328C17.7646 65.6027 17.4055 65.6027 17.0471 65.6027C17.7044 62.8524 19.3788 60.0419 17.4951 57.5905C19.4089 54.6302 20.9951 49.5181 18.1531 46.7671C18.8986 45.9491 19.4046 44.9415 19.6155 43.855C19.8264 42.7684 19.7341 41.6447 19.3487 40.6071C19.0183 39.7405 17.4034 38.3048 17.4657 37.5271C17.4944 37.168 18.0957 36.4771 18.2427 36.062C18.578 35.0822 18.6743 34.0365 18.5234 33.0119C18.3726 31.9874 17.9789 31.0138 17.3754 30.1722C16.5963 29.097 16.2099 29.1852 16.2694 27.6011C16.3289 26.017 16.4493 22.7263 14.147 22.5184C11.8146 22.3084 10.8626 26.1969 10.4993 27.8384C10.0359 29.9328 9.33516 32.9036 9.54236 34.7152C9.65856 35.7316 10.227 36.867 10.0205 37.8841C9.71736 39.3779 8.67716 40.5749 8.49586 42.1898C8.30455 43.496 8.62614 44.8255 9.39326 45.8998C9.62496 46.2043 9.90006 46.4388 10.1402 46.7069C11.032 47.6988 10.8017 48.1433 10.3502 49.3669C9.28126 52.2635 8.78846 55.1454 10.5602 57.6787C10.8311 58.0658 11.9301 58.9051 12.0253 59.3825C12.1387 59.9523 11.3435 60.9981 11.2483 61.6547C10.9949 63.3914 11.9952 64.7046 13.3112 65.7847C12.8466 65.8926 12.4023 66.0741 11.9952 66.3223C11.7178 66.4562 11.4934 66.6793 11.358 66.9559C11.2226 67.2324 11.1839 67.5465 11.2483 67.8476C9.51366 70.1198 10.2277 74.7251 11.0383 77.1457C12.0183 80.0773 13.7886 81.8707 17.0177 81.9589C22.6086 82.1115 24.3726 77.355 24.0135 72.6608C28.584 70.3486 32.9706 67.6897 37.135 64.7074C37.5277 64.4127 37.2246 63.8996 36.8662 64.1096ZM21.1995 60.9701C21.9695 59.0528 20.4995 56.7218 21.1099 54.6918C21.4333 53.6138 21.994 52.8067 22.0969 51.672C22.2292 50.2055 21.8561 48.7719 22.1865 47.3369C22.4828 46.1447 23.1038 45.058 23.9806 44.1974C24.5182 43.6591 25.3848 42.7932 26.1926 43.5401C26.5811 43.8985 26.7106 45.0031 26.7904 45.4833C26.9905 46.6949 26.8449 47.9383 26.3704 49.0708C26.0078 49.9661 25.172 50.6248 24.8458 51.5208C24.5749 52.2677 24.9025 53.2855 24.9655 54.0324C25.1055 55.7075 25.2399 57.503 24.4573 59.0556C23.5361 60.8819 22.8242 62.3267 21.2583 63.719C20.5502 64.3066 19.9175 64.9796 19.3746 65.7224C19.1954 65.6923 19.0162 65.6923 18.8664 65.6629C19.1219 62.7383 20.6073 62.4513 21.1995 60.9701ZM13.0977 59.1165C13.0347 58.2198 12.2577 58.0399 11.6921 57.412C10.2578 55.8272 10.2473 53.5529 10.7058 51.5824C10.9984 50.3224 12.0813 48.802 12.0813 47.5161C12.0813 46.2008 10.7989 46.1091 10.1374 45.1242C8.08496 42.068 11.5374 39.205 10.9151 36.0942C10.5213 34.2164 10.5623 32.2733 11.0348 30.4137C11.3652 28.8597 11.543 26.7037 12.4096 25.3037C12.7687 24.197 13.6955 23.9884 15.19 24.7059C15.8109 26.6715 15.0612 27.5871 15.1004 28.6518C15.1347 29.5786 15.7829 29.7634 16.3863 30.476C16.9242 31.1352 17.2996 31.9116 17.482 32.7427C17.6644 33.5737 17.6487 34.436 17.4363 35.2598C17.2158 36.0942 16.1763 37.0238 16.24 37.8904C16.2967 38.6681 17.5231 39.387 17.9144 39.9834C18.5488 40.9858 18.8094 42.1798 18.6503 43.3553C18.4911 44.5309 17.9224 45.6126 17.0443 46.4101C16.9879 46.4692 16.9457 46.5403 16.9207 46.618C16.8958 46.6958 16.8887 46.7781 16.9002 46.859C16.9116 46.9398 16.9413 47.017 16.9868 47.0847C17.0324 47.1525 17.0927 47.209 17.1633 47.2501C20.1894 49.5538 18.0789 54.8864 16.3863 57.2958C16.3261 57.3998 16.3023 57.5208 16.3185 57.6398C16.3347 57.7588 16.3901 57.8691 16.4759 57.9531C18.284 60.0272 16.7447 62.8867 16.0272 65.5173C15.5493 65.4872 15.07 65.4872 14.5922 65.5173C10.36 62.424 13.2475 61.2501 13.0977 59.1165ZM17.3726 81.0013C14.1442 81.0013 12.5272 79.0889 11.6627 76.1881C11.0033 73.9761 10.5861 70.5377 11.7222 68.2949C14.3234 69.7005 17.9739 69.5955 20.3322 69.1622C20.9915 69.0314 21.6019 68.7211 22.0962 68.2655C24.0996 72.8701 24.0401 81.0013 17.3726 81.0013Z" fill="#191919"/>
<defs>
<linearGradient id="paint0_linear_378_5124" x1="21.936" y1="79.3382" x2="53.3898" y2="115.208" gradientUnits="userSpaceOnUse">
<stop stop-color="#FB6CDF"/>
<stop offset="0.6577" stop-color="#8E29FF"/>
<stop offset="1" stop-color="#4D2FFF" stop-opacity="0.97"/>
</linearGradient>
</defs>
</svg>
